<svg xmlns="http://www.w3.org/2000/svg" xmlns:xlink="http://www.w3.org/1999/xlink" width="1024" height="1024" style=""><rect id="backgroundrect" width="100%" height="100%" x="0" y="0" fill="none" stroke="none"/>
	
	
	
	
	
	
	
	
	
	
	
	
	
	
	
	
	
	<defs>
		<linearGradient id="gradient_0" x1="1.1859484910964966" y1="0.5292484760284424" x2="0.26304739713668823" y2="0.30898308753967285">
			<stop offset="0" stop-color="#D55F36"/>
			<stop offset="1" stop-color="#B54E3A"/>
		</linearGradient>
	</defs>
	
	
	
	
	
	
	
	
	
	
	
	
	
	
	
	
	
	
	
	
	
	
	
	
	
	
	
	
	
	
	
	
	
	
	
	
	
	
	
	
	
	
	
	
	
	
	
	
	
	
	
	
	
	
	
	
	<defs>
		<linearGradient id="gradient_1" x1="0.9890469908714294" y1="0.4868031144142151" x2="0.001627200050279498" y2="0.5067499876022339">
			<stop offset="0" stop-color="#497F63"/>
			<stop offset="1" stop-color="#60A88D"/>
		</linearGradient>
	</defs>
	
	
	
	
	
	
	
	
	
	
	
	
	
	
	
	
	
	
	
	
	
	
	
<g class="currentLayer" style=""><title>Layer 1</title><path fill="#122545" d="M512.905 892.049C515.698 894.766 518.683 897.198 521.71 899.649C514.038 907.311 505.496 914.252 497.344 921.41C483.92 933.196 470.577 945.016 456.974 956.602C456.963 951.19 456.874 945.761 456.965 940.35C462.351 934.791 468.72 929.794 474.558 924.706Q493.62 908.247 512.905 892.049Z" id="svg_2"/><path fill="#F7CD8A" d="M115.1 746.559Q115.081 743.873 115.096 741.186C115.147 733.489 115.953 725.942 121.899 720.323C130.204 712.475 142.486 714.353 152.954 714.509L152.869 726.746C152.435 733.515 152.567 740.354 152.537 747.137C147.211 747.257 117.901 748.094 115.1 746.559Z" id="svg_3"/><path fill="#122545" d="M908.243 493.499C910.752 494.874 914.019 496.048 914.802 499.071C917.063 507.807 912.194 524.276 911.635 533.85L911.931 534.479C915.26 541.472 929.971 559.765 927.907 566.002C926.116 571.417 906.851 578.914 900.96 581.546Q898.671 582.565 896.367 583.547C895.205 590.923 892.898 614.136 887.06 618.304C884.533 620.109 881.324 620.039 878.42 619.392C874.797 618.584 858.549 612.764 857.106 610.759C861.288 611.985 865.367 613.801 869.624 614.748C872.392 615.364 875.298 615.825 877.779 614.148C884.357 609.699 887.572 584.998 889.286 576.542C897.168 572.191 905.696 568.991 913.646 564.762C916.315 563.342 919.457 561.412 920.241 558.262C921.87 551.716 907.186 531.771 903.263 525.699C904.864 514.958 906.771 504.258 908.243 493.499Z" id="svg_4"/><path fill="#122545" d="M346.732 725.349L347.215 724.69C350.774 731.322 348.986 766.738 348.906 776.232C348.876 779.817 349.431 783.379 349.089 786.962L356.5 794.25L356.537 756.03C356.537 750.051 356.982 743.69 356.495 737.748C356.43 736.959 355.967 736.126 355.924 735.404C355.906 735.108 356.035 734.823 356.091 734.532C356.713 735.764 356.979 737.081 357.077 738.451C357.487 744.197 357.002 750.29 356.997 756.079L357.01 795.345L357.043 879.665L123.001 880.022L122.942 871.471C142.419 871.861 161.992 871.295 181.479 871.212C200.786 871.599 220.209 871.098 239.529 871.077L348.02 871.153L347.994 746.975C347.977 739.798 348.825 732.293 346.732 725.349Z" id="svg_5"/><path fill="#122545" d="M910.914 684.509C914.272 685.665 917.857 689.279 919.345 692.436C920.442 694.761 921.008 697.297 921.16 699.856C921.529 706.094 921.09 712.487 921.074 718.74L921.105 758.732L921.177 808.425C921.179 814.358 921.675 820.35 921.453 826.273C921.362 828.73 920.998 831.239 920.145 833.553C918.698 837.479 914.573 841.542 910.797 843.272C908.974 844.107 907.169 844.44 905.176 844.505C893.847 844.878 882.386 844.505 871.047 844.474L809.211 844.438L741.36 844.446C731.939 844.43 722.367 844.852 712.965 844.524C710.556 844.44 708.086 844.018 705.863 843.061C702.588 841.651 698.304 838.01 696.774 834.719L697.349 834.324C710.909 834.972 724.609 834.498 738.189 834.589Q787.592 834.973 836.994 834.622L875.398 834.504C882.95 834.476 892.882 835.465 900.138 833.514C904.246 832.409 908.111 828.831 910.112 825.162C911.173 823.217 911.446 821.407 911.55 819.225C912.017 809.391 911.682 799.405 911.667 789.557L911.604 736.647L911.569 704.332C911.561 698.329 912.451 690.263 910.914 684.509Z" id="svg_6"/><path fill="#ECA13F" d="M152.537 747.137C152.567 740.354 152.435 733.515 152.869 726.746C153.01 733.459 153.116 740.26 152.808 746.967C158.581 747.127 177.56 746.224 181.426 747.429L181.479 871.212C161.992 871.295 142.419 871.861 122.942 871.471Q118.986 871.485 115.034 871.319C115.048 829.748 114.55 788.123 115.1 746.559C117.901 748.094 147.211 747.257 152.537 747.137Z" id="svg_7"/><path fill="#822F25" d="M152.808 746.967C158.581 747.127 177.56 746.224 181.426 747.429L181.479 871.212C161.992 871.295 142.419 871.861 122.942 871.471Q118.986 871.485 115.034 871.319C127.607 870.89 140.212 871.033 152.791 871.01L152.808 746.967Z" id="svg_8"/><path fill="#3F8BBF" d="M448.476 748.667L512.937 748.751C512.851 765.424 512.568 782.24 513.056 798.903L513.523 799.107C513.555 807.441 514.384 837.528 512.642 843.331C512.085 843.597 511.75 843.784 511.127 843.833L512.941 844.092C512.914 860.068 512.662 876.077 512.905 892.049Q493.62 908.247 474.558 924.706C468.72 929.794 462.351 934.791 456.965 940.35Q453.015 943.823 448.969 947.185L448.961 833.479C448.963 814.226 449.815 794.47 448.584 775.269C448.965 766.474 448.523 757.481 448.476 748.667Z" id="svg_9"/><path fill="#FBC156" d="M513.056 798.903L513.523 799.107C513.555 807.441 514.384 837.528 512.642 843.331C512.085 843.597 511.75 843.784 511.127 843.833C506.699 843.035 502.923 841.96 499.254 839.173C494.545 835.597 491.234 830.138 490.516 824.244C489.806 818.402 491.745 812.321 495.347 807.718C499.895 801.907 505.965 799.685 513.056 798.903Z" id="svg_10"/><path fill="#ECA13F" d="M276.923 746.669L276.989 746.994C286.681 746.993 296.381 746.907 306.072 747.011C319.84 748 334.183 747.394 347.994 746.975L348.02 871.153L239.529 871.077C220.209 871.098 200.786 871.599 181.479 871.212L181.426 747.429L181.537 747.145C186.646 748.18 272.264 747.724 276.923 746.669Z" id="svg_11"/><path fill="#822F25" d="M276.989 746.994C286.681 746.993 296.381 746.907 306.072 747.011L306.07 783.566C300.78 780.332 295.806 776.178 290.861 772.419C286.112 776.085 281.423 779.701 276.899 783.65Q276.797 765.321 276.989 746.994Z" id="svg_12"/><path fill="#DC6A3B" d="M766.175 181.703C778.212 180.733 790.884 181.583 802.992 181.575L884.584 181.852L884.529 190.533L892.209 190.554L892.078 305.604C892.073 333.33 891.776 361.142 892.514 388.857C884.404 382.992 875.716 377.517 867.004 372.593C862.87 371.319 837.81 353.514 832.746 349.715C820.574 359.549 807.514 368.046 794.801 377.134C788.739 381.467 783.043 386.521 776.849 390.625C777.223 385.455 778.373 378.642 777.089 373.574L766.468 380.87L766.377 271.252L766.175 181.703Z" id="svg_13"/><path fill="#F2F4F1" d="M790.03 209.357Q796.958 209.299 803.885 209.421C810.789 210.041 817.877 209.638 824.81 209.64L825.08 223.54L790.035 223.447L790.03 209.357Z" id="svg_14"/><path fill="#F2F4F1" d="M790.395 237.393C799.671 237.356 808.972 237.172 818.245 237.405C820.981 237.593 823.664 237.688 826.408 237.65C826.598 241.981 827.677 247.255 827.113 251.451C814.93 251.9 802.604 251.55 790.406 251.571L790.395 237.393Z" id="svg_15"/><path fill="#D8D3CE" d="M824.55 209.124C837.214 209.145 849.975 208.856 862.625 209.337L862.611 223.941C858.025 223.269 852.967 223.64 848.314 223.65Q836.696 223.74 825.08 223.54L824.81 209.64C817.877 209.638 810.789 210.041 803.885 209.421C810.651 208.723 817.746 209.12 824.55 209.124Z" id="svg_16"/><path fill="#F2F4F1" d="M790.354 265.49L829.389 265.625C829.77 270.309 830.711 274.945 831.526 279.569C818.217 280.977 803.853 280.025 790.422 280.04L790.354 265.49Z" id="svg_17"/><path fill="url(#gradient_0)" d="M766.175 181.703C778.212 180.733 790.884 181.583 802.992 181.575L884.584 181.852L884.529 190.533L892.209 190.554L892.078 305.604C892.073 333.33 891.776 361.142 892.514 388.857C884.404 382.992 875.716 377.517 867.004 372.593C862.87 371.319 837.81 353.514 832.746 349.715C820.574 359.549 807.514 368.046 794.801 377.134C788.739 381.467 783.043 386.521 776.849 390.625C777.223 385.455 778.373 378.642 777.089 373.574C793.104 361.85 809.599 350.749 825.475 338.855C831.316 343.003 837.338 346.936 843.263 350.964C843.012 340.221 831.375 281.91 832.516 279.582L831.526 279.569C830.711 274.945 829.77 270.309 829.389 265.625L829.863 265.641C828.904 260.949 828.071 256.296 827.412 251.551L827.113 251.451C827.677 247.255 826.598 241.981 826.408 237.65C823.664 237.688 820.981 237.593 818.245 237.405C820.758 237.07 823.413 237.226 825.949 237.22Q825.622 230.612 825.462 223.997C837.564 224.256 850.6 225.008 862.611 223.941L862.625 209.337C849.975 208.856 837.214 209.145 824.55 209.124Q824.387 195.535 823.962 181.952C804.842 182.182 785.251 182.837 766.175 181.703Z" id="svg_18"/><path fill="#D8D3CE" d="M829.863 265.641C840.607 266.257 851.571 265.713 862.344 265.805L862.375 279.546L832.516 279.582L831.526 279.569C830.711 274.945 829.77 270.309 829.389 265.625L829.863 265.641Z" id="svg_19"/><path fill="#D8D3CE" d="M825.949 237.22C838.1 237.226 850.518 236.706 862.635 237.353L862.662 251.371C850.938 251.422 839.124 251.168 827.412 251.551L827.113 251.451C827.677 247.255 826.598 241.981 826.408 237.65C823.664 237.688 820.981 237.593 818.245 237.405C820.758 237.07 823.413 237.226 825.949 237.22Z" id="svg_20"/><path fill="#122545" d="M884.529 190.533L892.209 190.554L892.078 305.604C892.073 333.33 891.776 361.142 892.514 388.857C884.404 382.992 875.716 377.517 867.004 372.593C862.87 371.319 837.81 353.514 832.746 349.715C820.574 359.549 807.514 368.046 794.801 377.134C788.739 381.467 783.043 386.521 776.849 390.625C777.223 385.455 778.373 378.642 777.089 373.574C793.104 361.85 809.599 350.749 825.475 338.855C831.316 343.003 837.338 346.936 843.263 350.964C847.455 354.184 852.42 356.905 856.872 359.808L884.482 377.937L884.529 190.533Z" id="svg_21"/><path fill="#F2F4F1" d="M115.106 218.094C116.18 216.456 117.199 214.852 118.806 213.678C120.3 212.588 121.829 212.269 123.645 212.152C133.54 211.519 143.876 212.107 153.814 212.1L214.654 212.059L251.284 212.04C257.543 212.038 264.793 211.365 270.93 212.448C273.836 212.961 275.864 216.44 277.438 218.673C281.211 220.876 284.542 223.267 286.973 226.983C287.063 237.155 287.617 247.617 286.944 257.757C287.719 265.687 287.482 273.631 287.486 281.598L287.512 315.515C287.526 324.266 288.615 338.594 287.408 346.749C287.096 348.852 286.075 350.905 284.734 352.542C283.261 354.342 281.325 355.74 279.32 356.894L163.004 357.941C154.434 358.013 145.973 357.491 137.354 357.733C132.778 355.011 128.087 350.911 124.547 346.949C122.239 346.452 120.027 345.438 118.312 343.788C113.743 339.394 115.054 329.903 115.059 324.034C114.679 288.777 114.509 253.346 115.106 218.094Z" id="svg_22"/><path fill="#49A5D3" d="M233.631 263.832C234.697 264.482 235.736 265.21 236.934 265.589C232.238 272.23 220.405 287.561 214.684 292.504C214.033 291.445 213.211 290.585 212.39 289.657C219.973 281.99 227.609 272.778 233.631 263.832Z" id="svg_23"/><path fill="#49A5D3" d="M170.715 274.714C171.054 273.051 171.665 271.42 172.189 269.804C179.381 278.043 188.471 285.156 196.399 292.742L195.885 297.019C187.894 289.293 179.503 281.52 170.715 274.714Z" id="svg_24"/><path fill="#EE8645" d="M202.306 288.432Q207.337 289.132 212.39 289.657C213.211 290.585 214.033 291.445 214.684 292.504C215.32 295.797 216.083 299.044 216.888 302.3C214.606 304.421 212.192 306.499 210.066 308.772C206.419 308.143 202.759 307.408 199.06 307.205C197.729 303.864 196.611 300.728 195.923 297.195C195.911 297.136 195.897 297.077 195.885 297.019L196.399 292.742C198.256 291.132 200.27 289.799 202.306 288.432Z" id="svg_25"/><path fill="#EE8645" d="M236.137 245.275C239.473 246.196 243.296 245.891 246.466 247.136C248.105 247.78 248.332 248.881 249.032 250.362C249.928 252.272 250.795 254.201 251.755 256.079Q250.322 259.095 248.944 262.136C247.801 263.885 246.68 265.059 244.59 265.583C242.058 266.218 239.466 265.482 236.934 265.589C235.736 265.21 234.697 264.482 233.631 263.832C232.109 260.779 230.884 257.585 229.599 254.427C231.768 251.364 234.022 248.383 236.137 245.275Z" id="svg_26"/><path fill="#72D0E3" d="M156.713 254.114C161.161 254.673 165.684 254.532 170.161 254.535L174.84 263.386C173.778 265.499 172.961 267.576 172.189 269.804C171.665 271.42 171.054 273.051 170.715 274.714C167.54 273.081 163.166 275.537 159.695 276.135L159.06 276.24C156.559 273.008 153.858 270.089 151.014 267.157C152.779 262.724 154.662 258.422 156.713 254.114Z" id="svg_27"/><path fill="#D8D3CE" d="M277.438 218.673C281.211 220.876 284.542 223.267 286.973 226.983C287.063 237.155 287.617 247.617 286.944 257.757C287.719 265.687 287.482 273.631 287.486 281.598L287.512 315.515C287.526 324.266 288.615 338.594 287.408 346.749C287.096 348.852 286.075 350.905 284.734 352.542C283.261 354.342 281.325 355.74 279.32 356.894L163.004 357.941C154.434 358.013 145.973 357.491 137.354 357.733C132.778 355.011 128.087 350.911 124.547 346.949C122.239 346.452 120.027 345.438 118.312 343.788C113.743 339.394 115.054 329.903 115.059 324.034C157.816 324.058 200.716 324.859 243.451 323.979C245.626 322.458 247.531 321.123 248.662 318.646C249.28 317.294 249.539 316.017 249.65 314.541C250.162 307.75 250.547 266.157 248.944 262.136Q250.322 259.095 251.755 256.079C250.795 254.201 249.928 252.272 249.032 250.362Q263.318 250.667 277.607 250.618C277.613 239.979 277.791 229.307 277.438 218.673Z" id="svg_28"/><path fill="#122545" d="M277.438 218.673C281.211 220.876 284.542 223.267 286.973 226.983C287.063 237.155 287.617 247.617 286.944 257.757C287.719 265.687 287.482 273.631 287.486 281.598L287.512 315.515C287.526 324.266 288.615 338.594 287.408 346.749C287.096 348.852 286.075 350.905 284.734 352.542C283.261 354.342 281.325 355.74 279.32 356.894L163.004 357.941C154.434 358.013 145.973 357.491 137.354 357.733C132.778 355.011 128.087 350.911 124.547 346.949C137.456 346.442 150.509 346.809 163.43 346.822L230.536 346.867L254.532 346.951C259.483 346.968 264.887 347.364 269.766 346.516C271.995 346.128 273.504 345.014 275.068 343.408C276.698 341.734 276.962 340.132 277.252 337.886C278.434 328.728 277.56 318.622 277.567 309.343L277.607 250.618C277.613 239.979 277.791 229.307 277.438 218.673Z" id="svg_29"/><path fill="#3A6292" d="M688.584 700.862C688.611 697.396 688.377 693.921 688.379 690.452C688.383 685.673 689.42 681.64 692.96 678.237C695.144 676.137 698.002 674.655 700.946 673.969C708.234 672.27 734.04 673.518 742.758 673.571C757.08 674.529 771.746 673.915 786.104 673.903L861.331 673.995Q872.812 674.031 884.292 673.924C888.756 673.893 893.502 673.549 897.928 674.109C901.096 674.51 903.311 675.305 905.47 677.727C907.258 679.732 908.842 682.974 910.914 684.509C912.451 690.263 911.561 698.329 911.569 704.332L911.604 736.647L911.667 789.557C911.682 799.405 912.017 809.391 911.55 819.225C911.446 821.407 911.173 823.217 910.112 825.162C908.111 828.831 904.246 832.409 900.138 833.514C892.882 835.465 882.95 834.476 875.398 834.504L836.994 834.622Q787.592 834.974 738.189 834.589C724.609 834.498 710.909 834.972 697.349 834.324C693.124 833.105 690.806 829.428 688.612 825.91C688.15 814.568 688.766 803.101 688.853 791.75L688.993 732.469C688.995 722.014 689.379 711.282 688.584 700.862Z" id="svg_30"/><path fill="#122545" d="M701.637 810.221L897.589 810.428C897.656 813.287 897.976 816.349 897.431 819.164L896.581 819.548L701.62 819.765L701.637 810.221Z" id="svg_31"/><path fill="#A2D7DF" d="M897.768 687.566C896.575 699.647 897.522 712.72 897.54 724.907C897.573 747.1 897.359 769.318 897.624 791.506C890.147 790.099 837.212 748.917 827.411 741.13C835.15 734.919 895.938 691.009 897.768 687.566Z" id="svg_32"/><path fill="#A2D7DF" d="M701.339 687.509C702.01 688.841 702.716 689.503 703.876 690.411C712.413 697.085 721.678 702.95 730.474 709.291Q751.428 724.615 771.918 740.555C764.066 747.691 707.8 791.548 701.547 793.501L701.496 723.917C701.507 711.861 702.15 699.516 701.339 687.509Z" id="svg_33"/><path fill="#F2F4F1" d="M701.339 687.509C702.116 687.098 702.653 686.948 703.537 686.939C716.253 686.796 729.014 687.15 741.736 687.17L840.934 687.281C847.824 687.283 894.187 686.326 897.479 687.426C897.581 687.46 897.672 687.519 897.768 687.566C895.938 691.009 835.15 734.919 827.411 741.13C818.381 747.864 808.532 754.577 800.298 762.268Q786.165 751.337 771.918 740.555Q751.428 724.615 730.474 709.291C721.678 702.95 712.413 697.085 703.876 690.411C702.716 689.503 702.01 688.841 701.339 687.509Z" id="svg_34"/><path fill="#72D0E3" d="M701.547 793.501C707.8 791.548 764.066 747.691 771.918 740.555Q786.165 751.337 800.298 762.268C808.532 754.577 818.381 747.864 827.411 741.13C837.212 748.917 890.147 790.099 897.624 791.506Q897.964 796.963 897.887 802.429Q799.688 801.89 701.489 802.53L701.547 793.501Z" id="svg_35"/><path fill="#1C3357" d="M485.694 78.7655C490.956 78.161 535.201 77.9112 537.311 79.0927L537.799 81.5086C543.405 86.6134 562.62 104.722 565.096 110.02C569.943 107.113 577.23 95.2984 581.997 94.5034L583.109 95.6499C585.705 96.131 587.246 96.9438 589.26 98.6469C598.392 106.371 606.688 115.361 615.152 123.8L649.575 157.769Q691.672 199.792 734.641 240.923C743.084 249.126 757.091 265.243 766.377 271.252L766.468 380.87L777.089 373.574C778.373 378.642 777.223 385.455 776.849 390.625C783.043 386.521 788.739 381.467 794.801 377.134C807.514 368.046 820.574 359.549 832.746 349.715C837.81 353.514 862.87 371.319 867.004 372.593C868.453 407.118 867.677 442.027 867.487 476.588C869.097 479.137 871.252 481.491 872.731 484.06C879.807 484.399 901.784 483.797 906.225 489.21C907.18 490.373 907.855 492.059 908.243 493.499C906.771 504.258 904.864 514.958 903.263 525.699C907.186 531.771 921.87 551.716 920.241 558.262C919.457 561.412 916.315 563.342 913.646 564.762C905.696 568.991 897.168 572.191 889.286 576.542C887.572 584.998 884.357 609.699 877.779 614.148C875.298 615.825 872.392 615.364 869.624 614.748C865.367 613.801 861.288 611.985 857.106 610.759C855.172 609.901 853.26 609.334 851.225 608.778L809.826 650.686C802.34 658.221 794.19 665.455 787.265 673.493L758.748 673.416C753.465 673.406 748.013 673.116 742.758 673.571C734.04 673.518 708.234 672.27 700.946 673.969C698.002 674.655 695.144 676.137 692.96 678.237C689.42 681.64 688.383 685.673 688.379 690.452C688.377 693.921 688.611 697.396 688.584 700.862C688.002 716.885 688.575 733.08 688.619 749.121L583.111 854.111L583.018 854.365C583.899 865.833 583.062 877.837 583.092 889.355Q583.401 921.547 583.351 953.741C580.619 951.368 577.919 948.938 575.109 946.66C570.863 944.575 565.386 938.586 561.687 935.268L537.515 913.604C532.333 908.925 527.242 903.905 521.71 899.649C518.683 897.198 515.698 894.766 512.905 892.049C512.662 876.077 512.914 860.068 512.941 844.092L511.127 843.833C511.75 843.784 512.085 843.597 512.642 843.331C514.384 837.528 513.555 807.441 513.523 799.107L513.056 798.903C512.568 782.24 512.851 765.424 512.937 748.751L448.476 748.667C448.523 757.481 448.965 766.474 448.584 775.269C447.804 788.564 448.461 802.222 448.489 815.555L448.428 887.788C441.855 880.21 434.351 873.236 427.268 866.122L388.404 827.054L366.887 804.945C363.886 801.874 360.603 797.629 357.01 795.345L356.997 756.079C357.002 750.29 357.487 744.197 357.077 738.451C356.979 737.081 356.713 735.764 356.091 734.532C356.035 734.823 355.906 735.108 355.924 735.404C355.967 736.126 356.43 736.959 356.495 737.748C356.982 743.69 356.537 750.051 356.537 756.03L356.5 794.25L349.089 786.962C349.431 783.379 348.876 779.817 348.906 776.232C348.986 766.738 350.774 731.322 347.215 724.69L346.732 725.349C348.825 732.293 347.977 739.798 347.994 746.975C334.183 747.394 319.84 748 306.072 747.011C296.381 746.907 286.681 746.993 276.989 746.994L276.923 746.669C272.264 747.724 186.646 748.18 181.537 747.145L181.426 747.429C177.56 746.224 158.581 747.127 152.808 746.967C153.116 740.26 153.01 733.459 152.869 726.746L152.954 714.509C162.442 714.514 172.076 714.191 181.546 714.618L213.119 714.53C211.257 710.623 198.868 699.552 195.315 696.008Q177.802 678.441 160.107 661.056C148.696 649.969 137.003 639.051 126.177 627.385C124.156 625.204 122.189 622.977 119.93 621.038C119.112 620.898 119.567 621.039 118.618 620.473C118.633 617.924 153.963 566.097 158.019 560.069C150.781 552.584 146.106 542.16 144.716 531.894C142.461 515.253 147.55 501.031 157.529 487.872L157.868 412.121C157.847 394.115 157.184 375.975 157.833 357.988C151.353 358.073 143.696 358.878 137.354 357.733C145.973 357.491 154.434 358.013 163.004 357.941L279.32 356.894C281.325 355.74 283.261 354.342 284.734 352.542C286.075 350.905 287.096 348.852 287.408 346.749C288.615 338.594 287.526 324.266 287.512 315.515L287.486 281.598C287.482 273.631 287.719 265.687 286.944 257.757L287.633 259.195L288.408 259.296C308.28 240.88 328.567 223.092 348.97 205.271C361.545 194.287 374.453 183.601 386.378 171.905Q401.728 156.42 416.739 140.607Q413.058 135.581 409.654 130.364C413.798 125.755 418.451 121.574 422.886 117.246L445.628 95.1239C450.922 99.9396 456.376 104.601 461.748 109.332C468.844 106.069 476.195 103.498 483.537 100.855Q484.882 89.8363 485.694 78.7655Z" id="svg_36" class="selected"/><path fill="#122545" d="M411.021 223.95L412.747 228.132C406.699 228.093 396.882 229.141 391.413 226.477C390.257 225.914 389.911 225.48 389.497 224.299C396.404 223.274 403.981 224.28 411.021 223.95Z" id="svg_37"/><path fill="#122545" d="M401.616 542.017C408.723 546.537 415.809 551.134 423.355 554.896Q430.91 558.651 438.893 561.379C442.451 562.601 446.532 563.547 449.865 565.26C451.486 566.093 452.735 567.514 453.928 568.856C453.37 569.032 453.155 569.123 452.528 569.205C449.64 569.586 445.62 567.509 442.916 566.486C430.414 561.755 412.523 554.521 402.81 545.295C401.585 544.132 401.568 543.668 401.616 542.017Z" id="svg_38"/><path fill="#122545" d="M460.862 286.806C467.65 290.346 474.719 292.156 481.651 295.144L482.088 296.436L481.613 297.581C476.02 297.262 470.444 293.058 465.078 291.471C459.102 295.374 453.324 300.594 448.102 305.454C446.595 303.991 444.956 302.562 443.66 300.909C449.663 297.039 455.335 291.399 460.862 286.806Z" id="svg_39"/><path fill="#122545" d="M632.167 394.667L632.921 393.547C635.039 393.263 636.873 393.497 638.971 393.783C638.658 404.632 639.092 419.581 636.736 429.869L629.411 429.983Q631.695 412.396 632.167 394.667Z" id="svg_40"/><path fill="#ECA13F" d="M202.461 468.006C216.195 468.332 230.131 475.042 239.605 484.888C243.995 489.451 246.087 495.344 249.646 499.048L249.69 500.961C249.451 501.264 249.026 501.518 248.717 501.754C246.876 501.147 244.639 497.513 243.277 495.951C233.548 484.786 219.928 476.564 204.955 475.519L204.618 475.418C204.909 474.037 205.056 472.306 204.896 470.904C204.704 469.225 203.724 468.846 202.461 468.006Z" id="svg_41"/><path fill="#122545" d="M616.908 263.474C618.801 264.376 619.855 267.225 620.71 269.062C608.557 281.131 595.812 292.931 584.174 305.481C582.618 304.025 580.828 302.622 579.755 300.761L579.767 300.473C586.998 293.746 593.916 286.573 600.952 279.638C606.291 274.377 612.106 269.23 616.908 263.474Z" id="svg_42"/><path fill="#122545" d="M542.731 294.69C550.222 292.773 556.95 289.914 563.657 286.075L568.043 290.361C564.23 294.196 553.062 297.229 547.853 299.443C545.156 306.92 544.681 315.187 542.926 322.915C537.673 323.64 493.06 325.141 490.019 323.33C489.212 322.85 488.798 321.743 488.728 320.855C488.683 320.285 488.692 319.703 488.695 319.131C496.48 318.817 504.285 318.852 512.075 318.799Q525.492 318.479 538.902 319.04C540.295 310.949 541.374 302.792 542.731 294.69Z" id="svg_43"/><path fill="#EE8645" d="M497.8 602.95C502.76 603.988 507.891 605.148 512.989 605.042C516.767 605.011 520.366 604.193 524.03 603.362L523.968 627.949C520.881 627.898 517.194 627.476 514.199 628.18L513.629 628.996L514.042 631.917C507.004 631.81 486.47 630.567 480.665 632.655C477.728 633.712 475.916 636.305 473.231 637.647C474.052 635.367 475.208 633.329 476.994 631.656C482.328 626.66 490.891 627.837 497.625 627.974L497.692 615.647Q497.568 609.297 497.8 602.95Z" id="svg_44"/><path fill="#E28A2E" d="M497.8 602.95C502.76 603.988 507.891 605.148 512.989 605.042C512.942 612.646 513.309 620.358 513.012 627.941C508.066 627.671 503.011 627.956 498.054 628.024C498.024 624.609 498.831 618.762 497.692 615.647Q497.568 609.297 497.8 602.95Z" id="svg_45"/><path fill="#122545" d="M199.77 583.003C201.79 586.557 204.225 590.195 205.845 593.936C201.574 599.812 197.127 611.596 193.453 618.625C186.833 631.289 179.382 643.434 172.603 655.994C171.232 654.105 167.515 646.804 165.661 646.682C165.28 646.657 164.413 646.813 164.019 646.875C168.14 642.942 196.671 590.583 199.77 583.003Z" id="svg_46"/><path fill="#E28A2E" d="M523.968 627.949L526.729 627.858C533.973 627.848 540.653 627.018 546.69 631.798C552.033 637.551 552.577 642.173 552.486 649.75L552.333 654.464C541.08 655.637 529.329 655.018 518.004 655.02L514.541 654.973L514.452 650.012L514.141 649.984C514.936 644.356 514.147 637.632 514.042 631.917L513.629 628.996L514.199 628.18C517.194 627.476 520.881 627.898 523.968 627.949Z" id="svg_47"/><path fill="#DC6A3B" d="M523.968 627.949L526.729 627.858C533.973 627.848 540.653 627.018 546.69 631.798C543.399 633.016 519.303 631.973 514.042 631.917L513.629 628.996L514.199 628.18C517.194 627.476 520.881 627.898 523.968 627.949Z" id="svg_48"/><path fill="#DC6A3B" d="M552.486 649.75L552.333 654.464C541.08 655.637 529.329 655.018 518.004 655.02L514.541 654.973L514.452 650.012C524.329 648.5 541.723 649.606 552.486 649.75Z" id="svg_49"/><path fill="#122545" d="M563.435 660.795C566.011 660.637 568.566 660.499 571.149 660.51C570.999 672.299 570.816 684.125 571.06 695.912C537.364 695.312 503.662 696.312 469.982 695.502C469.893 692.81 469.953 690 469.696 687.325Q493.862 686.987 518.03 687.033L518.043 683.006L562.957 683.05C562.946 679.003 562.646 674.714 563.374 670.726L563.435 660.795Z" id="svg_50"/><path fill="#DC6A3B" d="M562.957 683.05C562.946 679.003 562.646 674.714 563.374 670.726Q563.518 678.872 563.308 687.016L518.03 687.033L518.043 683.006L562.957 683.05Z" id="svg_51"/><path fill="#E28A2E" d="M552.333 654.464L563.455 654.339L563.435 660.795L563.374 670.726C562.646 674.714 562.946 679.003 562.957 683.05L518.043 683.006L518.004 655.02C529.329 655.018 541.08 655.637 552.333 654.464Z" id="svg_52"/><path fill="#122545" d="M249.646 499.048C250.371 498.677 250.323 498.477 250.988 498.738C254.503 500.117 258.81 511.065 260.003 514.742C265.188 530.721 262.446 545.135 254.786 559.807C253.359 562.539 251.792 565.083 249.961 567.562C262.286 588.112 276.197 607.903 289.306 627.985C278.77 627.211 268.24 625.817 257.689 625.401C252.42 635.738 248.939 646.891 243.987 657.369C242.058 654.115 240.093 649.488 236.546 647.859C240.814 638.352 244.623 628.614 248.582 618.975C259.828 619.652 271.096 620.805 282.356 621.096C271.853 606.636 262.466 591.366 252.431 576.575C248.633 570.977 245.035 564.906 240.681 559.754C248.177 551.285 252.858 541.328 254.177 530.071C255.02 522.877 254.162 506.68 249.69 500.961L249.646 499.048Z" id="svg_53"/><path fill="#122545" d="M575.612 751.977L583.102 751.939C582.757 785.967 583.917 820.105 583.111 854.111L583.018 854.365C583.899 865.833 583.062 877.837 583.092 889.355Q583.401 921.547 583.351 953.741C580.619 951.368 577.919 948.938 575.109 946.66C574.656 930.201 575.041 913.603 575.022 897.132L575.145 795.173L575.565 795.059L575.612 751.977Z" id="svg_54"/><path fill="#F7CD8A" d="M276.99 714.425Q291.493 714.272 305.997 714.404C313.734 714.44 327.413 713.209 334.439 715.078C337.766 715.962 340.767 717.87 343.153 720.331C344.371 721.588 345.218 722.972 346.141 724.441C346.333 724.747 346.535 725.046 346.732 725.349C348.825 732.293 347.977 739.798 347.994 746.975C334.183 747.394 319.84 748 306.072 747.011C296.381 746.907 286.681 746.993 276.989 746.994L276.923 746.669L276.99 714.425Z" id="svg_55"/><path fill="#B14032" d="M276.99 714.425Q291.493 714.272 305.997 714.404L306.072 747.011C296.381 746.907 286.681 746.993 276.989 746.994L276.923 746.669L276.99 714.425Z" id="svg_56"/><path fill="#122545" d="M684.965 437.411C687.756 438.878 690.565 438.905 693.662 438.958C691.748 473.838 673.628 512.93 647.541 536.262Q645.813 537.81 644.037 539.301Q642.26 540.793 640.436 542.226Q638.611 543.659 636.742 545.032Q634.872 546.405 632.959 547.717Q631.046 549.029 629.091 550.278Q627.137 551.528 625.143 552.713Q623.149 553.898 621.117 555.019Q619.086 556.139 617.019 557.193Q614.953 558.246 612.853 559.233Q610.754 560.219 608.623 561.137Q606.493 562.055 604.334 562.903Q602.175 563.751 599.989 564.529Q597.804 565.307 595.594 566.014Q593.385 566.721 591.154 567.356Q588.923 567.991 586.672 568.553Q584.422 569.116 582.154 569.605C566.352 585.647 554.005 603.033 531.604 610.403L531.394 627.083C529.875 627.774 528.341 627.586 526.729 627.858L523.968 627.949L524.03 603.362C541.361 598.838 563.701 575.43 575.209 561.439C594.676 558.31 614.108 548.767 629.721 536.834C662.848 511.515 679.648 478.126 684.965 437.411Z" id="svg_57"/><path fill="#FBC156" d="M473.231 637.647C475.916 636.305 477.728 633.712 480.665 632.655C486.47 630.567 507.004 631.81 514.042 631.917C514.147 637.632 514.936 644.356 514.141 649.984L514.452 650.012L514.541 654.973L518.004 655.02L518.043 683.006L518.03 687.033Q493.862 686.987 469.696 687.325L461.637 687.473Q461.554 677.608 461.634 667.743L461.513 654.315C464.914 654.343 468.286 654.349 471.672 654.719L471.588 650.059C471.577 645.642 471.691 641.869 473.231 637.647Z" id="svg_58"/><path fill="#EE8645" d="M471.588 650.059C485.763 650.029 499.969 650.213 514.141 649.984L514.452 650.012L514.541 654.973C506.198 655.184 497.815 655.089 489.466 655.127C483.785 655.152 477.253 655.733 471.672 654.719L471.588 650.059Z" id="svg_59"/><path fill="#EE8645" d="M461.634 667.743C462.12 672.824 461.929 677.995 461.918 683.096L518.043 683.006L518.03 687.033Q493.862 686.987 469.696 687.325L461.637 687.473Q461.554 677.608 461.634 667.743Z" id="svg_60"/><path fill="#ECA13F" d="M473.231 637.647C475.916 636.305 477.728 633.712 480.665 632.655C486.47 630.567 507.004 631.81 514.042 631.917C514.147 637.632 514.936 644.356 514.141 649.984C499.969 650.213 485.763 650.029 471.588 650.059C471.577 645.642 471.691 641.869 473.231 637.647Z" id="svg_61"/><path fill="#B14032" d="M240.681 559.754C245.035 564.906 248.633 570.977 252.431 576.575C262.466 591.366 271.853 606.636 282.356 621.096C271.096 620.805 259.828 619.652 248.582 618.975C244.623 628.614 240.814 638.352 236.546 647.859C231.983 643.168 228.809 635.941 225.663 630.241C219.008 618.185 212.722 605.859 205.845 593.936C204.225 590.195 201.79 586.557 199.77 583.003C199.915 581.603 200.129 580.283 200.418 578.906C201.814 577.84 203.352 577.916 205.064 577.698C219.543 575.75 230.633 570.545 240.681 559.754Z" id="svg_62"/><path fill="#DC6A3B" d="M158.019 560.069L158.373 560.037C168.131 569.444 179.891 576.012 193.554 577.328C197.392 577.698 201.243 577.384 205.064 577.698C203.352 577.916 201.814 577.84 200.418 578.906C200.129 580.283 199.915 581.603 199.77 583.003C196.671 590.583 168.14 642.942 164.019 646.875C160.422 643.1 156.487 630.889 154.338 625.563C147.954 627.204 133.684 626.779 126.177 627.385C124.156 625.204 122.189 622.977 119.93 621.038C119.112 620.898 119.567 621.039 118.618 620.473C118.633 617.924 153.963 566.097 158.019 560.069Z" id="svg_63"/><path fill="#122545" d="M119.93 621.038C130.635 620.506 141.288 618.843 151.979 618.364L154.338 625.563C147.954 627.204 133.684 626.779 126.177 627.385C124.156 625.204 122.189 622.977 119.93 621.038Z" id="svg_64"/><path fill="#E28A2E" d="M204.955 475.519C219.928 476.564 233.548 484.786 243.277 495.951C244.639 497.513 246.876 501.147 248.717 501.754C249.026 501.518 249.451 501.264 249.69 500.961C254.162 506.68 255.02 522.877 254.177 530.071C252.858 541.328 248.177 551.285 240.681 559.754C230.633 570.545 219.543 575.75 205.064 577.698L205.025 561.518C205.363 536.581 206.167 511.349 205.038 486.438C204.891 482.792 204.901 479.167 204.955 475.519Z" id="svg_65"/><path fill="#F7CD8A" d="M205.038 486.438C215.101 487.574 224.051 492.021 230.474 499.993C236.927 508.002 239.543 518.44 238.327 528.595C237.112 538.73 231.908 547.377 223.829 553.556C218.085 557.95 212.09 560.267 205.025 561.518C205.363 536.581 206.167 511.349 205.038 486.438Z" id="svg_66"/><path fill="#F7CD8A" d="M213.119 714.53L276.99 714.425L276.923 746.669C272.264 747.724 186.646 748.18 181.537 747.145L181.426 747.429C177.56 746.224 158.581 747.127 152.808 746.967C153.116 740.26 153.01 733.459 152.869 726.746L152.954 714.509C162.442 714.514 172.076 714.191 181.546 714.618L213.119 714.53Z" id="svg_67"/><path fill="#B14032" d="M152.954 714.509C162.442 714.514 172.076 714.191 181.546 714.618Q181.357 730.882 181.537 747.145L181.426 747.429C177.56 746.224 158.581 747.127 152.808 746.967C153.116 740.26 153.01 733.459 152.869 726.746L152.954 714.509Z" id="svg_68"/><path fill="#ECA13F" d="M157.529 487.872C158.664 486.548 159.913 485.303 161.158 484.084C172.465 473.015 186.801 467.874 202.461 468.006C203.724 468.846 204.704 469.225 204.896 470.904C205.056 472.306 204.909 474.037 204.618 475.418L204.955 475.519C204.901 479.167 204.891 482.792 205.038 486.438C206.167 511.349 205.363 536.581 205.025 561.518L205.064 577.698C201.243 577.384 197.392 577.698 193.554 577.328C179.891 576.012 168.131 569.444 158.373 560.037L158.019 560.069C150.781 552.584 146.106 542.16 144.716 531.894C142.461 515.253 147.55 501.031 157.529 487.872Z" id="svg_69"/><path fill="#FBC156" d="M157.529 487.872C158.664 486.548 159.913 485.303 161.158 484.084C172.465 473.015 186.801 467.874 202.461 468.006C203.724 468.846 204.704 469.225 204.896 470.904C205.056 472.306 204.909 474.037 204.618 475.418C190.893 474.645 179.148 477.169 168.681 486.509C158.56 495.539 151.403 507.976 150.633 521.677C149.863 535.359 155.045 546.138 163.571 556.429L158.373 560.037L158.019 560.069C150.781 552.584 146.106 542.16 144.716 531.894C142.461 515.253 147.55 501.031 157.529 487.872Z" id="svg_70"/><path fill="#FEE2B8" d="M205.025 561.518L203.891 561.528C191.937 561.598 181.079 558.888 172.405 550.208C165.261 543.059 161.799 533.632 161.856 523.599C161.913 513.735 165.433 504.515 172.527 497.576C182.002 488.307 192.259 486.352 205.038 486.438C206.167 511.349 205.363 536.581 205.025 561.518Z" id="svg_71"/><path fill="#3A6292" d="M512.937 748.751L575.311 748.788C574.834 764.16 574.776 779.797 575.145 795.173L575.022 897.132C575.041 913.603 574.656 930.201 575.109 946.66C570.863 944.575 565.386 938.586 561.687 935.268L537.515 913.604C532.333 908.925 527.242 903.905 521.71 899.649C518.683 897.198 515.698 894.766 512.905 892.049C512.662 876.077 512.914 860.068 512.941 844.092L511.127 843.833C511.75 843.784 512.085 843.597 512.642 843.331C514.384 837.528 513.555 807.441 513.523 799.107L513.056 798.903C512.568 782.24 512.851 765.424 512.937 748.751Z" id="svg_72"/><path fill="#ECA13F" d="M513.523 799.107C520.467 800.121 526.757 802.335 531.089 808.234C534.541 812.935 536.051 819.33 535.158 825.086Q535.071 825.632 534.958 826.173Q534.844 826.714 534.704 827.249Q534.564 827.783 534.398 828.311Q534.232 828.838 534.04 829.356Q533.848 829.875 533.631 830.383Q533.414 830.891 533.172 831.388Q532.931 831.885 532.665 832.37Q532.399 832.855 532.109 833.326Q531.82 833.797 531.508 834.253Q531.195 834.709 530.861 835.149Q530.527 835.589 530.171 836.012Q529.816 836.436 529.44 836.841Q529.064 837.246 528.669 837.633Q528.273 838.019 527.859 838.385Q527.446 838.752 527.014 839.097Q526.583 839.443 526.135 839.767C522.2 842.598 517.706 843.748 512.941 844.092L511.127 843.833C511.75 843.784 512.085 843.597 512.642 843.331C514.384 837.528 513.555 807.441 513.523 799.107Z" id="svg_73"/><path fill="url(#gradient_1)" d="M812.784 483.447C818.171 475.894 824.203 467.584 830.699 460.984C833.009 458.638 836.099 456.279 839.569 456.355C843.441 456.44 846.061 459.72 848.58 462.241C851.742 461.901 853.779 462.988 856.241 464.913C860.497 468.242 863.5 472.966 867.487 476.588C869.097 479.137 871.252 481.491 872.731 484.06C879.807 484.399 901.784 483.797 906.225 489.21C907.18 490.373 907.855 492.059 908.243 493.499C906.771 504.258 904.864 514.958 903.263 525.699C907.186 531.771 921.87 551.716 920.241 558.262C919.457 561.412 916.315 563.342 913.646 564.762C905.696 568.991 897.168 572.191 889.286 576.542C887.572 584.998 884.357 609.699 877.779 614.148C875.298 615.825 872.392 615.364 869.624 614.748C865.367 613.801 861.288 611.985 857.106 610.759C855.172 609.901 853.26 609.334 851.225 608.778L838.898 604.802C831.756 608.562 825.428 613.939 817.862 616.926C814.733 618.161 811.388 618.723 808.24 617.215C806.038 616.159 804.388 614.321 803.212 612.21C798.79 604.278 795.841 588.61 792.206 579.137C784.859 575.351 776.684 573.18 769.401 569.196C765.723 567.183 761.553 564.102 760.511 559.81C758.66 552.183 774.167 531.233 778.583 524.384C778.457 523.799 778.334 523.222 778.243 522.63C777.175 515.699 774.346 499.283 774.644 493.265C774.734 491.444 775.169 489.651 776.348 488.216C777.556 486.744 779.268 485.971 781.081 485.52C784.801 484.594 789.155 484.869 792.995 484.665L812.784 483.447Z" id="svg_74"/><path fill="#122545" d="M848.58 462.241C851.742 461.901 853.779 462.988 856.241 464.913C860.497 468.242 863.5 472.966 867.487 476.588C869.097 479.137 871.252 481.491 872.731 484.06C872.001 484.051 871.271 484.038 870.543 483.966C864.695 483.386 852.563 467.141 848.58 462.241Z" id="svg_75"/><path fill="#73B598" d="M835.074 589.697C827.814 588.584 821.533 586.462 815.363 582.387Q814.314 581.696 813.302 580.953Q812.289 580.211 811.314 579.419Q810.339 578.626 809.406 577.787Q808.472 576.947 807.581 576.062Q806.69 575.176 805.845 574.248Q804.999 573.319 804.201 572.349Q803.403 571.38 802.654 570.371Q801.905 569.363 801.208 568.319Q800.51 567.274 799.865 566.197Q799.221 565.119 798.631 564.01Q798.041 562.901 797.507 561.765Q796.973 560.628 796.496 559.466Q796.019 558.304 795.601 557.12Q795.183 555.936 794.825 554.732Q794.466 553.528 794.168 552.308Q793.87 551.088 793.633 549.855C790.976 536.431 793.499 522.412 801.277 511.081C809.561 499.014 821.13 492.953 835.251 490.373L835.358 555.276C835.359 566.582 836.119 578.483 835.074 589.697Z" id="svg_76"/><path fill="#59A191" d="M835.251 490.373C847.772 489.58 859.955 493.421 869.393 501.789C879.115 510.41 885.152 524.123 885.916 537.006Q885.99 538.231 886.004 539.458Q886.017 540.685 885.971 541.911Q885.925 543.137 885.819 544.359Q885.713 545.582 885.547 546.797Q885.381 548.013 885.156 549.219Q884.931 550.425 884.647 551.619Q884.364 552.813 884.022 553.991Q883.68 555.17 883.281 556.33Q882.882 557.49 882.427 558.63Q881.972 559.769 881.461 560.885Q880.951 562.001 880.386 563.09Q879.822 564.18 879.205 565.24Q878.588 566.301 877.92 567.33Q877.252 568.359 876.535 569.354Q875.817 570.35 875.052 571.309Q874.286 572.268 873.475 573.188C864.48 583.211 852.735 588.928 839.279 589.587Q837.177 589.682 835.074 589.697C836.119 578.483 835.359 566.582 835.358 555.276L835.251 490.373Z" id="svg_77"/><path fill="#DC6A3B" d="M485.694 78.7655C490.956 78.161 535.201 77.9112 537.311 79.0927L537.799 81.5086C543.405 86.6134 562.62 104.722 565.096 110.02C569.943 107.113 577.23 95.2984 581.997 94.5034L583.109 95.6499C593.513 107.853 605.692 118.763 617.355 129.758C612.393 135.299 607.32 140.769 602.475 146.411C607.587 153.825 611.52 164.893 613.849 173.461C617.171 173.435 632.163 172.729 633.908 174.09L634.102 175.056C635.518 175.418 636.066 175.582 637.087 176.713C638.745 181.87 637.549 196.301 637.557 202.761C637.568 211.523 637.586 220.32 638.439 229.048Q628.121 229.543 617.791 229.53C614.525 237.164 611.54 245.53 607.323 252.666C610.339 256.22 613.356 260.471 616.908 263.474C612.106 269.23 606.291 274.377 600.952 279.638C593.916 286.573 586.998 293.746 579.767 300.473Q574.04 295.261 568.043 290.361L563.657 286.075C556.95 289.914 550.222 292.773 542.731 294.69C541.374 302.792 540.295 310.949 538.902 319.04Q525.492 318.479 512.075 318.799L511.985 262.691L511.63 262.533C511.651 259.101 510.238 252.352 512.327 249.58C512.912 248.804 514.703 248.744 515.649 248.551L512.285 248.528C511.317 237.191 511.965 225.421 512.183 214.056L512.499 213.777L541.337 199.44C531.882 194.435 522.355 189.365 512.45 185.3L512.321 185.03C510.91 174.29 511.853 159.69 512.026 148.543L512.347 148.46C511.238 143.991 511.944 138.175 511.88 133.516L511.603 133.46Q511.375 106.105 511.526 78.751C502.968 78.9288 494.242 79.1686 485.694 78.7655Z" id="svg_78"/><path fill="#122545" d="M537.799 81.5086C543.405 86.6134 562.62 104.722 565.096 110.02C556.782 107.478 549.142 103.639 540.438 101.264C539.351 94.7055 538.592 88.1076 537.799 81.5086Z" id="svg_79"/><path fill="#122545" d="M634.102 175.056C635.518 175.418 636.066 175.582 637.087 176.713C638.745 181.87 637.549 196.301 637.557 202.761C637.568 211.523 637.586 220.32 638.439 229.048Q628.121 229.543 617.791 229.53C614.525 237.164 611.54 245.53 607.323 252.666L602.336 247.62C607.086 240.23 610.113 232.761 612.759 224.424L634.117 224.66C633.99 208.15 633.701 191.56 634.102 175.056Z" id="svg_80"/><path fill="#122545" d="M511.88 133.516C529.931 133.464 546.008 140.51 558.822 153.208C571.072 165.347 577.452 181.573 577.524 198.752Q577.535 200.333 577.468 201.913Q577.401 203.493 577.256 205.067Q577.111 206.642 576.889 208.207Q576.666 209.772 576.367 211.325Q576.068 212.878 575.692 214.414Q575.317 215.949 574.866 217.465Q574.416 218.981 573.891 220.472Q573.366 221.964 572.768 223.427Q572.171 224.891 571.501 226.324Q570.832 227.756 570.093 229.154Q569.354 230.552 568.547 231.912Q567.74 233.271 566.867 234.59Q565.994 235.908 565.057 237.182Q564.12 238.455 563.122 239.681Q562.123 240.907 561.065 242.082Q560.007 243.257 558.893 244.379C545.968 257.138 529.89 262.481 511.985 262.691L511.63 262.533C511.651 259.101 510.238 252.352 512.327 249.58C512.912 248.804 514.703 248.744 515.649 248.551C527.038 247.794 538.354 242.758 546.781 235.094C556.704 226.069 562.099 213.338 562.563 200.009Q562.603 198.768 562.581 197.526Q562.559 196.284 562.476 195.044Q562.393 193.805 562.249 192.572Q562.104 191.338 561.899 190.113Q561.694 188.888 561.428 187.674Q561.163 186.461 560.837 185.262Q560.512 184.064 560.128 182.883Q559.743 181.701 559.301 180.541Q558.859 179.38 558.36 178.243Q557.861 177.105 557.306 175.994Q556.751 174.883 556.142 173.8Q555.533 172.718 554.871 171.667Q554.209 170.616 553.496 169.599Q552.782 168.582 552.02 167.602Q551.257 166.621 550.447 165.68Q549.637 164.738 548.781 163.838C539.078 153.617 526.252 148.787 512.347 148.46C511.238 143.991 511.944 138.175 511.88 133.516Z" id="svg_81"/><path fill="#49A5D3" d="M512.347 148.46C526.252 148.787 539.078 153.617 548.781 163.838Q549.637 164.738 550.447 165.68Q551.257 166.621 552.02 167.602Q552.782 168.582 553.496 169.599Q554.209 170.616 554.871 171.667Q555.533 172.718 556.142 173.8Q556.751 174.883 557.306 175.994Q557.861 177.105 558.36 178.243Q558.859 179.38 559.301 180.541Q559.743 181.701 560.128 182.883Q560.512 184.064 560.837 185.262Q561.163 186.461 561.428 187.675Q561.694 188.888 561.899 190.113Q562.104 191.338 562.249 192.572Q562.393 193.805 562.476 195.044Q562.559 196.284 562.581 197.526Q562.603 198.768 562.563 200.009C562.099 213.338 556.704 226.069 546.781 235.094C538.354 242.758 527.038 247.794 515.649 248.551L512.285 248.528C511.317 237.191 511.965 225.421 512.183 214.056L512.499 213.777L541.337 199.44C531.882 194.435 522.355 189.365 512.45 185.3L512.321 185.03C510.91 174.29 511.853 159.69 512.026 148.543L512.347 148.46Z" id="svg_82"/><path fill="#EE8645" d="M485.694 78.7655C494.242 79.1686 502.968 78.9288 511.526 78.751Q511.375 106.106 511.603 133.46L511.88 133.516C511.944 138.175 511.238 143.991 512.347 148.46L512.026 148.543C511.853 159.69 510.91 174.29 512.321 185.03L512.45 185.3C522.355 189.365 531.882 194.435 541.337 199.44L512.499 213.777L512.183 214.056C511.965 225.421 511.317 237.191 512.285 248.528L515.649 248.551C514.703 248.744 512.912 248.804 512.327 249.58C510.238 252.352 511.651 259.101 511.63 262.533L511.985 262.691L512.075 318.799C504.285 318.852 496.48 318.817 488.695 319.131C487.989 319.081 487.301 318.929 486.605 318.801C483.777 314.842 483.257 301.867 482.088 296.436L481.651 295.144C474.719 292.156 467.65 290.346 460.862 286.806C455.335 291.399 449.663 297.039 443.66 300.909C431.292 288.85 419.464 276.404 406.847 264.568Q414.463 255.726 420.984 246.048Q416.46 237.277 412.747 228.132L411.021 223.95C403.888 222.675 395.129 223.555 387.82 223.598L387.721 192.299C387.688 186.186 387.292 179.818 387.898 173.737L386.378 171.905Q401.728 156.42 416.739 140.607Q413.058 135.581 409.654 130.364C413.798 125.755 418.451 121.574 422.886 117.246L445.628 95.1239C450.922 99.9396 456.376 104.601 461.748 109.332C468.844 106.069 476.195 103.498 483.537 100.855Q484.882 89.8363 485.694 78.7655Z" id="svg_83"/><path fill="#1C3357" d="M416.739 140.607C418.822 143.489 420.852 146.434 423.008 149.26C419.144 156.908 414.468 165.247 412.097 173.475C404.178 173.876 395.798 174.45 387.898 173.737L386.378 171.905Q401.728 156.42 416.739 140.607Z" id="svg_84"/><path fill="#1C3357" d="M511.603 133.46L511.88 133.516C511.944 138.175 511.238 143.991 512.347 148.46L512.026 148.543Q510.795 148.573 509.567 148.662Q508.339 148.752 507.117 148.901Q505.895 149.05 504.681 149.259Q503.468 149.467 502.266 149.734Q501.064 150.002 499.877 150.327Q498.689 150.653 497.519 151.036Q496.349 151.419 495.199 151.859Q494.049 152.298 492.921 152.793Q491.794 153.288 490.692 153.838Q489.59 154.387 488.516 154.989Q487.442 155.592 486.399 156.246Q485.356 156.899 484.346 157.603Q483.336 158.307 482.361 159.06Q481.386 159.812 480.449 160.611Q479.513 161.41 478.616 162.253Q477.719 163.097 476.864 163.983Q475.998 164.877 475.178 165.812Q474.358 166.748 473.586 167.724Q472.814 168.699 472.091 169.712Q471.369 170.725 470.698 171.773Q470.027 172.82 469.409 173.9Q468.791 174.98 468.228 176.089Q467.665 177.199 467.158 178.335Q466.651 179.471 466.201 180.631Q465.752 181.791 465.361 182.973Q464.97 184.154 464.638 185.353Q464.307 186.552 464.035 187.766Q463.764 188.98 463.554 190.207Q463.343 191.433 463.195 192.668Q463.046 193.903 462.959 195.144Q462.872 196.386 462.847 197.63Q462.823 198.873 462.86 200.117Q462.892 201.366 462.986 202.611Q463.079 203.857 463.235 205.096Q463.391 206.335 463.608 207.565Q463.825 208.795 464.102 210.013Q464.38 211.231 464.718 212.433Q465.056 213.636 465.454 214.82Q465.851 216.004 466.307 217.167Q466.762 218.33 467.275 219.469Q467.788 220.608 468.357 221.72Q468.926 222.831 469.549 223.914Q470.173 224.996 470.849 226.046Q471.526 227.096 472.254 228.111Q472.981 229.126 473.759 230.104Q474.536 231.082 475.361 232.019Q476.186 232.957 477.056 233.853Q477.927 234.749 478.841 235.6Q479.677 236.389 480.549 237.137Q481.422 237.884 482.33 238.589Q483.239 239.293 484.18 239.953Q485.121 240.613 486.093 241.226Q487.065 241.839 488.066 242.405Q489.066 242.97 490.093 243.486Q491.12 244.003 492.171 244.468Q493.221 244.934 494.293 245.349Q495.365 245.763 496.456 246.125Q497.547 246.487 498.654 246.796Q499.761 247.104 500.882 247.359Q502.003 247.613 503.134 247.814Q504.266 248.013 505.406 248.158Q506.547 248.303 507.692 248.393Q508.838 248.482 509.987 248.516Q511.136 248.55 512.285 248.528L515.649 248.551C514.703 248.744 512.912 248.804 512.327 249.58C510.238 252.352 511.651 259.101 511.63 262.533C496.409 262.864 480.811 256.525 469.505 246.493Q468.32 245.438 467.187 244.326Q466.055 243.214 464.979 242.048Q463.903 240.882 462.886 239.664Q461.869 238.446 460.913 237.18Q459.957 235.913 459.064 234.601Q458.172 233.289 457.345 231.935Q456.518 230.581 455.759 229.187Q455 227.794 454.31 226.365Q453.62 224.936 453.002 223.474Q452.383 222.013 451.838 220.523Q451.292 219.033 450.82 217.518Q450.349 216.003 449.952 214.466Q449.556 212.93 449.235 211.376Q448.915 209.822 448.671 208.254Q448.428 206.686 448.262 205.107Q448.096 203.529 448.008 201.945Q447.932 200.331 447.934 198.716Q447.937 197.1 448.019 195.487Q448.101 193.874 448.262 192.266Q448.423 190.659 448.663 189.061Q448.902 187.464 449.22 185.88Q449.538 184.296 449.932 182.729Q450.327 181.163 450.798 179.618Q451.27 178.072 451.816 176.552Q452.362 175.032 452.983 173.54Q453.603 172.049 454.296 170.589Q454.988 169.13 455.752 167.706Q456.515 166.282 457.347 164.898Q458.18 163.513 459.079 162.171Q459.978 160.829 460.942 159.533Q461.905 158.236 462.932 156.988Q463.958 155.741 465.044 154.545C477.221 141.184 493.709 134.326 511.603 133.46Z" id="svg_85"/><path fill="#3EBAE3" d="M512.285 248.528Q511.136 248.55 509.987 248.516Q508.838 248.482 507.692 248.393Q506.547 248.303 505.406 248.158Q504.266 248.013 503.134 247.814Q502.003 247.613 500.882 247.359Q499.761 247.104 498.654 246.796Q497.547 246.487 496.456 246.125Q495.365 245.763 494.293 245.349Q493.221 244.934 492.171 244.468Q491.12 244.003 490.093 243.486Q489.066 242.97 488.066 242.405Q487.065 241.839 486.093 241.226Q485.121 240.613 484.18 239.953Q483.239 239.293 482.33 238.589Q481.422 237.884 480.549 237.137Q479.677 236.389 478.841 235.6Q477.927 234.749 477.056 233.853Q476.186 232.957 475.361 232.019Q474.536 231.082 473.759 230.104Q472.981 229.126 472.254 228.111Q471.526 227.096 470.849 226.046Q470.173 224.996 469.549 223.914Q468.926 222.831 468.357 221.72Q467.788 220.608 467.275 219.469Q466.762 218.33 466.307 217.167Q465.851 216.004 465.454 214.82Q465.056 213.636 464.718 212.433Q464.38 211.231 464.102 210.013Q463.825 208.795 463.608 207.565Q463.391 206.335 463.235 205.096Q463.079 203.857 462.986 202.611Q462.892 201.366 462.86 200.117Q462.823 198.873 462.847 197.63Q462.872 196.386 462.959 195.144Q463.046 193.903 463.195 192.668Q463.343 191.433 463.554 190.207Q463.764 188.98 464.035 187.766Q464.307 186.552 464.638 185.353Q464.97 184.154 465.361 182.973Q465.752 181.791 466.201 180.631Q466.651 179.471 467.158 178.335Q467.665 177.199 468.228 176.089Q468.791 174.98 469.409 173.9Q470.027 172.82 470.698 171.773Q471.369 170.725 472.091 169.712Q472.814 168.699 473.586 167.724Q474.358 166.748 475.178 165.812Q475.998 164.877 476.864 163.983Q477.719 163.097 478.616 162.253Q479.513 161.41 480.449 160.611Q481.386 159.812 482.361 159.06Q483.336 158.307 484.346 157.603Q485.356 156.899 486.399 156.246Q487.442 155.592 488.516 154.989Q489.59 154.387 490.692 153.838Q491.794 153.288 492.921 152.793Q494.049 152.298 495.199 151.859Q496.349 151.419 497.519 151.036Q498.689 150.653 499.877 150.327Q501.064 150.002 502.266 149.734Q503.468 149.467 504.681 149.259Q505.895 149.05 507.117 148.901Q508.339 148.752 509.567 148.662Q510.795 148.573 512.026 148.543C511.853 159.69 510.91 174.29 512.321 185.03L512.45 185.3C522.355 189.365 531.882 194.435 541.337 199.44L512.499 213.777L512.183 214.056C511.965 225.421 511.317 237.191 512.285 248.528Z" id="svg_86"/><path fill="#F2F4F1" d="M493.019 175.913Q502.608 180.602 512.321 185.03L512.45 185.3C522.355 189.365 531.882 194.435 541.337 199.44L512.499 213.777L512.183 214.056C505.617 217.103 499.244 220.636 492.986 224.268C492.721 208.166 492.997 192.019 493.019 175.913Z" id="svg_87"/><path fill="#ECA13F" d="M483.099 387.388C489.509 386.848 496.126 387.17 502.563 387.183L536.46 387.188C568.37 387.134 600.431 386.589 632.327 387.224L632.167 394.667Q631.695 412.396 629.411 429.983L636.736 429.869C652.939 429.836 669.409 429.163 685.58 429.81Q685.249 433.609 684.965 437.411C679.648 478.126 662.848 511.515 629.721 536.834C614.108 548.767 594.676 558.31 575.209 561.439C563.701 575.43 541.361 598.838 524.03 603.362C520.366 604.193 516.767 605.011 512.989 605.042C513.601 594.793 513.161 584.271 513.198 573.996Q513.336 541.099 512.91 508.204C506.993 512.399 493.314 523.188 486.734 524.967C485.034 525.427 484.197 525.018 482.779 524.193C488.997 520.84 507.037 503.969 511.971 503.656C512.363 503.31 512.582 502.936 512.867 502.503C513.185 497.306 512.958 427.099 512.753 426.476C512.628 426.095 512.279 425.829 512.042 425.505L512.748 424.822C513.996 419.256 513.004 395.096 512.973 387.633C503.324 387.569 492.581 388.741 483.099 387.388Z" id="svg_88"/><path fill="#E28A2E" d="M629.411 429.983L636.736 429.869C635.72 433.034 636.102 436.946 636.177 440.255C638.758 440.25 651.481 439.576 652.859 440.848C644.615 441.315 636.113 440.897 627.839 440.906C628.925 437.401 629.077 433.617 629.411 429.983Z" id="svg_89"/><path fill="#122545" d="M652.859 440.848L673.55 441.025L672.316 448.36C660.148 447.144 647.231 447.942 634.98 447.966C630.693 474.162 622.737 499.233 610.228 522.687C607.724 527.381 602.231 534.944 602.591 540.366C596.981 542.997 591.386 545.105 585.418 546.782C607.079 514.345 620.714 479.151 627.839 440.906C636.113 440.897 644.615 441.315 652.859 440.848Z" id="svg_90"/><path fill="#D8D3CE" d="M512.748 424.822C514.069 425.727 515.388 426.635 516.374 427.917C521.44 434.501 526.889 450.595 529.957 458.975C537.08 458.941 560.508 457.207 565.168 461.142C565.687 462.356 565.83 462.704 565.439 464.05C563.898 469.359 539.534 482.459 533.996 485.433C536.245 491.937 548.213 518.134 546.293 523.026C545.86 524.129 545.407 524.208 544.394 524.488C541.428 523.894 514.756 506.306 511.971 503.656C512.363 503.31 512.582 502.936 512.867 502.503C513.185 497.306 512.958 427.099 512.753 426.476C512.628 426.095 512.279 425.829 512.042 425.505L512.748 424.822Z" id="svg_91"/><path fill="#1C3357" d="M634.98 447.966C647.231 447.942 660.148 447.144 672.316 448.36C665.414 477.048 654.855 499.634 632.512 519.89C626.404 525.428 619.971 530.66 612.912 534.946Q607.922 537.982 602.591 540.366C602.231 534.944 607.724 527.381 610.228 522.687C622.737 499.233 630.693 474.162 634.98 447.966Z" id="svg_92"/><path fill="#FBC156" d="M390.849 387.396C404.201 386.885 417.67 387.225 431.035 387.234C448.379 387.245 465.76 387.039 483.099 387.388C492.581 388.741 503.324 387.569 512.973 387.633C513.004 395.096 513.996 419.256 512.748 424.822L512.042 425.505C512.279 425.829 512.628 426.095 512.753 426.476C512.958 427.099 513.185 497.306 512.867 502.503C512.582 502.936 512.363 503.31 511.971 503.656C507.037 503.969 488.997 520.84 482.779 524.193C484.197 525.018 485.034 525.427 486.734 524.967C493.314 523.188 506.993 512.399 512.91 508.204Q513.336 541.099 513.198 573.996C513.161 584.271 513.601 594.793 512.989 605.042C507.891 605.148 502.76 603.988 497.8 602.95C482.532 597.739 465.039 580.692 453.928 568.856C452.735 567.514 451.486 566.093 449.865 565.26C446.532 563.547 442.451 562.601 438.893 561.379Q430.91 558.651 423.355 554.896C415.809 551.134 408.723 546.537 401.616 542.017C395.335 536.842 388.403 532.544 382.41 526.979C353.799 500.409 340.228 468.053 338.86 429.244C357.029 428.36 375.53 429.023 393.734 429.007C391.15 415.503 390.767 401.113 390.849 387.396Z" id="svg_93"/><path fill="#122545" d="M349.755 440.558L395.25 440.695L396.122 445.507C387.494 443.894 364.308 445.075 354.537 445.53C354.247 455.218 356.973 464.58 360.079 473.675C361.074 476.589 362.633 479.891 363.159 482.886C363.306 483.729 363.15 484.127 362.81 484.871Q361.444 482.304 360.21 479.671Q358.976 477.038 357.877 474.346Q356.778 471.655 355.816 468.911Q354.854 466.167 354.033 463.377Q353.211 460.588 352.531 457.761Q351.852 454.934 351.316 452.076Q350.78 449.218 350.39 446.337Q349.999 443.455 349.755 440.558Z" id="svg_94"/><path fill="#F2F4F1" d="M512.042 425.505C512.279 425.829 512.628 426.095 512.753 426.476C512.958 427.099 513.185 497.306 512.867 502.503C512.582 502.936 512.363 503.31 511.971 503.656C507.037 503.969 488.997 520.84 482.779 524.193C480.912 523.574 478.632 522.888 477.559 521.114C475.47 517.665 483.136 491.403 484.374 486.351C479.966 481.666 463.215 466.263 461.4 462.25C460.851 461.037 460.924 460.456 461.325 459.228C465.741 455.143 488.845 456.994 495.529 457.049C498.18 449.434 505.481 429.736 512.042 425.505Z" id="svg_95"/><path fill="#1C3357" d="M354.537 445.53C364.308 445.075 387.494 443.894 396.122 445.507C403.243 482.425 415.583 516.866 437.119 547.883C407.25 535.457 377.505 514.41 362.81 484.871C363.15 484.127 363.306 483.729 363.159 482.886C362.633 479.891 361.074 476.589 360.079 473.675C356.973 464.58 354.247 455.218 354.537 445.53Z" id="svg_96"/></g></svg>