<svg xmlns="http://www.w3.org/2000/svg" xmlns:xlink="http://www.w3.org/1999/xlink" width="730" height="730" style=""><rect id="backgroundrect" width="100%" height="100%" x="0" y="0" fill="none" stroke="none"/>
	
	
	
	
	
	
	
	
	
	
	
	
	
	
	
	
	
	
	
	
	
	
	
	
	<defs>
		<linearGradient id="gradient_0" x1="0.8496295213699341" y1="0.6614847183227539" x2="0.2272264063358307" y2="0.37716230750083923">
			<stop offset="0" stop-color="#DE4916"/>
			<stop offset="1" stop-color="#F76431"/>
		</linearGradient>
	</defs>
	
	
	
	
	
	
	
	
	
	
	
	
	
	
	
	
	
	
	
	
	
	
	
	
	
	
	
	
	
	
	
	
	
	
	
	
	
	
	
	
	
	
	
	
	
	
	
	
	
	
	
	
	
	
	
	
	
	<defs>
		<linearGradient id="gradient_1" x1="0.07612200081348419" y1="0.008409800007939339" x2="0.7480226159095764" y2="1.0282516479492188">
			<stop offset="0" stop-color="#FFB68B"/>
			<stop offset="1" stop-color="#FFD5B5"/>
		</linearGradient>
	</defs>
	
	
	
	
	
	
	
	
	
	
	
	
	
	
	
	
	
	
	
	
	
	
	
	
	
	
	
	
	
	
	
	
	
	
	
	
	
	
	
	
	
	
	
	
	
	
	
	
	
	
	
	
	
	
	
	
	
	
	
	
	
	
	
	
	
	
	
	
	
	
	
	
	
	
	
	
	
	
	
	
	
	
	
	
	
	
	
	
	
	
	
	
	
	
	
	
	
	
	
	
	
	
<g class="currentLayer" style=""><title>Layer 1</title><path fill="#FFFFFA" transform="scale(0.7128909826278687) " d="M1092.436138613612,250.79270916194034 L2116.4361386136115,250.79270916194034 L2116.4361386136115,1274.792709161939 L1092.436138613612,1274.792709161939 L1092.436138613612,250.79270916194034 z" id="svg_1" class="" opacity="1"/><path fill="#33090B" transform="scale(0.7128909826278687) " d="M249.323 225.601C251.432 225.9 253.529 226.49 255.603 226.977L260.078 227.416C247.679 233.342 240.228 243.701 235.77 256.518C232.494 265.935 230.962 278.717 235.395 288.031C236.072 289.454 236.923 290.646 237.913 291.862C238.584 292.487 239.3 293.094 239.925 293.763C235.485 292.924 230.948 292.375 227.756 288.872C225.452 286.403 224.19 283.59 223.429 280.309C220.484 267.619 225.57 251.918 232.275 241.202Q232.599 240.537 232.953 239.888Q233.308 239.238 233.692 238.607Q234.077 237.975 234.491 237.362Q234.905 236.749 235.347 236.156Q235.79 235.563 236.26 234.992Q236.73 234.421 237.226 233.872Q237.722 233.324 238.244 232.799Q238.765 232.275 239.311 231.775Q239.857 231.276 240.425 230.803Q240.994 230.33 241.584 229.884Q242.174 229.438 242.785 229.021Q243.396 228.603 244.025 228.215Q244.655 227.827 245.302 227.469Q245.949 227.11 246.612 226.783Q247.276 226.456 247.954 226.16Q248.632 225.864 249.323 225.601Z" id="svg_2"/><path fill="#ED4F1F" transform="scale(0.7128909826278687) " d="M247.141 230.851C247.243 232.118 246.962 232.678 246.065 233.612C244.927 234.796 243.114 235.75 241.464 235.617C241.189 235.594 240.914 235.559 240.639 235.53C240.725 235.284 240.769 235.02 240.895 234.792C242.189 232.437 244.714 231.498 247.141 230.851Z" id="svg_3"/><path fill="#ED4F1F" transform="scale(0.7128909826278687) " d="M226.125 265.509C226.166 264.062 226.01 263.171 226.763 261.916C228.298 261.718 229.759 262.797 231.078 263.49C230.794 264.823 230.97 265.32 229.819 266.177Q227.968 265.867 226.125 265.509Z" id="svg_4"/><path fill="#ED4F1F" transform="scale(0.7128909826278687) " d="M229.383 254.784C229.04 254.038 229.025 253.664 229.246 252.838C229.549 251.707 230.142 251.088 231.134 250.581C232.453 251.933 233.406 252.768 233.719 254.678L233.293 255.625C231.532 256.077 231.004 255.518 229.383 254.784Z" id="svg_5"/><path fill="#F48B61" transform="scale(0.7128909826278687) " d="M231.265 249.629C231.281 249.165 231.283 248.417 231.407 247.984C231.747 246.791 232.181 246.536 233.19 246.038C234.367 246.912 235.575 247.451 235.795 249.067C235.852 249.481 235.697 250.087 235.612 250.5C235.038 250.849 234.581 251.367 233.879 251.215C232.853 250.993 232.072 250.26 231.265 249.629Z" id="svg_6"/><path fill="#F48B61" transform="scale(0.7128909826278687) " d="M233.703 242.441C234.845 241.742 235.524 240.944 236.927 241.397C237.626 241.622 238.391 242.175 239.027 242.554C238.328 244.174 238.02 245.636 236.515 246.636C235.723 246.43 235.039 246.193 234.299 245.843C233.505 244.474 233.652 243.988 233.703 242.441Z" id="svg_7"/><path fill="#ED4F1F" transform="scale(0.7128909826278687) " d="M231.408 262.326C230.797 262.056 230.181 261.787 229.586 261.486C228.159 260.762 227.66 260.151 227.171 258.646C227.574 257.263 227.915 256.505 228.836 255.348C230.195 256.346 231.463 256.844 231.973 258.481L231.809 258.981C231.421 260.196 231.096 261.038 231.408 262.326Z" id="svg_8"/><path fill="#A74133" transform="scale(0.7128909826278687) " d="M249.323 225.601C251.432 225.9 253.529 226.49 255.603 226.977C254.268 227.123 253.627 226.996 252.555 227.829C251.008 229.029 249.189 230.172 247.241 230.441L247.141 230.851C244.714 231.498 242.189 232.437 240.895 234.792C240.769 235.02 240.725 235.284 240.639 235.53L240.305 236.191L241.925 237.538C241.965 239.368 240.751 240.41 239.69 241.847L239.027 242.554C238.391 242.175 237.626 241.622 236.927 241.397C235.524 240.944 234.845 241.742 233.703 242.441L233.434 242.329C232.817 243.236 233.242 242.904 232.103 243.249L232.717 242.172L232.275 241.202Q232.599 240.537 232.953 239.888Q233.308 239.238 233.692 238.607Q234.077 237.975 234.491 237.362Q234.905 236.749 235.347 236.156Q235.79 235.563 236.26 234.992Q236.73 234.421 237.226 233.872Q237.722 233.324 238.244 232.799Q238.765 232.275 239.311 231.775Q239.857 231.276 240.425 230.803Q240.994 230.33 241.584 229.884Q242.174 229.438 242.785 229.021Q243.396 228.603 244.025 228.215Q244.655 227.827 245.302 227.469Q245.949 227.11 246.612 226.783Q247.276 226.456 247.954 226.16Q248.632 225.864 249.323 225.601Z" id="svg_9"/><path fill="#ED4F1F" transform="scale(0.7128909826278687) " d="M239.69 241.847C239.047 241.372 238.421 240.872 237.788 240.383C237.436 239.039 237.414 238.806 237.786 237.473C238.793 236.676 239.055 236.377 240.305 236.191L241.925 237.538C241.965 239.368 240.751 240.41 239.69 241.847Z" id="svg_10"/><path fill="#33090B" transform="scale(0.7128909826278687) " d="M205.167 139.54L206.809 138.004C217.608 127.911 232.96 117.678 248.421 118.307C257.294 118.668 262.767 122.657 268.544 128.891C265.459 128.911 261.362 127.439 258.249 126.853C239.27 128.83 223.467 138.103 211.424 152.847C203.879 162.084 196.554 175.472 198.04 187.849C198.518 191.829 201.09 194.211 202.333 197.765C200.14 196.365 198.143 194.796 196.857 192.495C191.7 187.294 187.72 182.848 187.66 175.065C187.558 161.79 196.259 148.679 205.167 139.54Z" id="svg_11"/><path fill="#ED4F1F" transform="scale(0.7128909826278687) " d="M217.067 142.035C216.337 141.695 215.502 141.354 214.854 140.875C213.84 140.127 213.642 139.517 213.584 138.324L214.435 137.567C215.769 138.213 217.11 138.827 218.386 139.583C218.055 140.589 217.734 141.211 217.067 142.035Z" id="svg_12"/><path fill="#ED4F1F" transform="scale(0.7128909826278687) " d="M209.795 139.404C210.23 138.978 210.777 138.36 211.298 138.019C212.65 137.133 212.916 137.282 214.435 137.567L213.584 138.324C213.642 139.517 213.84 140.127 214.854 140.875C215.502 141.354 216.337 141.695 217.067 142.035C216.342 142.582 215.576 143.105 214.911 143.723C213.495 142.068 211.506 140.75 209.795 139.404Z" id="svg_13"/><path fill="#ED4F1F" transform="scale(0.7128909826278687) " d="M200.086 150.374C202.83 151.555 204.399 152.148 205.783 154.979L205.447 156.242L205.625 155.289L204.327 156.222L202.33 155.414C201.736 154.498 200.39 153.907 199.425 153.398C199.215 153.288 199.003 153.182 198.792 153.074C198.801 151.722 199.312 151.416 200.086 150.374Z" id="svg_14"/><path fill="#ED4F1F" transform="scale(0.7128909826278687) " d="M219.489 132.076C221.212 131.048 222.685 130.147 224.652 129.695C225.654 130.745 227.177 132.042 227.318 133.572C227.36 134.036 227.278 134.289 227.185 134.716C225.695 135.132 224.05 135 222.695 134.206C222.161 133.893 221.684 133.5 221.176 133.151C220.63 132.775 220.049 132.431 219.489 132.076Z" id="svg_15"/><path fill="#ED4F1F" transform="scale(0.7128909826278687) " d="M192.949 164.72C193.409 163.335 193.706 161.753 194.852 160.775C196.268 160.944 196.652 161.496 197.731 162.393C198.868 163.373 199.579 163.696 199.97 165.171C199.564 165.968 199.283 166.638 198.651 167.282C196.935 166.159 194.847 165.487 192.949 164.72Z" id="svg_16"/><path fill="#ED4F1F" transform="scale(0.7128909826278687) " d="M205.28 143.81L209.064 140.487C210.801 142.059 212.41 143.602 214.485 144.726C213.756 145.475 213.09 146.006 212.203 146.558C210.065 146.749 208.623 145.011 206.576 144.599C206.303 144.544 206.028 144.501 205.754 144.452L205.28 143.81Z" id="svg_17"/><path fill="#F48B61" transform="scale(0.7128909826278687) " d="M218.114 133.083C220.123 134.064 221.423 134.646 222.624 136.578L222.588 137.825C221.425 138.741 220.144 138.9 218.691 138.75C217.438 137.393 215.599 136.59 213.999 135.677L218.114 133.083Z" id="svg_18"/><path fill="#F48B61" transform="scale(0.7128909826278687) " d="M199.998 161.748C199.939 161.689 199.885 161.625 199.82 161.572C197.383 159.58 196.133 158.953 195.658 155.587L196.537 155.028C196.704 155.017 196.872 155.012 197.038 154.996C198.711 154.832 199.71 155.423 201.172 156.128C202.442 156.968 202.813 156.979 203.273 158.479C202.98 160.283 202.178 161.022 200.925 162.301L200.159 162.081L199.998 161.748Z" id="svg_19"/><path fill="#ED4F1F" transform="scale(0.7128909826278687) " d="M192.023 172.72C191.179 171.799 191.052 171.564 191.055 170.235C191.057 168.839 191.564 168.224 192.463 167.25C194.148 166.871 194.485 167.458 195.923 168.33C196.936 169.164 197.854 169.534 197.719 171.024C197.597 172.363 196.737 174.195 196.332 175.516L192.023 172.72Z" id="svg_20"/><path fill="#ED4F1F" transform="scale(0.7128909826278687) " d="M201.133 149.169C201.195 149.013 201.242 148.85 201.318 148.701C202.049 147.263 203.772 145.458 205.332 144.999C207.03 146.424 208.898 147.482 210.801 148.602L207.091 152.959C205.165 151.623 203.268 150.153 201.133 149.169Z" id="svg_21"/><path fill="#ED4F1F" transform="scale(0.7128909826278687) " d="M196.164 190.14C194.436 188.947 192.583 186.48 191.601 184.616C190.143 181.849 189.711 176.952 190.58 173.967L191.195 173.836C192.689 174.811 194.202 175.76 195.642 176.815C195.489 181.208 195.087 185.831 196.164 190.14Z" id="svg_22"/><path fill="#F48B61" transform="scale(0.7128909826278687) " d="M230.687 125.642C235.082 122.253 245.915 120.136 251.429 120.573C254.489 120.816 259.065 121.667 261.195 124.065L261.023 124.687L258.74 124.716C256.225 123.212 250.464 124.483 247.631 125.188C243.092 126.318 238.671 128.026 234.322 129.734L231.312 126.805C232.035 128.172 232.853 129.005 233.962 130.039C232.372 130.845 230.759 131.619 229.217 132.514C227.821 131.107 226.516 129.608 224.773 128.629C226.709 127.571 228.711 126.623 230.687 125.642Z" id="svg_23"/><path fill="#A74133" transform="scale(0.7128909826278687) " d="M311.79 301.032C314.291 300.884 317.246 301.197 319.532 302.275C322.232 303.549 324.078 305.711 324.906 308.575C327.225 316.601 323.144 328.104 319.266 335.146C314.266 344.225 306.57 352.506 296.371 355.433C293.916 355.871 291.732 355.945 289.411 354.915C286.849 353.777 285.084 351.974 284.129 349.325C281.285 341.433 284.658 330.752 288.178 323.544C293.051 313.569 301.142 304.705 311.79 301.032Z" id="svg_24"/><path fill="url(#gradient_0)" transform="scale(0.7128909826278687) " d="M810.998 708.186C811.376 706.784 810.804 705.437 811.218 703.841C816.252 715.334 817.206 726.037 812.537 737.85C805.056 756.78 788.697 774.983 769.852 783.013C759.669 787.353 746.49 789.716 735.961 785.11C730.793 782.849 726.227 777.923 722.058 774.178C723.204 774.197 722.796 774.105 723.806 774.42C726.346 775.211 728.831 776.005 731.517 776.175C747.481 777.18 764.479 767.038 775.861 756.819C788.253 744.63 796.743 731.22 799.53 713.891C800.981 714.637 801.692 714.803 803.323 714.791C804.031 714.151 804.199 713.661 805.198 713.683C806.755 713.718 808.632 714.726 810.082 715.324L810.753 713.978C810.582 713.159 810.406 712.37 810.356 711.532C810.347 711.37 810.347 711.207 810.342 711.044C810.76 710.734 811.022 710.374 811.348 709.972L810.998 708.186Z" id="svg_25"/><path fill="#33090B" transform="scale(0.7128909826278687) " d="M771.694 767.591C771.998 767.707 772.32 767.784 772.605 767.941C773.656 768.517 774.111 769.463 774.52 770.52C774.383 772.494 774.235 772.568 773.033 774.008C772.823 773.96 772.601 773.948 772.402 773.866C771.242 773.387 770.823 772.554 770.36 771.473C770.437 769.432 770.608 769.202 771.694 767.591Z" id="svg_26"/><path fill="#33090B" transform="scale(0.7128909826278687) " d="M777.213 762.701C777.386 762.727 777.563 762.739 777.734 762.779C779.342 763.149 780.515 764.003 781.393 765.387C781.598 767.326 781.342 767.352 780.273 768.882C778.84 768.46 777.078 767.504 776.538 765.995C775.999 764.49 776.5 763.974 777.213 762.701Z" id="svg_27"/><path fill="#33090B" transform="scale(0.7128909826278687) " d="M802.9 725.79C804.58 726.402 806.245 726.936 807.767 727.887C808.462 729.528 808.105 730.195 807.767 731.912C806.074 731.163 804.452 730.497 802.975 729.366C802.183 727.725 802.463 727.497 802.9 725.79Z" id="svg_28"/><path fill="#33090B" transform="scale(0.7128909826278687) " d="M803.323 714.791C804.031 714.151 804.199 713.661 805.198 713.683C806.755 713.718 808.632 714.726 810.082 715.324C810.92 716.096 811.009 716.721 811.399 717.785C810.591 718.26 811.055 718.022 809.984 718.457C807.178 717.903 805.346 716.788 803.323 714.791Z" id="svg_29"/><path fill="#33090B" transform="scale(0.7128909826278687) " d="M803.623 719.749C805.364 720.104 808.517 720.697 809.647 722.116C810.689 723.424 810.18 724.365 809.903 725.845C808.037 725.593 806.06 724.852 804.689 723.511C803.467 722.315 803.64 721.309 803.623 719.749Z" id="svg_30"/><path fill="#33090B" transform="scale(0.7128909826278687) " d="M791.441 748.886C791.897 749.206 792.173 749.38 792.574 749.717C793.519 750.509 793.907 751.432 793.976 752.638C794.075 754.369 793.47 755.471 792.295 756.691L791.465 756.502C790.494 755.489 789.294 754.962 788.334 753.945C788.413 751.99 790.238 750.419 791.441 748.886Z" id="svg_31"/><path fill="#33090B" transform="scale(0.7128909826278687) " d="M800.948 729.664C802.654 730.216 805.023 731.534 805.997 733.112C806.981 734.708 806.531 735.255 806.052 736.882C804.059 736.201 801.415 735.785 800.054 734.099C799.558 732.413 800.298 731.189 800.948 729.664Z" id="svg_32"/><path fill="#33090B" transform="scale(0.7128909826278687) " d="M786.063 755.304L786.405 755.389C787.468 756.586 788.718 757.746 788.477 759.489C788.199 761.496 786.322 762.908 784.917 764.184C784.719 764.057 784.516 763.938 784.323 763.804C782.869 762.795 782.202 762.074 781.89 760.321C782.601 758.237 784.511 756.8 786.063 755.304Z" id="svg_33"/><path fill="#33090B" transform="scale(0.7128909826278687) " d="M796.802 738.681C797.766 739.128 798.692 740.135 799.495 740.831C800.373 740.424 800.988 740.137 801.964 740.115C802.04 740.91 802.132 740.831 801.927 741.45C801.216 743.599 798.094 750.088 796.18 751.107C795.369 750.52 794.528 749.942 793.767 749.292C792.831 748.493 792.361 748.152 792.292 746.867C793.694 745.683 795.928 745.58 797.693 745.266L797.754 744.635L796.024 742.672C795.62 740.862 796.092 740.353 796.802 738.681Z" id="svg_34"/><path fill="#A74133" transform="scale(0.7128909826278687) " d="M260.078 227.416C262.675 227.654 265.337 228.333 267.642 229.58C271.028 230.941 273.212 232.98 274.685 236.376C278.627 245.468 275.187 259.64 271.488 268.326C267.575 277.514 261.056 288.099 251.607 292.37C248.27 294.107 244.348 295.312 240.632 294.054C240.391 293.972 240.161 293.86 239.925 293.763C239.3 293.094 238.584 292.487 237.913 291.862C236.923 290.646 236.072 289.454 235.395 288.031C230.962 278.717 232.494 265.935 235.77 256.518C240.228 243.701 247.679 233.342 260.078 227.416Z" id="svg_35"/><path fill="#F48B61" transform="scale(0.7128909826278687) " d="M260.078 227.416C262.675 227.654 265.337 228.333 267.642 229.58C259.587 230.509 253.871 234.344 248.886 240.612C240.766 250.823 236.593 265.977 238.15 278.912C238.672 283.255 240.134 287.299 243.669 290.075C246.099 291.982 248.634 292.138 251.607 292.37C248.27 294.107 244.348 295.312 240.632 294.054C240.391 293.972 240.161 293.86 239.925 293.763C239.3 293.094 238.584 292.487 237.913 291.862C236.923 290.646 236.072 289.454 235.395 288.031C230.962 278.717 232.494 265.935 235.77 256.518C240.228 243.701 247.679 233.342 260.078 227.416Z" id="svg_36"/><path fill="#33090B" transform="scale(0.7128909826278687) " d="M227.984 718.293Q228.591 717.886 229.211 717.498C240.042 710.734 253.45 709.889 265.64 712.818L264.742 712.84C253.952 713.017 243.574 709.953 234.877 718.633L234.448 719.069C228.828 727.788 228.97 734.547 230.424 744.376C232.838 751.458 235.996 757.304 240.318 763.403C244.382 768.336 248.437 772.941 253.342 777.078C265.179 785.917 279.389 792.367 294.479 790.979C300.651 790.411 307.515 788.633 311.49 783.527C316.885 776.599 316.034 766.764 313.665 758.836C313.108 756.973 312.015 754.887 311.844 752.966C311.829 752.804 311.84 752.641 311.838 752.479C316.167 758.883 317.395 769.31 315.899 776.811C315.108 780.781 313.526 784.826 310.818 787.899C307.079 793.562 303.226 799.417 298.919 804.663C295.468 809.056 290.083 810.66 284.716 811.324C280.034 811.904 272.611 812.321 268.145 810.76C256.704 809.814 245.232 803.977 236.425 796.868C227.606 790.013 221.172 781.636 216.268 771.635C211.504 761.802 209.087 750.556 212.018 739.819C214.421 731.017 219.928 722.822 227.984 718.293Z" id="svg_37"/><path fill="#F48B61" transform="scale(0.7128909826278687) " d="M230.066 785.554C231.04 784.105 231.978 782.643 233.114 781.313L237.142 785.41C235.753 786.37 234.372 787.431 232.905 788.265C232.15 787.09 231.155 786.388 230.066 785.554Z" id="svg_38"/><path fill="#F48B61" transform="scale(0.7128909826278687) " d="M227.704 775.091C229.148 776.344 230.358 778.13 231.579 779.613L228.834 783.549C227.313 782.246 226.126 780.624 224.874 779.07L227.704 775.091Z" id="svg_39"/><path fill="#F48B61" transform="scale(0.7128909826278687) " d="M240.366 794.399C238.385 792.923 236.882 791.879 235.729 789.612L235.737 788.629L236.598 788.164L237.411 789.076C239.319 788.369 239.611 788.336 241.596 788.771C242.576 789.871 242.496 790.102 242.65 791.592C242.089 792.763 241.278 793.508 240.366 794.399Z" id="svg_40"/><path fill="#F48B61" transform="scale(0.7128909826278687) " d="M223.368 767.609L225.513 771.504L226.588 773.142C226.169 774.681 226.175 774.882 224.972 775.898C224.159 776.036 223.458 776.418 222.751 775.92C222.003 775.393 221.478 774.748 220.884 774.062C220.613 773.289 220.479 772.598 220.339 771.794C220.881 769.931 222.019 768.951 223.368 767.609Z" id="svg_41"/><path fill="#F48B61" transform="scale(0.7128909826278687) " d="M230.033 719.557L231.629 719.254C229.526 722.405 228.091 725.282 226.997 728.941C224.909 729.112 222.881 729.116 220.978 730.075C222.782 725.51 226.435 722.668 230.033 719.557Z" id="svg_42"/><path fill="#F48B61" transform="scale(0.7128909826278687) " d="M218.198 735.378C218.327 735.258 218.453 735.136 218.585 735.019C220.908 732.943 222.974 730.879 226.278 731.013C227.194 731.764 227.178 731.752 227.397 732.917C227.045 734.087 226.818 734.653 225.918 735.492C225.668 735.499 225.417 735.496 225.167 735.513C222.245 735.712 220.441 739.221 217.771 739.373C217.353 738.002 217.856 736.719 218.198 735.378Z" id="svg_43"/><path fill="#F48B61" transform="scale(0.7128909826278687) " d="M226.2 736.201C227.006 737.329 227.091 737.87 227.098 739.247C225.169 742.429 221.229 745.178 218.381 747.584C218.025 746.233 217.528 744.617 217.777 743.21C218.37 739.863 223.578 737.697 226.2 736.201Z" id="svg_44"/><path fill="#F48B61" transform="scale(0.7128909826278687) " d="M240.366 794.399C243 793.93 245.953 792.687 248.465 794.218C251.024 795.777 252.653 797.368 255.638 798.337C255.165 799.435 254.829 800.342 253.997 801.223C250.266 801.709 246.105 798.224 243.046 796.297L240.366 794.399Z" id="svg_45"/><path fill="#F48B61" transform="scale(0.7128909826278687) " d="M227.591 741.985L228.785 746.812C226.259 749.221 222.885 751.819 221.231 754.894L220.415 754.634C219.331 752.707 219.057 750.349 218.608 748.2C222.437 747.417 224.933 744.621 227.591 741.985Z" id="svg_46"/><path fill="#F48B61" transform="scale(0.7128909826278687) " d="M296.468 793.366C294.546 796.933 289.837 802.665 285.802 803.922C285.304 804.077 285.143 804.051 284.682 804.052L283.967 803.337C284.102 801.758 284.752 800.83 285.581 799.539C286.879 797.637 288.345 795.98 289.889 794.281C292.142 794.117 294.264 793.864 296.468 793.366Z" id="svg_47"/><path fill="#F48B61" transform="scale(0.7128909826278687) " d="M307.688 789.356C307.271 791.627 299.32 799.627 297.322 802.265C295.253 803.157 292.912 803.581 290.728 804.127C293.386 800.467 295.943 796.592 299.079 793.323C302.124 792.241 304.923 791.039 307.688 789.356Z" id="svg_48"/><path fill="#F48B61" transform="scale(0.7128909826278687) " d="M256.054 798.803C259.446 800.088 262.856 801.315 266.105 802.937C269.269 803.16 275.733 805.697 280.02 806.395L279.696 806.725C275.392 807.419 270.22 807.985 266.289 805.721C266.406 804.744 266.436 804.237 266.242 803.249L265.475 803.357C265.291 804.107 265.124 804.542 264.763 805.254C262.309 805.403 260.336 805.171 258.291 803.694C256.349 802.291 256.425 801.034 256.054 798.803Z" id="svg_49"/><path fill="#F48B61" transform="scale(0.7128909826278687) " d="M280.669 792.541C282.983 793.427 285.306 793.795 287.734 794.2L284.657 798.714L281.548 803.496C280.378 803.515 279.171 803.576 278.005 803.484C276.862 803.393 276.319 803.232 275.538 802.365C275.981 798.947 280.004 796.794 280.613 792.969C280.635 792.827 280.65 792.684 280.669 792.541Z" id="svg_50"/><path fill="#F48B61" transform="scale(0.7128909826278687) " d="M221.435 756.355C224.3 754.063 226.875 751.508 229.488 748.938C230.471 751.089 231.384 753.317 232.511 755.395C229.154 757.632 226.187 759.768 223.542 762.862C222.736 761.418 222.064 759.88 221.352 758.385C221.076 757.317 221.163 757.342 221.435 756.355Z" id="svg_51"/><path fill="#F48B61" transform="scale(0.7128909826278687) " d="M229.499 772.507C232.222 769.59 234.959 766.713 237.825 763.936L238.652 764.663C239.677 766.154 240.678 767.023 240.676 768.86L239.039 771.406C237.151 772.623 235.283 776.206 234.002 778.097C232.441 776.285 230.983 774.383 229.499 772.507Z" id="svg_52"/><path fill="#F48B61" transform="scale(0.7128909826278687) " d="M233.254 756.981L236.418 761.912C233.64 764.913 230.833 767.89 228.212 771.03C226.943 769.128 225.882 767.117 224.787 765.112C227.149 761.713 229.982 759.425 233.254 756.981Z" id="svg_53"/><path fill="#F48B61" transform="scale(0.7128909826278687) " d="M248.964 777.445L249.932 777.382L255.167 781.51C254.006 782.979 252.866 784.472 251.672 785.913L247.302 790.384C245.409 789.204 243.674 787.744 241.915 786.374C244.445 783.543 246.684 780.477 248.964 777.445Z" id="svg_54"/><path fill="#F48B61" transform="scale(0.7128909826278687) " d="M241.91 771.087L242.689 770.662C244.286 771.927 247.049 774.087 247.614 776.048L247.422 776.471C244.888 779.063 242.786 782.036 240.615 784.93L235.64 779.896C237.553 776.856 239.788 773.986 241.91 771.087Z" id="svg_55"/><path fill="#F48B61" transform="scale(0.7128909826278687) " d="M256.286 782.355C258.487 783.657 260.671 785.005 262.911 786.238C260.927 789.016 258.782 791.764 257.198 794.793L256.243 795.373C253.583 794.657 251.237 793.007 248.885 791.608C250.38 789.947 251.782 788.198 253.207 786.477L256.286 782.355Z" id="svg_56"/><path fill="#ED4F1F" transform="scale(0.7128909826278687) " d="M218.328 771.92L218.666 771.736L220.529 774.513C222.096 776.812 227.552 784.945 230.066 785.554C231.155 786.388 232.15 787.09 232.905 788.265C233.581 791.209 239.415 795.23 241.933 796.814C253.296 804.457 265.533 808.299 279.169 808.66C285.322 805.385 289.693 807.484 295.821 805.38C295.502 806.384 295.457 806.566 294.432 807.047C287.61 810.245 276.139 809.64 268.738 809.045C258.555 806.923 247.133 803.257 239.092 796.413C233.431 791.743 220.081 778.957 218.328 771.92Z" id="svg_57"/><path fill="#F48B61" transform="scale(0.7128909826278687) " d="M212.585 743.5C214.134 741.171 214.516 737.645 215.715 735.003L216.354 735.052C215.856 739.89 215.992 744.511 215.9 749.348C216.711 752.377 218.472 756.115 218.511 759.185C218.408 759.333 218.303 759.48 218.202 759.63C217.239 761.057 216.885 761.787 216.848 763.507C217.728 762.534 218.417 761.405 219.153 760.32L219.625 760.524C220.515 762.26 221.371 764.025 222.315 765.732C220.833 767.626 219.232 769.34 218.666 771.736L218.328 771.92L217.177 770.495C213.718 761.084 210.275 753.814 212.585 743.5Z" id="svg_58"/><path fill="#F48B61" transform="scale(0.7128909826278687) " d="M264.66 787.268C269.444 789.53 274.355 791.589 279.625 792.325Q275.945 796.992 272.619 801.917C270.475 801.282 268.313 800.685 266.189 799.988C266.648 797.749 272.23 792.244 273.67 788.652C269.787 791.787 267.283 795.365 264.45 799.436C262.235 798.589 259.863 797.872 257.914 796.499L257.946 795.897Q261.394 791.653 264.66 787.268Z" id="svg_59"/><path fill="#33090B" transform="scale(0.7128909826278687) " d="M235.945 622.125C240.416 621.526 245.012 621.328 248.794 624.21C251.11 625.974 252.528 628.585 253.762 631.165C259.878 633.084 264.743 635.345 267.755 641.427C271.09 648.16 270.152 656.478 267.644 663.342C264.957 670.692 259.917 677.616 254.425 683.123C240.703 698.55 214.373 712.946 193.734 714.283C187.703 714.673 181.381 714.04 176.679 709.833C174.788 708.142 173.406 705.773 172.242 703.539C170.027 699.311 167.572 695.192 165.18 691.061L164.703 690.573C163.336 684.519 163.646 679.308 165.847 673.507C173.451 653.467 196.461 636.933 215.32 628.562L215.782 629.803C212.145 631.379 207.953 633.042 204.845 635.542C200.688 637.818 196.476 639.996 192.919 643.18C181.856 650.95 168.292 664.202 165.66 678.111C164.935 681.941 165.504 685.91 167.905 689.082C168.313 689.622 168.814 690.031 169.327 690.465C169.506 690.466 169.685 690.457 169.864 690.468C171.2 690.55 172.443 691.063 173.771 691.245C178.702 691.92 183.89 692.058 188.633 690.374C193.006 689.891 197.59 687.617 201.544 685.771C204.067 685.011 206.388 683.614 208.749 682.455C210.601 680.867 213.12 679.615 215.166 678.233C219.662 675.197 224.064 672.107 228.32 668.738L231.535 666.009L236.142 661.78C238.302 659.504 240.415 657.266 242.306 654.755C246.711 648.201 249.96 641.557 252.449 634.061C252.079 632.647 251.943 631.107 251.728 629.658C249.691 628.143 247.661 629.602 245.684 628.235L245.63 627.606C246.83 627.755 247.799 627.815 249.013 627.684L248.924 627.086C246.731 624.597 242.975 624.303 239.879 623.71C238.356 622.675 237.45 623.753 235.945 622.125Z" id="svg_60"/><path fill="#F48B61" transform="scale(0.7128909826278687) " d="M181.948 696.335L182.359 694.938C183.265 694.449 183.031 694.325 183.893 694.612C185.037 694.993 185.48 695.657 186.251 696.534L186.417 697.683C185.459 698.176 184.581 698.381 183.531 698.604L181.948 696.335Z" id="svg_61"/><path fill="#F48B61" transform="scale(0.7128909826278687) " d="M170.194 693.68C172.641 694.225 180.247 694.643 181.446 696.47C181.55 696.628 181.634 696.799 181.728 696.964L182.149 698.033C182.026 698.113 181.914 698.213 181.78 698.275C179.646 699.265 174.902 697.833 172.865 696.921C171.142 696.149 170.794 695.424 170.194 693.68Z" id="svg_62"/><path fill="#F48B61" transform="scale(0.7128909826278687) " d="M267.833 656.361C268.008 665.693 260.195 675.798 254.224 682.281C241.229 696.859 214.104 711.781 194.414 712.924C192.37 713.042 186.73 713.513 185.221 712.17C195.293 712.036 205.102 710.776 214.498 706.941C233.738 699.09 257.693 680.581 265.888 660.984L267.833 656.361Z" id="svg_63"/><path fill="#F48B61" transform="scale(0.7128909826278687) " d="M252.714 642.513C253.243 640.69 253.595 638.959 254.866 637.499L255.497 637.38C256.506 638.75 256.659 640.401 256.979 642.033C256.617 642.672 256.408 643.016 255.853 643.518C255.899 643.661 255.943 643.805 255.991 643.948C256.223 644.645 256.499 645.319 256.774 646C256.136 646.743 255.557 647.364 254.771 647.952L254.91 650.771C252.665 653.742 250.879 656.921 248.708 659.914C243.897 666.549 236.972 673.424 230.106 677.916C229.165 677.849 228.769 677.713 228 677.166C228.069 677.308 228.144 677.448 228.209 677.593C228.526 678.304 228.42 678.045 228.495 678.955C225.261 682.355 215.988 688.073 211.447 689.435C208.468 691.356 204.901 692.638 201.576 693.857C200.079 694.851 199.443 695.309 197.578 694.92C197.315 694.865 197.057 694.792 196.796 694.728L196.19 695.387C195.547 696.074 194.931 696.496 194.101 696.949C192.59 696.848 192.51 696.883 191.374 695.9C190.754 697.205 190.853 697.176 189.51 697.682C188.051 697.388 187.434 697.08 186.322 696.093L185.932 694.915C186.386 693.721 186.391 693.93 187.405 693.324C189.037 693.389 189.143 693.327 190.39 694.353L191.054 692.826C192.518 691.432 194.633 691.451 196.481 690.818C196.672 690.752 196.86 690.676 197.05 690.604C197.131 690.581 197.215 690.567 197.293 690.535C198.976 689.861 201.665 689.699 203.025 688.972C204.427 688.223 204.289 686.774 206.179 686.303C207.915 686.756 208.929 687.578 210.311 688.695L208.46 686.142C208.653 684.821 209.442 684.547 210.429 683.717C212.91 683.488 213.903 684.985 216.146 684.938C215.302 684.204 214.452 683.507 213.75 682.63C215.635 680.358 219.166 678.567 221.59 676.699C222.497 677.982 223.272 678.962 224.522 679.923L224.91 679.549C224.198 678.471 223.431 677.501 222.613 676.504C223.333 675.495 223.661 675.407 224.755 674.909C225.46 675.249 225.888 675.537 226.478 676.076C226.664 676.248 226.843 676.427 227.026 676.603L227.352 676.293C226.582 675.333 226.038 675.049 226.05 673.769C227.043 672.889 227.564 672.29 228.927 672.1L229.455 672.43C230.214 670.895 230.728 669.782 232.129 668.755C233.729 668.588 234.563 669.818 235.81 670.774L236.133 670.209C235.496 669.419 234.828 668.663 234.153 667.906L234.358 666.889C235.498 665.949 235.942 665.335 237.43 665.147C238.351 665.997 239.027 666.476 240.193 666.94L240.292 666.394C239.402 665.727 238.833 665.101 238.172 664.209L238.558 662.982Q240.474 661.104 242.309 659.148C243.077 659.404 243.786 659.599 244.586 659.722L245.019 659.07L244.039 657.612C245.201 654.251 249.287 650.268 251.08 646.158L252.714 642.513Z" id="svg_64"/><path fill="#F48B61" transform="scale(0.7128909826278687) " d="M254.968 633.995C256.688 633.67 258.802 634.632 260.235 635.552C263.513 637.656 266.559 642.167 267.364 645.966C267.868 648.344 267.329 651.035 266.991 653.406C266.859 654.329 266.89 653.964 266.982 654.997L266.422 655.52C263.856 662.311 259.91 667.883 255.918 673.897L255.192 674.013L254.874 673.674L254.507 674.513L254.386 673.423C254.335 673.583 254.286 673.743 254.232 673.903C250.783 684.205 229.404 696.796 219.664 702.059C209.481 707.276 193.278 713.457 181.765 709.578C177.66 708.195 175.806 706.02 173.595 702.48C172.998 701.237 172.542 700.035 172.105 698.727L172.588 698.52C177.703 700.252 183.829 700.461 189.137 699.53L189.733 699.419C196.196 699.742 207.006 694.112 212.85 691.521L218.734 688.185C220.038 690.033 221.348 691.789 222.828 693.501C222.47 691.501 220.87 689.39 219.851 687.614C231.995 681.518 250.292 665.727 255.893 653.088C257.124 651.142 257.943 648.876 258.807 646.745C261.176 643.02 255.156 637.976 254.968 633.995Z" id="svg_65"/><path fill="#F48B61" transform="scale(0.7128909826278687) " d="M215.32 628.562C220.929 625.552 229.577 622.305 235.945 622.125C237.45 623.753 238.356 622.675 239.879 623.71C242.975 624.303 246.731 624.597 248.924 627.086L249.013 627.684C247.799 627.815 246.83 627.755 245.63 627.606L245.684 628.235C247.661 629.602 249.691 628.143 251.728 629.658C251.943 631.107 252.079 632.647 252.449 634.061C249.96 641.557 246.711 648.201 242.306 654.755C240.415 657.266 238.302 659.504 236.142 661.78L231.535 666.009L228.32 668.738C224.064 672.107 219.662 675.197 215.166 678.233C213.12 679.615 210.601 680.867 208.749 682.455C206.388 683.614 204.067 685.011 201.544 685.771C197.59 687.617 193.006 689.891 188.633 690.374C183.89 692.058 178.702 691.92 173.771 691.245C172.443 691.063 171.2 690.55 169.864 690.468C169.685 690.457 169.506 690.466 169.327 690.465C168.814 690.031 168.313 689.622 167.905 689.082C165.504 685.91 164.935 681.941 165.66 678.111C168.292 664.202 181.856 650.95 192.919 643.18C196.476 639.996 200.688 637.818 204.845 635.542C207.953 633.042 212.145 631.379 215.782 629.803L215.32 628.562Z" id="svg_66"/><path fill="#A74133" transform="scale(0.7128909826278687) " d="M215.32 628.562C220.929 625.552 229.577 622.305 235.945 622.125C237.45 623.753 238.356 622.675 239.879 623.71C238.641 624.095 237.749 624.19 236.455 624.143L228.572 626.002C224.307 626.198 219.713 628.221 215.782 629.803L215.32 628.562Z" id="svg_67"/><path fill="#F48B61" transform="scale(0.7128909826278687) " d="M258.249 126.853C261.362 127.439 265.459 128.911 268.544 128.891C272.493 132.673 275.063 136.563 275.251 142.189C275.676 154.98 264.112 170.065 255.684 178.71C245.537 189.119 228.917 201.208 213.667 201.122C210.003 201.101 205.247 200.116 202.333 197.765C201.09 194.211 198.518 191.829 198.04 187.849C196.554 175.472 203.879 162.084 211.424 152.847C223.467 138.103 239.27 128.83 258.249 126.853Z" id="svg_68"/><path fill="#F48B61" transform="scale(0.7128909826278687) " d="M234.448 719.069L234.877 718.633C243.574 709.953 253.952 713.017 264.742 712.84L265.64 712.818C284.422 717.981 299.676 730.325 309.325 747.239C310.288 748.927 311.173 750.649 311.838 752.479C311.84 752.641 311.829 752.804 311.844 752.966C312.015 754.887 313.108 756.973 313.665 758.836C316.034 766.764 316.885 776.599 311.49 783.527C307.515 788.633 300.651 790.411 294.479 790.979C279.389 792.367 265.179 785.917 253.342 777.078C248.437 772.941 244.382 768.336 240.318 763.403C235.996 757.304 232.838 751.458 230.424 744.376C228.97 734.547 228.828 727.788 234.448 719.069Z" id="svg_69"/><path fill="#33090B" transform="scale(0.7128909826278687) " d="M603.175 219.331C604.767 212.777 610.817 198.731 616.832 194.977C626.155 189.159 644.007 193.051 653.835 195.699C672.121 200.627 698.906 213.19 708.742 230.401C711.113 234.55 712.137 239.013 710.688 243.658C709.775 246.583 707.725 249.199 705.854 251.585C702.348 256.076 699.92 261.782 695.844 265.784C691.705 269.848 683.521 270.633 677.947 270.469C654.735 269.786 628.678 256.429 612.912 239.736C607.574 234.084 602.908 227.441 603.175 219.331Z" id="svg_70"/><path fill="#F48B61" transform="scale(0.7128909826278687) " d="M612.747 201.43C612.776 203.323 612.883 205.194 613.027 207.082C613.947 216.397 620.252 219.468 624.559 226.496L625.815 226.716C626.661 227.758 627.437 228.481 628.487 229.293Q635.198 234.548 642.618 238.743C644.813 239.938 646.981 241.131 649.286 242.108L651.595 243.372L654.21 244.473C655.774 245.172 657.508 246.176 659.167 246.552Q664.099 248.489 669.102 250.233C671.858 251.049 674.607 251.889 677.392 252.601C674.509 257.352 671.158 261.751 668.234 266.453C673.623 262.654 676.133 255.395 678.988 253.442C679.877 252.833 681.112 253.155 682.099 253.275C682.224 256.765 676.106 261.518 675.275 265.293L675.87 265.577C679.326 262.742 681.894 257.595 684.279 253.861C687.548 254.167 690.796 254.548 694.082 254.364C693.778 257.254 687.384 264.367 685.443 267.305C689.661 263.332 692.843 259.043 696.109 254.287C698.905 253.596 701.573 252.761 704.282 251.788C701.004 256.641 697.437 263.408 692.137 266.289C683.481 270.992 668.725 267.126 659.878 264.623C662.635 261.998 668.597 254.495 668.77 250.703C665.374 251.779 661.495 259.583 659.864 262.709C659.568 263.275 659.316 263.84 659.063 264.426L654.458 262.906L649.444 261.231C646.645 260.046 643.99 258.828 641.355 257.309L639.315 256.178L634.777 253.521C637.137 250.359 642.133 245.114 642.973 241.312L641.97 240.543C638.631 244.267 636.183 248.418 633.884 252.837L631.046 251.093C633.073 247.557 637.257 243.174 637.757 239.071L636.437 238.999C634.005 240.349 630.746 247.452 629.459 250.122C626.504 248.285 623.73 246.144 620.927 244.084C623.555 241.276 628.472 235.783 629.32 232.022L628.327 230.908C625.869 234.985 622.878 239.728 619.599 243.159L618.711 242.416C617.761 238.186 624.135 234.158 624.262 229.598C620.92 233.02 619.026 236.883 616.859 241.092C611.205 234.85 605.372 229.006 604.287 220.216C605.787 213.476 609.421 207.401 612.747 201.43Z" id="svg_71"/><path fill="#33090B" transform="scale(0.7128909826278687) " d="M644.796 254.851C647.139 252.319 648.174 248.534 650.786 246.247C651.779 245.377 652.198 245.583 653.46 245.631C652.349 248.255 648.329 256.487 645.947 257.593L645.164 257.37C644.824 256.345 644.674 255.95 644.796 254.851Z" id="svg_72"/><path fill="#33090B" transform="scale(0.7128909826278687) " d="M649.742 260.351L649.602 258.761C651.255 255.498 653.587 249.744 656.702 247.819C657.486 247.335 658.18 247.809 659.005 248.031C658.579 248.931 658.067 249.776 657.949 250.771C655.34 253.675 653.275 258.7 649.742 260.351Z" id="svg_73"/><path fill="#F48B61" transform="scale(0.7128909826278687) " d="M614.039 201.712C616.174 197.938 618.398 195.953 622.614 194.726C640.119 189.634 668.457 201.474 683.585 210.268C693.186 215.849 706.707 225.292 709.723 236.733C710.503 239.691 710.241 242.698 708.563 245.304C706.306 248.811 702.582 250.503 698.605 251.296C697.409 251.534 696.209 251.625 694.994 251.677C691.789 251.712 688.565 251.566 685.359 251.497C673.192 249.408 662.15 245.71 650.945 240.633C642.113 236.13 634.558 231.11 626.951 224.801C619.704 218.133 615.173 211.712 614.039 201.712Z" id="svg_74"/><path fill="#ED4F1F" transform="scale(0.7128909826278687) " d="M671.38 219.692C672.594 219.213 674.309 219.056 675.619 219.192C677.041 219.34 678.73 220.295 679.483 221.515C680.122 222.552 679.838 223.013 679.444 224.018C676.659 226.361 673.854 225.818 670.423 225.745L669.814 225.909C668.135 226.345 665.31 227.11 663.719 226.188L664.81 225.372C665.828 225.389 666.614 225.428 667.572 225.052L667.526 224.172C666.656 223.208 665.974 222.519 665.645 221.218L666.285 220.43C667.977 219.811 669.593 219.78 671.38 219.692Z" id="svg_75"/><path fill="#33090B" transform="scale(0.7128909826278687) " d="M855.702 467.93C855.545 468.126 855.398 468.329 855.23 468.516C851.586 472.574 829.599 480.761 823.544 480.602C814.375 480.362 806.033 473.382 800.136 466.978C785.628 451.223 776.182 428.94 777.185 407.344C777.56 399.288 779.967 390.42 786.201 384.91C792.71 379.158 805.523 372.926 814.153 373.749C824.516 374.737 832.653 382.806 839.067 390.313C849.874 401.958 858.764 420.191 860.366 436.093C861.843 445.751 862.811 458.398 856.677 466.746C856.374 467.158 856.036 467.543 855.702 467.93Z" id="svg_76"/><path fill="#F48B61" transform="scale(0.7128909826278687) " d="M790.393 422.104L791.304 421.769C793.061 421.106 797.149 418.368 798.725 418.741C798.84 420.159 798.254 421.338 797.386 422.433C796.125 424.023 794.346 425.103 792.329 425.333L791.376 424.544L790.393 422.104Z" id="svg_77"/><path fill="#F48B61" transform="scale(0.7128909826278687) " d="M794.463 433.028C794.707 432.983 794.951 432.945 795.194 432.894C797.315 432.446 799.522 430.842 801.362 429.712C802.317 430.589 802.413 430.789 802.798 432.033C802.026 434.443 799.782 435.113 797.643 436.22C796.284 436.924 795.05 437.499 793.568 437.901C793.818 436.26 794.107 434.65 794.463 433.028Z" id="svg_78"/><path fill="#F48B61" transform="scale(0.7128909826278687) " d="M791.409 413.5C792.583 411.982 793.561 410.729 795.441 410.286C796.437 410.861 797.107 411.258 797.483 412.415C797.877 413.625 798.071 414.988 798.309 416.24C794.616 418.738 790.749 420.699 786.773 422.689C787.541 419.177 788.581 418.629 790.712 416.105C791.632 415.015 791.627 414.802 791.409 413.5Z" id="svg_79"/><path fill="#F48B61" transform="scale(0.7128909826278687) " d="M787.277 406.121C790.547 403.999 793.833 402.189 796.006 398.846C796.464 402.246 797.361 405.552 796.309 408.885C795.396 409.883 794.208 410.254 792.987 410.756C791.448 411.687 789.77 412.55 788.401 413.717L786.902 412.964Q786.545 411.281 786.251 409.585C785.068 408.532 784.411 408.553 782.883 408.254C784.424 407.481 785.814 407.141 787.277 406.121Z" id="svg_80"/><path fill="#FCD9D0" transform="scale(0.7128909826278687) " d="M778.847 409.055C778.891 403.965 779.78 398.72 781.806 394.024C785.996 384.312 795.331 379.727 804.657 376.157C799.312 383.746 797.122 389.627 796.006 398.846C793.833 402.189 790.547 403.999 787.277 406.121C785.814 407.141 784.424 407.481 782.883 408.254C781.54 408.584 780.229 408.933 778.847 409.055Z" id="svg_81"/><path fill="url(#gradient_1)" transform="scale(0.7128909826278687) " d="M778.847 409.055C780.229 408.933 781.54 408.584 782.883 408.254C784.411 408.553 785.068 408.532 786.251 409.585Q786.545 411.281 786.902 412.964L788.401 413.717C789.4 413.667 790.422 413.666 791.409 413.5C791.627 414.802 791.632 415.015 790.712 416.105C788.581 418.629 787.541 419.177 786.773 422.689L786.296 423.891L786.8 424.121L790.393 422.104L791.376 424.544C790.096 427.036 787.887 428.284 785.805 430.048L786.605 429.826C789.54 428.996 798.087 424.05 800.116 424.458C800.96 425.445 800.874 426.649 800.962 427.884L800.568 428.431C799.916 428.278 799.277 427.895 798.612 427.97C798.086 428.03 790.242 432.206 789.412 432.722C788.373 433.369 787.77 434.02 787.353 435.151C789.065 435.367 791.384 433.553 792.811 432.651C793.483 432.708 793.847 432.727 794.463 433.028C794.107 434.65 793.818 436.26 793.568 437.901C792.369 438.573 791.303 439.087 790.473 440.227C794.316 440.866 799.458 436.06 803.306 435.779C804.384 435.701 805.064 436.82 805.621 437.523L805.666 438.665C802.565 440.11 793.943 442.631 792.556 445.539C793.211 446.237 793.001 446.358 793.816 446.292C798.3 445.929 802.611 439.978 807.279 441.467C808.179 442.437 808.64 443.255 809.21 444.427C805.084 445.906 798.39 447.394 795.429 450.687L795.734 451.125C800.295 450.678 806.153 448.383 810.23 446.277C811.01 447.29 811.954 448.035 811.967 449.338L811.152 449.657C806.968 451.316 802.975 453.761 799.738 456.915C804.651 455.601 808.909 452.897 813.434 450.647C814.375 451.854 815.456 453.695 816.626 454.626C822.104 461.382 829.017 469.024 837.503 471.92L841.909 473.197C836.577 475.684 830.719 478.476 824.734 478.587C817.043 478.729 809.78 473.923 804.462 468.751C789.146 453.856 779.028 430.374 778.847 409.055Z" id="svg_82"/><path fill="#FCD9D0" transform="scale(0.7128909826278687) " d="M819.21 454.194C808.532 440.363 800.919 423.544 799.287 406.051C798.531 397.945 799.292 387.061 804.88 380.627C806.981 378.206 809.845 376.792 813.05 376.631C821.584 376.202 828.188 383.074 833.914 388.464C834.985 389.913 836.115 391.181 837.371 392.473C843.945 397.692 849.504 408.073 852.264 415.929C855.514 423.382 857.789 430.6 858.868 438.675C859.823 448.556 860.125 458.48 853.955 466.853C850.671 469.525 847.015 472.133 842.523 471.463C841.508 471.311 840.502 471.018 839.516 470.74C830.986 466.92 825.229 461.2 819.21 454.194Z" id="svg_83" class=""/><path fill="#33090B" transform="scale(0.7128909826278687) " d="M829.054 397.674C826.175 395.405 822.382 394.459 819.82 391.908L819.902 391.274C823.995 390.219 828.938 392.881 832.669 394.426L835.057 394.325C836.553 393.858 836.509 393.8 837.371 392.473C843.945 397.692 849.504 408.073 852.264 415.929C851.504 416.615 851.06 416.947 850.635 417.898C851.963 422.533 854.614 430.583 852.109 435.091C851.856 435.546 851.592 435.802 851.25 436.191C851.496 441.082 852.194 449.796 848.949 453.754C847.651 455.338 843.981 457.136 841.915 457.054C840.974 457.017 841.11 456.877 840.54 456.229C841.392 454.187 844.945 453.178 846.477 451.473C849.854 447.717 848.668 438.478 848.345 433.831C846.923 431.187 846.6 427.247 845.675 424.301C842.355 413.735 836.941 405.374 829.054 397.674Z" id="svg_84"/><path fill="#F48B61" transform="scale(0.7128909826278687) " d="M837.371 392.473C843.945 397.692 849.504 408.073 852.264 415.929C851.504 416.615 851.06 416.947 850.635 417.898C848.131 411.618 841.051 397.292 835.057 394.325C836.553 393.858 836.509 393.8 837.371 392.473Z" id="svg_85"/><path fill="#F48B61" transform="scale(0.7128909826278687) " d="M832.669 394.426L835.057 394.325C835.153 394.578 835.244 394.833 835.345 395.083C836.448 397.827 839.086 400.457 840.752 402.935C846.865 412.027 849.594 420.006 851.117 430.699L850.121 431.543L850.095 431.503L850.572 431.729C846.194 417.62 842.136 407.515 831.974 396.416L832.669 394.426Z" id="svg_86" class=""/><path fill="#33090B" transform="scale(0.7128909826278687) " d="M436.347 178.357C449.603 165.27 470.606 151.169 490.017 151.12C498.28 151.099 503.723 154.871 509.359 160.391C512.186 163.276 517.011 167.273 518.546 170.959C521.537 174.279 521.709 180.348 521.439 184.653Q521.375 185.625 521.262 186.593C517.349 206.797 502.818 223.581 486.168 234.928C474.802 242.674 456.464 251.086 442.337 248.09C436.085 246.764 430.83 241.244 426.148 237.153Q424.18 235.34 422.276 233.46C417.71 228.89 413.95 224.298 414.088 217.474C414.376 203.169 426.626 187.842 436.347 178.357Z" id="svg_87"/><path fill="#FCD9D0" transform="scale(0.7128909826278687) " d="M470.336 221.99C473.866 226.85 477.416 230.535 482.106 234.256C472.307 240.166 460.447 246.242 448.711 246.357C439.072 246.451 432.731 240.035 426.246 233.888L425.853 233.421L426.17 233.071L428.715 233.641C442.284 235.795 459.357 229.669 470.336 221.99Z" id="svg_88"/><path fill="#FCD9D0" transform="scale(0.7128909826278687) " d="M506.9 162.042C510.737 164.486 512.989 168.605 516.296 171.589C517.806 175.68 518.799 179.062 518.782 183.452C517.732 191.752 514.492 201.71 508.808 208.053C504.574 214.617 498.749 221.464 492.577 226.272C489.097 222.882 485.68 219.771 481.658 217.03C483.846 221.073 488.373 224.615 492.374 226.763L483.375 233.455C480.646 228.653 475.477 224.483 471.123 221.174C474.257 220.034 477.685 216.644 480.269 214.527C484.23 210.908 488.183 207.336 491.515 203.112C492.533 202.3 493.544 200.919 494.439 199.942C499.841 190.587 504.111 186.456 506.585 175.489C507.59 171.128 507.998 166.963 506.844 162.582L506.9 162.042Z" id="svg_89"/><path fill="#FCD9D0" transform="scale(0.7128909826278687) " d="M437.492 179.61C450.217 167.218 467.011 155.969 484.994 153.508C490.052 152.815 495.81 152.85 499.994 156.18C504.052 159.41 504.744 163.56 505.328 168.381C505.071 170.597 504.869 172.834 504.508 175.035C501.454 187.498 493.934 196.883 485.548 206.253C471.484 219.492 452.986 232.249 432.795 231.57C431.667 231.532 430.558 231.442 429.437 231.304C426.161 230.337 423.03 228.949 420.547 226.542C417.752 223.832 416.461 220.276 416.507 216.417C416.667 202.81 428.43 188.661 437.492 179.61Z" id="svg_90"/><path fill="#33090B" transform="scale(0.7128909826278687) " d="M474.651 161.437C478.397 161.416 483.283 161.461 486.137 164.33C486.272 164.466 486.375 164.63 486.494 164.78L486.394 165.311C485.168 166.068 484.443 165.538 483.073 165.217C479.866 164.465 478.283 163.827 474.89 164.338C471.999 164.922 467.924 165.618 465.673 167.604C466.201 168.713 466.218 168.526 467.238 169.039C467.668 168.618 468.093 168.192 468.51 167.757Q471.12 166.962 473.697 166.067L474.383 167.362L474.83 167.406L475.796 165.51L476.434 165.725L476.864 166.792C476.059 167.956 475.157 167.92 473.878 168.336C469.272 169.833 464.887 172.212 460.859 174.881C452.359 180.515 445.551 188.016 439.515 196.156C438.713 192.891 439.471 192.661 440.148 189.572C440.768 189.755 441.197 189.949 441.761 190.248C444.613 185.814 448.447 182.127 451.897 178.158C452.662 178.167 453.198 178.233 453.969 178.386C454.611 177.666 454.677 177.359 454.928 176.455Q456.643 175.166 458.429 173.977L458.568 173.011L457.983 172.415C454.542 173.616 450.448 178.007 447.84 180.584C439.368 188.956 429.964 197.752 429.621 210.554C429.548 213.266 429.81 215.249 431.219 217.566L431.29 217.993L430.674 218.113C428.992 216.636 428.407 214.268 428.059 212.118C426.829 204.508 431.521 194.35 435.868 188.336C444.717 176.094 459.415 163.975 474.651 161.437Z" id="svg_91"/><path fill="#33090B" transform="scale(0.7128909826278687) " d="M530.389 308.802C537.833 303.259 546.465 298.622 555.164 295.392C567.569 290.785 580.298 289.141 592.597 294.731C601.513 300.602 606.536 308.415 608.738 318.879C609.246 321.293 609.547 323.753 609.854 326.199C629.261 329.735 662.802 340.985 674.168 357.457C678.869 364.27 682.059 375.94 680.317 384.122Q679.514 387.81 678.286 391.378Q677.059 394.947 675.424 398.349C671.377 406.877 650.545 440.496 652.234 447.658L652.986 448.07C656.276 446.114 659.207 442.357 662.273 439.888C671.183 432.712 688.074 422.757 700.04 425.804C702.698 426.481 705.02 427.976 706.392 430.397C708.159 433.515 708.009 437.354 707.028 440.698C704.791 448.322 698.197 454.865 691.26 458.443C680.667 463.908 667.349 464.508 655.651 464.58C662.743 468.087 669.881 470.839 677.742 472.017C694.386 474.511 721.414 469.413 728.378 489.999C730.085 495.044 729.822 500.386 727.398 505.148C724.064 511.698 717.637 516.069 710.748 518.188C703.038 520.56 695.716 520.128 688.096 517.758C692.422 525.803 697.095 533.619 701.021 541.877C719.296 580.322 731.946 624.594 731.893 667.416Q731.804 676.966 730.682 686.45C730.113 690.988 726.623 705.338 727.21 708.465C735.088 698.17 752.153 685.87 764.651 682.022C773.872 679.183 781.673 680.163 790.172 684.69C798.225 688.125 807.816 695.502 811.218 703.841C810.804 705.437 811.376 706.784 810.998 708.186L811.348 709.972C811.022 710.374 810.76 710.734 810.342 711.044C810.347 711.207 810.347 711.37 810.356 711.532C810.406 712.37 810.582 713.159 810.753 713.978L810.082 715.324C808.632 714.726 806.755 713.718 805.198 713.683C804.199 713.661 804.031 714.151 803.323 714.791C801.692 714.803 800.981 714.637 799.53 713.891C796.743 731.22 788.253 744.63 775.861 756.819C764.479 767.038 747.481 777.18 731.517 776.175C728.831 776.005 726.346 775.211 723.806 774.42C722.796 774.105 723.204 774.197 722.058 774.178C719.407 772.391 717.041 770.623 715.148 767.979C710.707 761.774 710.055 753.631 711.168 746.309C711.266 743.886 711.765 741.422 712.114 739.02C707.105 745.783 701.725 752.02 694.934 757.059C656.449 785.615 562.187 806.753 514.295 809.291C494.34 810.348 474.208 808.915 454.457 806.042C407.916 799.274 358.14 781.834 329.171 742.719C297.674 700.19 298.219 641.438 317.948 594.112C326.146 574.447 337.872 556.062 349.792 538.485C359.623 523.989 376.641 503.66 383.443 488.577C385.35 484.349 386.403 480.449 387.103 475.868C385.59 474.07 384.094 472.359 383.687 469.971C383.089 466.457 384.998 463.688 387.029 461.016C372.071 443.1 350.012 427.902 350.187 401.916C350.291 386.354 357.749 373.941 368.643 363.32C395.206 337.422 451.457 320.213 487.706 315.561C499.537 314.042 511.435 313.896 523.343 314.067C525.638 312.202 527.931 310.45 530.389 308.802Z" id="svg_92"/><path fill="#ED4F1F" transform="scale(0.7128909826278687) " d="M426.594 410.494C426.953 410.605 427.569 411.083 427.894 411.293L427.986 412.168C427.003 413.333 425.753 413.6 424.36 414.054C423.955 413.941 423.239 413.446 422.863 413.23L422.845 412.334C424.02 411.115 425.02 410.891 426.594 410.494Z" id="svg_93"/><path fill="#ED4F1F" transform="scale(0.7128909826278687) " d="M578.797 352.865C579.509 353.648 579.641 354.042 579.977 355.018C579.798 356.75 578.734 357.912 577.742 359.271C576.82 358.553 576.921 358.522 576.529 357.51C576.705 355.703 577.83 354.343 578.797 352.865Z" id="svg_94"/><path fill="#ED4F1F" transform="scale(0.7128909826278687) " d="M588.122 340.357C588.564 340.975 588.844 341.657 589.169 342.341C589.039 344.462 587.701 345.945 586.518 347.629C585.873 347.004 585.859 347.19 585.693 346.386C585.241 344.197 587 342.096 588.122 340.357Z" id="svg_95"/><path fill="#ED4F1F" transform="scale(0.7128909826278687) " d="M438.899 408.026C440.4 407.942 441.749 407.902 443.237 408.135C442.537 408.911 442.883 408.596 441.955 409.299C441.723 409.475 441.487 409.645 441.253 409.819L441.35 411.248L441.429 411.715C441.121 411.875 440.814 412.065 440.454 412.096C439.27 412.199 438.809 411.949 437.974 411.245C437.824 409.796 438.214 409.245 438.899 408.026Z" id="svg_96"/><path fill="#F48B61" transform="scale(0.7128909826278687) " d="M646.258 469.423C647.16 470.433 647.484 470.534 647.552 471.864C646.187 473.271 643.491 473.527 641.618 473.964C640.863 473.975 641.28 474.035 640.391 473.659C641.785 471.84 644.323 470.63 646.258 469.423Z" id="svg_97"/><path fill="#FCD9D0" transform="scale(0.7128909826278687) " d="M389.648 465.264C391.787 467.086 393.632 470.333 394.356 473.017C392.639 472.193 391 471.505 389.624 470.153C388.774 468.474 389.291 467.009 389.648 465.264Z" id="svg_98"/><path fill="#FCD9D0" transform="scale(0.7128909826278687) " d="M660.775 459.733C659.44 459.715 657.992 459.767 656.673 459.579C655.42 459.401 654.977 458.722 654.281 457.77L654.556 456.613C655.09 456.289 656.127 455.967 656.782 455.995C658.712 456.076 659.42 457.273 660.717 458.53L660.775 459.733Z" id="svg_99"/><path fill="#ED4F1F" transform="scale(0.7128909826278687) " d="M450.426 410.783C449.975 411.257 449.268 411.579 448.707 411.918C447.479 411.831 447.411 411.773 446.452 410.992C446.001 409.702 445.905 409.616 446.308 408.329C448.194 407.12 450.354 407.372 452.538 407.629L452.401 408.061C451.743 408.955 451.012 409.842 450.426 410.783Z" id="svg_100"/><path fill="#ED4F1F" transform="scale(0.7128909826278687) " d="M526.972 390.02C527.589 391.457 527.94 391.717 527.478 393.257C525.77 395.095 524.324 395.445 521.88 395.626L519.959 394.701C522.081 392.964 524.665 391.515 526.972 390.02Z" id="svg_101"/><path fill="#ED4F1F" transform="scale(0.7128909826278687) " d="M623.516 373.51L626.483 375.278C627.131 376.755 626.355 376.42 626.251 377.835C627.352 377.173 628.189 376.654 629.456 376.365C630.061 377.216 629.879 377.371 629.844 378.374C629.147 378.917 628.639 379.252 627.793 379.515C625.739 378.664 623.721 377.965 622.018 376.494L622.083 375.713C622.877 374.909 622.618 375.291 623.15 374.257C623.277 374.01 623.394 373.759 623.516 373.51Z" id="svg_102"/><path fill="#F48B61" transform="scale(0.7128909826278687) " d="M508.283 377.14L511.393 383.585C509.614 385.03 507.114 387.685 504.946 388.318C506.237 384.621 507.323 380.937 508.283 377.14Z" id="svg_103"/><path fill="#ED4F1F" transform="scale(0.7128909826278687) " d="M638.528 384.015C640.251 385.695 642.314 387.07 642.357 389.636L640.395 391.584C640.219 391.525 640.027 391.504 639.869 391.408C638.259 390.429 636.632 388.576 636.55 386.654C636.507 385.649 637.84 384.727 638.528 384.015Z" id="svg_104"/><path fill="#ED4F1F" transform="scale(0.7128909826278687) " d="M546.357 382.5C546.073 384.606 546.147 386.632 544.147 387.892C542.825 388.726 541.788 388.722 540.309 388.666L539.014 387.671C539.156 386.738 539.337 385.98 539.698 385.107C540.575 384.359 541.207 384.076 542.3 383.801C543.698 383.449 545.007 383.004 546.357 382.5Z" id="svg_105"/><path fill="#ED4F1F" transform="scale(0.7128909826278687) " d="M528.435 389.28C531.386 388.394 534.302 385.284 537.473 386.203L538.151 387.999C537.369 389.772 535.615 390.83 533.707 391.4C532.142 391.867 531.062 391.942 529.604 391.296L528.435 389.28Z" id="svg_106"/><path fill="#F48B61" transform="scale(0.7128909826278687) " d="M556.145 380.98L556.737 381.711C555.772 383.684 554.543 385.234 553.181 386.935C551.594 387.09 549.193 387.743 547.967 386.772C548.058 385.525 548.324 384.629 548.738 383.466C550.648 381.352 553.498 381.362 556.145 380.98Z" id="svg_107"/><path fill="#F48B61" transform="scale(0.7128909826278687) " d="M596.722 392.942C598.979 394.396 601.015 395.549 602.212 398.03C602.103 399.032 601.879 399.48 601.3 400.301C600.847 400.822 600.381 401.336 599.921 401.851C598.463 401.676 596.458 400.727 595.389 399.722C594.559 398.942 594.569 398.741 594.576 397.685C595.516 396.434 595.89 395.59 596.227 394.057C596.261 393.903 596.291 393.748 596.323 393.593L596.722 392.942Z" id="svg_108"/><path fill="#ED4F1F" transform="scale(0.7128909826278687) " d="M492.552 398.739L492.822 398.999L492.451 400.505C493.156 401.139 493.801 401.46 494.665 401.842C494.188 404.839 491.557 409.226 489.215 411.173C488.824 411.498 488.697 411.513 488.28 411.667L486.503 411.072C486.992 408.046 489.355 404.353 490.714 401.544L492.552 398.739Z" id="svg_109"/><path fill="#F48B61" transform="scale(0.7128909826278687) " d="M556.21 386.94C557.315 385.329 558.481 383.242 559.889 381.908C561.177 380.688 562.873 381.074 564.482 381.118L568.762 381.581C568.075 382.108 567.467 382.805 566.856 383.425C566.448 383.84 566.05 384.262 565.614 384.649C562.65 387.278 559.906 387.147 556.21 386.94Z" id="svg_110"/><path fill="#F48B61" transform="scale(0.7128909826278687) " d="M644.47 453.884L645.972 451.446L645.712 450.911C644.882 451.281 644.67 451.317 643.702 451.337C644.915 450.086 646.127 448.655 647.855 448.182C647.886 448.515 647.91 448.849 647.946 449.181C648.429 453.644 652.334 458.907 651.39 463.355L650.607 463.587C649.012 461.098 646.186 457.834 645.539 455.02L646.872 454.013L646.695 453.558L644.47 453.884Z" id="svg_111"/><path fill="#ED4F1F" transform="scale(0.7128909826278687) " d="M491.67 426.7C497.7 430.877 502.816 436.956 506.8 443.031C505.428 443.093 504.21 443.063 502.846 442.904C500.446 439.49 498.048 435.997 495.46 432.723C494.501 431.511 492.303 429.914 491.804 428.505C491.602 427.936 491.714 427.302 491.67 426.7Z" id="svg_112"/><path fill="#ED4F1F" transform="scale(0.7128909826278687) " d="M585.252 392.813C586.317 391.802 587.085 391.02 588.537 390.588L589.321 389.457C588.384 388.917 587.905 388.838 586.859 388.678L586.841 387.441C588.08 387.013 588.162 387.252 589.284 387.816C591.925 389.143 594.618 390.866 596.722 392.942L596.323 393.593C595.539 393.528 595.042 393.648 594.283 393.821C593.142 394.944 592.305 395.598 590.816 396.204C588.689 396.098 586.783 394.194 585.252 392.813Z" id="svg_113"/><path fill="#ED4F1F" transform="scale(0.7128909826278687) " d="M635.599 462.9C637.828 460.817 638.987 459.983 642.082 460.015C642.768 460.022 643.198 460.154 643.79 460.489C644.143 461.606 644.036 461.772 643.702 462.914C642.701 463.926 641.61 464.658 640.434 465.444C640.405 465.482 640.379 465.523 640.347 465.559C638.959 467.17 636.255 468.981 634.037 468.854C632.702 468.778 632.378 468.498 631.649 467.528C632.078 465.168 633.76 464.27 635.599 462.9Z" id="svg_114"/><path fill="#A74133" transform="scale(0.7128909826278687) " d="M498 356.053C499.376 357.028 500.355 357.785 500.715 359.56C501.032 361.124 501.065 362.795 501.148 364.386C499.453 377.083 495.664 388.411 489.168 399.467C488.032 400.938 487.198 402.502 485.579 403.485C486.969 399.039 491.144 393.72 493.163 388.974C495.082 384.647 496.74 380.09 497.908 375.502C498.762 372.15 499.979 367.004 498.135 363.911C497.832 361.403 498.022 358.594 498 356.053Z" id="svg_115"/><path fill="#FCD9D0" transform="scale(0.7128909826278687) " d="M404.487 406.725L405.726 407.462C404.933 410.043 404.907 412.496 404.865 415.166C401.699 417.853 399.085 420.722 396.526 423.99C395.819 424.893 394.237 427.657 393.465 428.144C393.229 428.294 392.945 428.382 392.666 428.4C392.394 428.418 392.13 428.3 391.862 428.25C392.951 422.359 400.402 411.478 404.487 406.725Z" id="svg_116"/><path fill="#F48B61" transform="scale(0.7128909826278687) " d="M602.497 401.92L603.235 399.765C604.692 399.856 605.611 400.782 606.574 401.829C610.602 406.212 616.888 415.289 617.716 421.267C617.228 422.228 617.518 421.794 616.863 422.579C616.056 422.453 615.937 422.518 615.267 421.986C611.76 414.19 607.645 409.588 601.755 403.446L602.497 401.92Z" id="svg_117"/><path fill="#F48B61" transform="scale(0.7128909826278687) " d="M556.432 434.201C560.902 433.593 565.201 434.556 569.52 435.585C563.01 437.435 556.312 438.408 549.62 439.319C545.866 439.927 542.072 440.34 538.298 440.812C544.152 436.65 549.313 434.937 556.432 434.201Z" id="svg_118"/><path fill="#F48B61" transform="scale(0.7128909826278687) " d="M568.934 381.79C574.858 382.327 580.202 384.342 585.742 386.361C585.05 388.357 584.28 390.284 584.075 392.401C574.766 391.428 579.863 387.202 577.142 383.99L576.393 384.443C575.575 385.997 575.611 387.822 575.485 389.543C572.795 388.847 570.137 388.325 567.396 387.878Q568.683 386.374 569.934 384.839C570.128 383.188 569.9 383.179 568.934 381.79Z" id="svg_119"/><path fill="#ED4F1F" transform="scale(0.7128909826278687) " d="M448.473 350.798C457.798 345.093 470.673 339.456 481.836 342.335C483.68 342.811 485.315 343.579 486.986 344.474C489.095 348.303 490.782 353.128 490.035 357.571C489.187 356.983 489.313 356.256 489.093 355.281C489.133 353.414 488.653 351.29 487.715 349.663C486.294 347.199 484.067 345.742 481.348 345.037C470.366 342.191 460.135 347.361 451.036 352.871C450.79 352.795 450.535 352.744 450.297 352.644C449.075 352.128 448.875 351.974 448.473 350.798Z" id="svg_120"/><path fill="#F48B61" transform="scale(0.7128909826278687) " d="M605.64 315.895C606.081 316.302 606.46 316.635 606.719 317.191C609.598 323.37 608.183 333.214 606.409 339.567C603.285 350.761 596.584 363.808 586.222 369.648L585.436 369.767C585.619 368.591 587.214 367.216 588.011 366.261C600.394 351.438 607.313 335.332 605.64 315.895Z" id="svg_121"/><path fill="#F48B61" transform="scale(0.7128909826278687) " d="M492.552 398.739C493.97 393.127 498.058 387.598 499.91 381.918C502.021 375.446 501.778 369.267 503.303 363.463C503.37 363.206 503.445 362.952 503.517 362.697C507.97 373.871 505.482 381.729 501.283 392.365C500.56 393.396 499.812 394.358 499.303 395.515C498.357 396.837 497.465 398.421 495.77 398.798C494.847 399.004 493.768 398.975 492.822 398.999L492.552 398.739Z" id="svg_122"/><path fill="#F48B61" transform="scale(0.7128909826278687) " d="M454.315 407.982C459.608 405.678 473.633 409.096 479.103 411.223C492.262 416.342 503.088 426.028 508.872 439.043C509.084 439.522 509.105 439.655 509.222 440.103C507.527 438.704 506.243 436.284 504.711 434.61C498.922 428.29 491.849 421.951 484.096 418.195L481.703 416.948L480.923 416.489C479.492 415.489 477.746 414.812 476.169 414.057L470.257 411.884L467.988 411.003C466.341 410.703 464.721 410.401 463.1 409.981C462.04 409.707 461.383 409.712 460.298 409.978C459.194 410.848 458.938 411.447 458.423 412.705C457.496 412.015 456.995 411.717 455.841 411.574L454.315 407.982Z" id="svg_123"/><path fill="#A74133" transform="scale(0.7128909826278687) " d="M435.387 361.488C438.372 357.513 444.087 353.177 448.473 350.798C448.875 351.974 449.075 352.128 450.297 352.644C450.535 352.744 450.79 352.795 451.036 352.871C445.33 357.086 439.844 361.423 434.71 366.34C431.603 369.316 428.773 372.611 425.64 375.541C422.248 380.175 418.9 384.82 415.96 389.759C413.805 393.379 407.986 405.104 405.726 407.462L404.487 406.725C405.387 405.103 404.972 403.807 405.188 401.998L405.309 401.034C405.875 399.376 406.882 397.859 407.763 396.348C409.336 391.737 412.825 386.614 416.849 383.875C421.344 375.69 428.372 367.662 435.387 361.488Z" id="svg_124"/><path fill="#F48B61" transform="scale(0.7128909826278687) " d="M603.383 376.21C607.318 376.015 610.72 376.539 614.415 377.888C628.794 383.135 639.008 395.318 645.267 408.824L641.485 410.785L640.768 410.331Q639.765 407.496 638.399 404.816C633.505 395.004 624.586 386.241 614.303 382.246C608.44 379.968 602.003 378.646 595.998 376.644L603.383 376.21Z" id="svg_125"/><path fill="#ED4F1F" transform="scale(0.7128909826278687) " d="M790.172 684.69C798.225 688.125 807.816 695.502 811.218 703.841C810.804 705.437 811.376 706.784 810.998 708.186L811.348 709.972C811.022 710.374 810.76 710.734 810.342 711.044C810.347 711.207 810.347 711.37 810.356 711.532C810.406 712.37 810.582 713.159 810.753 713.978L810.082 715.324C808.632 714.726 806.755 713.718 805.198 713.683C804.199 713.661 804.031 714.151 803.323 714.791C801.692 714.803 800.981 714.637 799.53 713.891C799.508 710.025 799.317 706.317 798.807 702.484C797.341 695.898 794.83 690 789.475 685.608L790.172 684.69Z" id="svg_126"/><path fill="#33090B" transform="scale(0.7128909826278687) " d="M810.342 711.044C807.639 709.784 805.478 709.731 803.756 706.943L803.981 706.216C806.881 705.818 808.504 706.865 810.998 708.186L811.348 709.972C811.022 710.374 810.76 710.734 810.342 711.044Z" id="svg_127"/><path fill="#F48B61" transform="scale(0.7128909826278687) " d="M490.865 345.852C494.605 349.043 496.775 351.178 498 356.053C498.022 358.594 497.832 361.403 498.135 363.911C497.076 372.052 494.815 379.281 491.674 386.845C488.89 393.017 484.11 403.178 478.847 407.598C476.614 406.64 474.151 406.08 471.816 405.41Q474.158 402.958 476.276 400.31Q478.394 397.662 480.271 394.838Q482.149 392.014 483.771 389.037Q485.394 386.059 486.749 382.951C491.778 371.698 495.461 357.765 490.865 345.852Z" id="svg_128"/><path fill="#F48B61" transform="scale(0.7128909826278687) " d="M593.686 297.148C598.013 299.328 600.761 303.641 602.29 308.129C606.402 320.19 603.335 335.474 597.671 346.519C593.152 355.331 586.621 363.76 579.571 370.719C577.295 370.323 573.819 370.202 572.025 368.811C572.357 368.02 572.535 367.706 573.055 367.076C573.227 367.001 573.407 366.94 573.572 366.85C581.477 362.562 595.12 339.929 598.014 331.495C601.239 322.094 601.104 311.574 596.721 302.489C596.031 300.567 594.781 298.862 593.686 297.148Z" id="svg_129"/><path fill="#F48B61" transform="scale(0.7128909826278687) " d="M437.908 415.208C442.848 415.057 447.966 415.304 452.858 415.996C472.162 418.727 487.822 428.064 499.468 443.509L491.624 443.54C485.753 435.561 477.898 430.043 469.134 425.655C466.454 424.436 463.675 423.325 460.857 422.473C446.313 418.076 428.214 418.646 414.036 424.228C410.079 425.785 406.653 428.522 402.788 430.147C402.156 430.413 401.538 429.808 400.996 429.512C401.128 429.013 401.428 428.642 401.771 428.263C409.361 419.873 427.108 415.882 437.908 415.208Z" id="svg_130"/><path fill="#F48B61" transform="scale(0.7128909826278687) " d="M523.839 401.211C540.154 392.267 557.305 388.722 575.463 394.104C591.815 398.951 602.342 409.505 611.462 423.451C610.396 424.641 608.925 424.923 607.448 425.456C603.926 419.948 599.728 415.4 595.099 410.818C585.66 402.098 574.677 398.369 562.107 396.694C546.366 395.547 533.408 398.37 521.189 408.898C514.126 414.983 510.202 421.904 507.649 430.772L504.493 425.475C507.55 414.67 515.34 407.965 523.839 401.211Z" id="svg_131"/><path fill="#FFFFFA" transform="scale(0.7128909826278687) " d="M658.544 449.681C667.224 441.537 682.908 429.96 695.455 430.282C697.642 430.339 699.907 430.925 701.385 432.638C702.654 434.108 703.05 436.136 702.792 438.024C702.048 443.463 697.339 448.447 693.043 451.517C683.945 458.018 671.636 459.392 660.775 459.733L660.717 458.53C660.773 454.767 660.778 452.88 658.544 449.681Z" id="svg_132" class=""/><path fill="#FFFFFA" transform="translate(0,0) scale(0.7128909826278687) " d="M658.544 449.681C667.224 441.537 682.908 429.96 695.455 430.282C697.642 430.339 699.907 430.925 701.385 432.638C702.654 434.108 703.05 436.136 702.792 438.024C702.048 443.463 697.339 448.447 693.043 451.517C683.945 458.018 671.636 459.392 660.775 459.733L660.717 458.53C660.773 454.767 660.778 452.88 658.544 449.681Z" class="" id="svg_184"/><path fill="#F48B61" transform="scale(0.7128909826278687) " d="M435.316 423.703C437.775 423.357 440.509 423.429 442.992 423.476C460.48 423.809 474.478 431.038 486.536 443.401Q473.793 442.652 461.119 441.13Q433.939 438.414 407.087 433.406C415.454 426.66 424.824 424.742 435.316 423.703Z" id="svg_133"/><path fill="#F48B61" transform="scale(0.7128909826278687) " d="M511.287 387.102L512.095 386.662C517.074 383.916 521.553 380.465 526.715 377.967C544.091 369.558 564.263 369.654 582.558 374.748C590.259 376.892 597.269 380.152 604.281 383.94C619.191 391.997 627.46 398.869 636.319 413.601Q628.793 417.358 621.089 420.734C614.545 404.393 604.359 390.537 587.756 383.476Q586.17 382.794 584.552 382.192Q582.933 381.589 581.288 381.067Q579.642 380.545 577.973 380.104Q576.303 379.664 574.614 379.306Q572.925 378.948 571.22 378.674Q569.516 378.399 567.799 378.21Q566.083 378.02 564.36 377.914Q562.636 377.809 560.91 377.789Q559.184 377.769 557.458 377.833Q555.733 377.898 554.013 378.048Q552.293 378.197 550.582 378.431Q548.871 378.666 547.174 378.984Q545.477 379.302 543.798 379.703Q542.118 380.104 540.461 380.588Q538.803 381.071 537.172 381.635Q535.54 382.2 533.938 382.844C521.09 388.066 509.127 396.922 503.631 410.054C502.152 413.587 501.559 417.169 501.219 420.964C500.118 421.15 499.394 420.339 498.476 419.748C496.208 417.389 493.56 415.569 490.916 413.662C497.248 402.541 501.623 395.622 511.287 387.102Z" id="svg_134"/><path fill="#F48B61" transform="scale(0.7128909826278687) " d="M556.382 402.695Q562.345 402.693 568.17 403.965C582.561 407.135 593.489 414.859 601.438 427.139C594.944 429.14 588.469 430.809 581.746 431.84C580.078 430.597 578.394 429.346 576.651 428.208C568.013 422.564 558.12 422.616 548.37 424.695C547.974 424.791 547.577 424.884 547.186 425C538.159 427.681 532.46 433.302 528.054 441.462Q520.8 442.247 513.517 442.682C513.129 433.265 514.807 425.787 521.095 418.536C530.349 407.866 542.653 403.577 556.382 402.695Z" id="svg_135"/><path fill="#FFFFFA" transform="scale(0.7128909826278687) " d="M654.83 469.712C661.585 472.58 668.58 475.728 675.869 476.929C689.191 479.123 709.6 474.856 719.8 485.384C722.8 488.481 724.318 492.667 724.238 496.961C724.138 502.346 721.072 505.929 717.376 509.424C714.463 511.385 711.524 512.987 708.157 514.014C701.033 516.188 693.686 515.333 687.204 511.651Q685.618 510.747 684.171 509.633Q682.724 508.52 681.444 507.218C676.567 502.216 655.208 476.69 653.702 471.518L654.83 469.712Z" id="svg_136" class="" opacity="1"/><path fill="#FCD9D0" transform="scale(0.7128909826278687) " d="M624.881 478.593L625.137 478.715L624.27 479.49L624.455 480.129L623.71 480.104C593.061 504.491 547.241 515.086 508.706 515.822Q499.128 516.005 489.559 515.551Q479.99 515.096 470.473 514.006Q460.955 512.916 451.531 511.196Q442.108 509.475 432.819 507.131C425.141 505.228 417.36 503.311 410.226 499.809C405.175 497.329 401.127 494.302 397.091 490.411C396.688 489.891 396.419 489.311 396.112 488.731C396.071 486.356 397.053 484.192 397.845 481.985C403.574 486.367 410.923 489.363 417.693 491.697C432.95 496.957 449.431 500.059 465.314 502.73C525.795 512.9 569.907 505.602 624.881 478.593Z" id="svg_137"/><path fill="#FCD9D0" transform="scale(0.7128909826278687) " d="M639.448 478.701C642.468 478.126 646.259 477.847 648.785 475.981C649.055 475.781 649.317 475.571 649.583 475.366C654.626 480.96 658.505 488.67 662.953 494.857C672.573 508.234 683.573 519.759 691.202 534.572C676.054 540.718 642.768 544.077 626.234 544.561C627.166 533.903 632.057 523.594 635.305 513.484C639.009 501.958 639.714 490.703 639.448 478.701Z" id="svg_138" class=""/><path fill="#F48B61" transform="scale(0.7128909826278687) " d="M407.463 413.608C410.949 397.626 432.13 372.55 444.491 362.693C452.829 356.044 467.515 346.811 478.746 348.414C481.319 348.781 483.585 350.009 485.091 352.168C488.307 356.78 487.585 362.962 486.719 368.178C482.536 381.438 474.442 394.427 464.323 403.997C449.927 403.752 436.508 403.991 422.531 408.048C418.041 409.351 411.7 413.178 407.463 413.608Z" id="svg_139"/><path fill="#33090B" transform="scale(0.7128909826278687) " d="M472.211 354.276C474.281 353.996 478.973 353.262 480.706 354.518C480.326 355.497 479.937 355.93 479.257 356.709C477.828 357.349 476.714 357.193 475.205 357.065L474.569 357.006C469.593 359.452 464.275 361.477 459.429 364.112C448.885 369.847 440.61 379.238 433.027 388.339C432.069 389.262 430.782 390.316 429.513 390.751C428.474 391.108 428.409 391.183 427.391 390.692C427.267 390.278 427.204 390.167 427.23 389.674C427.49 384.836 432.81 378.909 435.98 375.474C444.82 365.895 458.524 354.768 472.211 354.276Z" id="svg_140"/><path fill="#FCD9D0" transform="scale(0.7128909826278687) " d="M609.723 330.354C624.131 334.501 638.741 339.042 652.089 345.998C663.079 351.724 672.775 358.672 676.675 370.903C674.167 383.371 666.888 391.919 657.545 400.156L653.707 403.094C650.824 394.445 646.448 386.817 639.786 380.521C626.224 367.703 610.736 366.549 592.99 367.069C601.827 355.725 607.13 344.463 609.723 330.354Z" id="svg_141"/><path fill="#33090B" transform="scale(0.7128909826278687) " d="M652.611 354.338C653.434 354.753 653.744 355.071 654.255 355.836C654.053 358.842 652.954 361.67 651.503 364.294C650.411 363.697 650.322 363.601 649.732 362.504C649.649 359.367 651.141 356.991 652.611 354.338Z" id="svg_142"/><path fill="#33090B" transform="scale(0.7128909826278687) " d="M615.946 339.39L617.748 340.277C619.335 343.035 617.311 349.277 616.661 352.315C616.077 352.195 615.468 351.959 614.898 351.78C613.366 348.941 615.328 342.561 615.946 339.39Z" id="svg_143"/><path fill="#33090B" transform="scale(0.7128909826278687) " d="M669.433 364.854L670.163 365.174L670.414 366.211C668.539 369.788 664.76 374.755 661.641 377.33C660.945 376.711 660.659 376.393 660.396 375.494C661.603 371.183 665.945 367.465 669.433 364.854Z" id="svg_144"/><path fill="#33090B" transform="scale(0.7128909826278687) " d="M634.207 345.3C634.939 345.629 635.575 345.995 636.26 346.408C637.415 349.556 634.338 356.523 633.429 359.901C632.758 359.612 632.254 359.243 631.659 358.825C630.353 355.754 633.323 348.503 634.207 345.3Z" id="svg_145"/><path fill="#FCD9D0" transform="scale(0.7128909826278687) " d="M372.637 420.031C369.34 417.799 365.909 415.388 363.14 412.514C359.442 408.675 357.641 403.608 357.833 398.306C358.297 385.449 365.974 374.341 375.27 366.064C384.961 357.436 396.466 351.037 408.23 345.69C433.975 333.991 488.155 318.398 516.493 319.915L516.467 320.554Q511.503 325.913 506.669 331.388C505.629 329.858 505.393 329.123 503.653 328.403C502.926 328.76 502.717 328.669 502.402 329.495C501.819 331.022 502.178 333.257 502.81 334.755C502.867 334.888 502.955 335.005 503.027 335.131L503.844 335.454L504.631 336.104C505.451 335.916 505.557 335.799 506.395 336.059C505.254 337.906 504.18 340.028 502.767 341.666C501.952 341.129 500.517 341.35 499.532 341.331C498.6 343.104 497.65 344.864 496.828 346.693C494.192 344.854 491.647 342.988 488.69 341.692C488.25 338.009 488.107 333.048 485.201 330.365C484.221 333.772 485.145 337.031 485.933 340.373C473.001 336.821 460.646 340.75 449.282 347.294C432.581 356.912 419.638 373.003 409.991 389.374C407.937 392.859 405.644 396.339 404.067 400.067C399.935 409.504 392.608 417.193 389.596 427.171L388.246 427.431L386.252 426.087C385.356 422.936 388.816 418.377 390.2 415.457C392.848 411.827 395.159 408.281 396.985 404.164C399.865 394.955 398.577 381.908 394.965 373.054C394.314 371.457 393.469 369.506 391.84 368.816C390.508 372.028 394.256 379.84 394.809 383.425C395.785 389.752 396.178 395.965 394.815 402.247L394.654 402.965C393.444 406.848 390.986 409.43 389.176 412.954C386.227 416.431 384.67 420.967 383.022 425.151C379.514 423.519 376.04 421.873 372.637 420.031Z" id="svg_146"/><path fill="#A74133" transform="scale(0.7128909826278687) " d="M503.844 335.454L504.631 336.104C505.451 335.916 505.557 335.799 506.395 336.059C505.254 337.906 504.18 340.028 502.767 341.666C501.952 341.129 500.517 341.35 499.532 341.331C500.84 339.31 502.158 337.391 503.027 335.131L503.844 335.454Z" id="svg_147"/><path fill="#33090B" transform="scale(0.7128909826278687) " d="M381.566 384.247L382.613 384.826C384.944 388.398 384.566 396.85 383.749 400.911L382.24 400.729C382.148 400.58 382.038 400.441 381.963 400.283C380.524 397.26 380.299 387.311 381.566 384.247Z" id="svg_148"/><path fill="#33090B" transform="scale(0.7128909826278687) " d="M423.437 345.193C424.861 345.609 425.222 345.564 425.915 346.99C427.408 350.057 427.629 355.749 426.304 358.866C426.031 358.729 425.749 358.61 425.486 358.455C424.147 357.67 423.717 355.308 423.344 353.868C422.609 351.033 421.896 347.819 423.437 345.193Z" id="svg_149"/><path fill="#33090B" transform="scale(0.7128909826278687) " d="M377.591 398.269C377.753 398.407 377.935 398.525 378.078 398.683C378.815 399.495 378.632 401.312 378.648 402.334C378.701 405.682 379.167 412.822 376.768 415.294C375.073 413.311 375.294 409.754 375.297 407.26C375.3 403.968 375.179 400.694 377.591 398.269Z" id="svg_150"/><path fill="#33090B" transform="scale(0.7128909826278687) " d="M404.301 360.804C404.792 360.891 405.161 360.931 405.635 361.145C407.699 362.079 409.304 365.433 409.916 367.498C410.744 370.29 411.096 372.705 409.77 375.344C406.661 372.886 405.674 366.454 403.995 362.719C403.668 361.992 404.055 361.537 404.301 360.804Z" id="svg_151"/><path fill="#F48B61" transform="scale(0.7128909826278687) " d="M532.093 309.182C536.756 306.203 541.237 303.314 546.242 300.907C556.675 295.888 573.216 289.829 584.755 294.174C589.662 296.022 592.624 299.272 594.853 303.9C596.927 319.603 588.744 334.946 579.457 347.022C573.432 354.856 566.493 361.386 558.701 367.432C550.233 367.697 540.725 368.617 532.741 371.634C526.307 373.19 520.474 376.591 514.931 380.117C512.871 378.267 511.372 376.805 508.504 376.522C508.283 370.723 507.222 365.821 504.66 360.591L498.806 349.876C499.992 347.094 501.43 344.38 502.767 341.666C504.18 340.028 505.254 337.906 506.395 336.059L517.703 322.01C522.281 317.35 526.856 313.104 532.093 309.182Z" id="svg_152"/><path fill="#33090B" transform="scale(0.7128909826278687) " d="M549.484 306.607C551.886 306.283 556.159 305.94 558.208 307.384C558.8 307.802 558.717 308.199 558.862 308.854L558.353 309.384L555.512 308.787L554.946 309.256C555.266 309.83 555.577 310.41 555.88 310.992L555.206 311.247C554.477 310.238 553.958 309.26 552.699 308.888L552.309 309.465C552.62 310.887 553.143 312.306 552.599 313.718L551.843 313.787C551.137 312.492 551.265 311.186 551.201 309.736L550.51 309.415L549.898 310.185C549.119 310.2 548.585 310.257 547.81 310.435C548.605 311.591 549.515 312.611 550.444 313.657L549.914 313.865C549.537 314.367 549.785 314.22 549.177 314.318C548.496 313.006 547.967 311.74 546.766 310.817C545.64 311.106 545.71 310.849 545.057 311.926L546.239 315.934C543.815 317.942 540.843 319.188 538.101 320.708C531.931 324.13 527.343 328.533 522.895 333.951C520.197 337.185 517.763 340.791 516.017 344.628C514.913 343.801 514.124 342.875 512.725 342.767C512.023 344.279 512.47 345.575 512.661 347.211L512.335 347.602C511.2 346.779 510.428 346.124 510.039 344.678C509.032 340.927 512.451 335.803 514.436 332.754C521.984 321.164 535.714 309.531 549.484 306.607Z" id="svg_153"/><path fill="#F48B61" transform="scale(0.7128909826278687) " d="M726.731 711.133C737.979 698.872 755.163 684.765 772.274 682.575C778.842 681.735 783.335 683.158 788.423 687.157C793.209 692.561 795.715 697.892 797.108 704.981C798.502 722.118 791.659 735.704 780.67 748.566C779.053 750.458 777.335 752.244 775.583 754.009C764.934 764.241 748.58 772.3 733.71 773.186C727.814 773.537 721.759 772.473 717.327 768.278C711.433 762.7 711.421 753.857 711.168 746.309C711.266 743.886 711.765 741.422 712.114 739.02C718.387 734.793 722.917 718.032 726.731 711.133Z" id="svg_154" class=""/><path fill="#33090B" transform="scale(0.7128909826278687) " d="M767.91 693.587C768.912 694.151 768.554 693.744 768.986 694.809C766.609 697.431 758.735 700.483 755.296 702.395C736.541 712.82 728.895 727.658 720.003 746.092L719.213 746.168C719.164 746.025 719.095 745.886 719.066 745.737C718.279 741.686 724.369 728.323 726.508 724.5C735.526 708.383 750.524 698.527 767.91 693.587Z" id="svg_155"/><path fill="#FCD9D0" transform="scale(0.7128909826278687) " d="M677.826 381.388C677.291 384.273 676.591 387.032 675.518 389.769C673.238 395.586 662.429 417.459 658.828 421.176C658.271 420.425 658.19 420.302 657.294 419.909C654.29 421.466 650.478 426.677 649.146 429.792L649.579 430.326C651.95 429.179 654.472 425.471 656.281 423.417C653.936 431.434 649.634 438.73 647.47 446.866C645.942 445.683 644.836 443.849 643.7 442.298C643.342 443.511 643.016 444.811 642.529 445.981C642.019 447.204 641.696 448.311 640.468 448.856C639.802 447.704 639.752 447.017 639.744 445.696C639.935 445.434 640.131 445.176 640.318 444.912C641.672 442.999 642.409 441.03 642.545 438.701L641.966 438.325C639.27 440.133 637.791 443.707 637.203 446.809C636.97 448.041 637.201 448.976 637.512 450.17C634.298 452.017 632.089 454.155 630.071 457.28C629.96 457.393 629.834 457.493 629.736 457.619C626.392 461.927 626.488 465.941 627.215 471.035C601.689 484.99 573.228 495.226 544.361 499.253Q533.552 500.695 522.655 501.12Q511.758 501.545 500.869 500.95C476.793 499.79 419.593 491.514 400.863 477.386C396.591 459.951 377.216 447.325 366.34 433.503C360.649 426.271 356.855 419.003 354.079 410.255C359.227 417.543 365.075 422.866 373.094 426.899C387.908 434.349 404.748 437.492 420.881 440.71C477.315 451.969 524.627 451.975 580.574 438.219C591.4 435.558 602.392 432.982 612.949 429.39C638.56 420.676 665.459 406.496 677.826 381.388Z" id="svg_156"/><path fill="#33090B" transform="scale(0.7128909826278687) " d="M434.975 462.281C436.858 463.04 440.516 472.458 442.409 475.006C442.993 475.792 442.803 476.267 442.82 477.226C442.069 477.124 442.429 477.193 441.545 476.963C439.849 476.522 438.481 474.087 437.665 472.645C436.185 470.029 434.12 465.305 434.975 462.281Z" id="svg_157"/><path fill="#33090B" transform="scale(0.7128909826278687) " d="M464.096 457.727C464.614 457.767 464.926 457.758 465.443 457.973C468.134 459.092 471.41 463.75 472.774 466.203C474.167 468.71 474.795 469.835 473.966 472.635C472.334 471.71 466.476 462.267 464.523 459.927C463.895 459.174 464.112 458.682 464.096 457.727Z" id="svg_158"/><path fill="#33090B" transform="scale(0.7128909826278687) " d="M611.127 439.866C612.309 440.104 612.506 439.957 613.374 440.866C611.196 446.213 607.14 451.784 604.023 456.676C602.795 456.401 603.355 456.672 602.357 455.837C602.51 451.985 608.936 443.38 611.127 439.866Z" id="svg_159"/><path fill="#33090B" transform="scale(0.7128909826278687) " d="M448.177 457.28L449.748 457.33C452.305 458.738 454.13 462.621 455.213 465.292C456.791 469.183 458.513 473.738 456.777 477.794L455.445 476.61C454.408 471.798 452.883 465.657 449.834 461.744C449.25 460.994 448.693 460.308 448.213 459.482C447.611 458.445 447.895 458.382 448.177 457.28Z" id="svg_160"/><path fill="#33090B" transform="scale(0.7128909826278687) " d="M412.037 456.16C412.785 456.417 413.208 456.674 413.853 457.111C416.262 461.82 418.813 466.512 421.83 470.862C422.767 472.212 425.816 475.211 426.206 476.571C426.316 476.955 426.178 477.369 426.164 477.768C425.547 477.824 424.968 477.779 424.351 477.744C423.575 477.088 422.868 476.437 422.204 475.664C418.605 471.474 411.653 461.895 412.037 456.16Z" id="svg_161"/><path fill="#33090B" transform="scale(0.7128909826278687) " d="M397.808 454.791C400.647 457.034 407.103 468.121 409.459 471.872C410.856 474.096 411.777 475.148 411.161 477.821C406.307 473.399 401.082 465.223 398.165 459.342C397.26 457.518 397.202 456.724 397.808 454.791Z" id="svg_162"/><path fill="#FCD9D0" transform="scale(0.7128909826278687) " d="M390.779 484.26C391.241 485.78 391.743 487.298 392.407 488.744C396.321 497.272 407.622 503.434 415.987 506.592C454.323 521.064 510.38 523.661 550.421 516.22Q556.335 515.089 562.174 513.619Q568.013 512.149 573.758 510.345Q579.502 508.541 585.134 506.409Q590.765 504.277 596.264 501.825C603.641 498.509 611.633 494.703 618.255 490.05C622.807 486.851 628.012 481.129 632.82 478.951L634.723 479.933C636.343 482.436 635.491 486.17 635.216 489C633.44 507.32 628.894 515.212 624.111 532.011C622.864 536.391 621.974 540.695 621.406 545.211C565.045 549.188 513.111 553.062 473.106 598.867C441.525 635.026 422.346 689.861 383.087 718.636C375.086 724.5 366.284 728.734 357.357 732.95L355.167 734.062C353.101 734.494 350.996 734.862 348.981 735.495C348.686 735.475 348.385 735.496 348.095 735.436C346.715 735.149 345.549 732.864 344.825 731.771L343.496 732.529L342.763 733.906C340.853 736.192 334.937 737.094 332.094 737.77C328.047 732.251 324.708 725.946 321.878 719.728C314.75 704.068 311.579 687.843 310.758 670.748C308.235 618.269 329.731 579.508 357.905 537.233C369.529 519.79 383.28 504.126 390.779 484.26Z" id="svg_163" class=""/><path fill="#33090B" transform="scale(0.7128909826278687) " d="M378.344 521.752L379.305 522.561C379.52 525.32 374.675 530.857 372.979 533.197L371.797 531.98C371.567 529.034 376.484 524.033 378.344 521.752Z" id="svg_164"/><path fill="#33090B" transform="scale(0.7128909826278687) " d="M353.97 567.271C354.456 567.643 354.846 568.098 355.266 568.542C355.448 572.482 352.156 579.871 350.343 583.524C349.802 583.026 349.361 582.52 348.888 581.959C348.623 577.365 351.587 571.117 353.97 567.271Z" id="svg_165"/><path fill="#33090B" transform="scale(0.7128909826278687) " d="M332.411 682.163C333.114 682.389 333.426 682.629 334.003 683.071C335.152 686.622 338.805 695.708 337.55 698.978C335.472 697.685 334.954 695.891 334.134 693.709C332.903 690.436 330.912 685.424 332.411 682.163Z" id="svg_166"/><path fill="#33090B" transform="scale(0.7128909826278687) " d="M364.769 542.231L366.076 543.191C366.418 546.09 359.923 555.858 358.169 558.835C357.142 558.31 357.168 558.371 356.777 557.291C357.886 552.017 361.928 546.764 364.769 542.231Z" id="svg_167"/><path fill="#33090B" transform="scale(0.7128909826278687) " d="M323.683 659.68L324.642 660.261C325.758 662.801 324.218 676.418 323.118 679.316C322.413 678.648 322.025 678.485 321.765 677.515C320.61 673.2 321.587 663.417 323.683 659.68Z" id="svg_168"/><path fill="#33090B" transform="scale(0.7128909826278687) " d="M325.247 625.173C325.765 625.381 326.192 625.7 326.657 626.005C327.797 629.826 324.901 640.175 324.096 644.413C323.125 644.119 323.073 644.086 322.339 643.282C321.444 637.735 323.494 630.431 325.247 625.173Z" id="svg_169"/><path fill="#33090B" transform="scale(0.7128909826278687) " d="M342.686 605.084L344.079 605.89C345.043 609.504 341.121 620.084 339.92 623.934C339.086 623.633 338.88 623.497 338.253 622.931C337.54 618.175 340.605 609.395 342.686 605.084Z" id="svg_170"/><path fill="#33090B" transform="scale(0.7128909826278687) " d="M344.825 731.771C342.992 727.134 340.534 722.009 340.43 716.943L341.647 716.028C343.132 719.042 348.276 732.305 348.981 735.495C348.686 735.475 348.385 735.496 348.095 735.436C346.715 735.149 345.549 732.864 344.825 731.771Z" id="svg_171"/><path fill="#33090B" transform="scale(0.7128909826278687) " d="M325.436 692.825L326.535 693.404C328.035 695.508 332.493 711.757 332.348 714.337C331.489 714.139 330.813 714.024 330.31 713.23C327.489 708.774 324.096 697.886 325.436 692.825Z" id="svg_172"/><path fill="#33090B" transform="scale(0.7128909826278687) " d="M343.164 697.757C344.157 697.933 344.826 697.904 345.448 698.825C347.951 702.536 349.517 707.796 351.692 711.856C352.488 713.341 354.554 716.004 354.807 717.518C354.893 718.029 354.623 718.537 354.531 719.047C353.704 718.854 353.198 718.525 352.574 717.969C348.172 714.043 343.49 703.616 343.164 697.757Z" id="svg_173"/><path fill="#33090B" transform="scale(0.7128909826278687) " d="M335.454 643.09C336.012 643.287 336.646 643.288 336.869 643.89C337.536 645.688 337.51 669.014 336.925 670.322C336.321 669.927 335.871 669.522 335.347 669.031C333.333 663.53 333.79 648.661 335.454 643.09Z" id="svg_174"/><path fill="#33090B" transform="scale(0.7128909826278687) " d="M338.362 588.128C339.601 588.691 339.154 588.24 339.705 589.477C338.948 594.151 332.971 608.945 330.691 613.723C329.779 613.37 329.772 613.225 329.175 612.509C328.84 607.335 335.33 592.85 338.362 588.128Z" id="svg_175"/><path fill="#F48B61" transform="scale(0.7128909826278687) " d="M626.234 544.561C642.768 544.077 676.054 540.718 691.202 534.572C695.509 542.284 698.961 550.602 702.325 558.761C720.031 601.715 734.51 662.457 721.356 708.36C714.678 731.667 700.493 748.943 679.322 760.515C658.627 771.826 634.682 779.463 612.053 785.825C547.337 804.019 482.433 812.092 417.032 792.724C386.727 783.75 348.887 765.296 332.094 737.77C334.937 737.094 340.853 736.192 342.763 733.906L343.496 732.529L344.825 731.771C345.549 732.864 346.715 735.149 348.095 735.436C348.385 735.496 348.686 735.475 348.981 735.495C350.996 734.862 353.101 734.494 355.167 734.062L357.357 732.95C366.284 728.734 375.086 724.5 383.087 718.636C422.346 689.861 441.525 635.026 473.106 598.867C513.111 553.062 565.045 549.188 621.406 545.211C621.353 549.116 621.235 553.089 621.727 556.97C623.079 567.654 628.452 578.231 637.09 584.841C640.736 587.629 648.239 592.571 652.947 591.318C654.282 590.963 654.44 590.782 655.019 589.646C654.551 588.681 654.311 588.285 653.362 587.686C651.77 586.682 649.643 586.213 647.896 585.48Q646.127 584.724 644.455 583.774Q642.783 582.823 641.229 581.69Q639.674 580.557 638.258 579.256Q636.841 577.955 635.58 576.503C627.499 567.368 625.464 556.42 626.234 544.561Z" id="svg_176" class=""/><path fill="#33090B" transform="scale(0.7128909826278687) " d="M452.484 791.831C455.297 792.38 461.357 793.568 463.28 795.792C463.821 796.418 463.505 797.236 463.445 798.003C460.596 797.283 456.395 796.687 454.004 794.903C452.613 793.865 452.751 793.485 452.484 791.831Z" id="svg_177"/><path fill="#33090B" transform="scale(0.7128909826278687) " d="M471.089 794.979C474.038 794.722 479.304 794.997 481.868 796.49C482.651 796.946 482.54 797.808 482.713 798.633C480.138 799.284 476.256 799.321 473.748 798.318C471.934 797.592 471.735 796.602 471.089 794.979Z" id="svg_178"/><path fill="#33090B" transform="scale(0.7128909826278687) " d="M343.496 732.529C346.956 735.01 350.749 739.508 351.68 743.714L351.361 744.694C350.126 744.701 349.655 744.272 348.824 743.407C346.611 741.106 343.957 736.844 342.763 733.906L343.496 732.529Z" id="svg_179"/><path fill="#33090B" transform="scale(0.7128909826278687) " d="M402.011 775.707C405.098 777.146 410.924 779.025 413.191 781.497C414.246 782.646 413.911 783.401 413.794 784.81C410.317 783.796 404.531 781.459 402.12 778.612C401.497 777.877 401.915 776.627 402.011 775.707Z" id="svg_180"/><path fill="#33090B" transform="scale(0.7128909826278687) " d="M428.54 785.742C431.9 786.596 438.444 787.542 440.894 790.065C441.491 790.68 441.194 792.072 441.175 792.904C437.519 792.106 431.596 791.009 428.991 788.249C428.335 787.555 428.57 786.643 428.54 785.742Z" id="svg_181"/><path fill="#33090B" transform="scale(0.7128909826278687) " d="M357.357 732.95C360.05 736.666 367.203 743.403 368.478 745.824L367.916 746.753L366.977 746.918C362.494 743.062 358.125 739.274 355.167 734.062L357.357 732.95Z" id="svg_182"/><path fill="#33090B" transform="scale(0.7128909826278687) " d="M376.79 759.276C378.47 759.787 392.108 770.334 393.793 772.136C394.689 773.094 394.494 773.441 394.463 774.696C394.193 774.687 393.923 774.688 393.654 774.669C389.183 774.35 380.594 766.622 377.723 763.062C376.558 761.617 376.607 761.098 376.79 759.276Z" id="svg_183"/></g></svg>