<svg xmlns="http://www.w3.org/2000/svg" xmlns:xlink="http://www.w3.org/1999/xlink" width="50" height="50" style=""><rect id="backgroundrect" width="100%" height="100%" x="0" y="0" fill="none" stroke="none"/>
	
	
	
	
	
	
	
	
	
	
	
	
	
	
	
	
	
	
	
	
	
	
	
	
	
	
	
	
	
	
	
	
	
	
	
	
	
	
	
	
	
	
	
	
	
	
	
	
	
	
	
	
	
	
	
	
	
	
	
	
	
	
	
	
	
	
	
	
	
	
	
	
	
	
	
	
	
	
	
	
	
	
	
	
	
	
	
	
	
	
	
	
	
	
	
	
	
	
	
<g class="currentLayer" style=""><title>Layer 1</title><path transform="scale(0.04882809892296791) " d="M442.6 24.2376C446.749 24.2566 450.934 24.404 455.053 24.917C469.419 26.7065 484.91 32.5207 495.406 42.768C498.384 45.6758 500.907 49.0881 503.465 52.364C505.545 49.5632 507.734 47.1756 510.443 44.9651C524.7 33.3285 544.533 29.8967 562.452 31.8236C594.058 35.2223 610.568 49.7901 629.581 73.5196C653.56 79.7259 673.765 91.8488 693.838 105.953C699.304 109.794 705.126 113.478 709.98 118.081C714.471 122.34 718.558 128.022 718.609 134.447C718.776 155.366 673.821 215.773 657.122 231.663C652.114 236.429 646.753 241.025 641.331 245.315C637.885 248.04 631.413 251.601 628.912 254.837C628.025 255.984 627.613 257.324 627.92 258.703C630.564 259.517 633.625 257.419 636.388 257.238C643.193 256.791 650.383 259.954 655.277 264.545C660.458 269.405 663.895 276.321 663.939 283.489C663.976 289.644 661.543 295.202 657.184 299.516C652.492 304.158 646.527 306.725 639.901 306.626C630.01 306.479 622.916 300.984 616.436 294.204L611.484 297.59C619.228 304.048 633.888 307.504 637.595 310.761C639.253 312.218 638.763 315.183 638.675 317.15C638.66 317.49 638.492 317.856 638.625 318.169C638.717 318.383 639.034 318.395 639.246 318.489C641.713 319.588 644.428 320.302 646.949 321.326Q654.888 324.568 662.436 328.637C715.372 357.074 774.683 416.755 809.458 465.677C862.318 540.042 898.701 629.664 883.034 722.109C896.469 724.482 909.777 729.768 920.93 737.69C927.955 742.68 934.515 749.398 935.852 758.283C936.639 763.514 935.611 768.422 932.392 772.621C937.842 780.08 939.006 787.918 938.588 796.932Q941.75 798.06 944.742 799.585Q947.733 801.11 950.503 803.007C960.999 810.061 970.644 820.593 973.082 833.368C975.037 843.611 972.191 852.758 966.504 861.238C967.95 876.778 962.911 889.061 953.562 901.288C930.603 931.317 895.065 940.706 859.465 945.393C852.856 954.504 845.442 961.863 835.759 967.71C805.314 986.095 767.867 987.689 734.101 979.373C707.852 998.592 682.868 1006.15 650.375 1005.8C632.376 1005.07 616.126 1002.29 599.792 994.346C584.291 986.804 573.193 978.394 567.479 961.814C553.053 970.751 538.595 976.596 521.746 979.315C493.094 983.938 457.51 978.861 433.677 961.566C421.69 952.868 414.811 941.606 412.544 927.086C392.114 925.209 371.96 923.685 351.783 919.671C320.114 913.372 289.211 903.13 258.979 891.907C193.931 867.757 114.097 832.28 74.378 772.714C47.556 732.49 43.1672 683.955 52.6014 637.395C66.0075 571.234 98.1424 509.66 140.14 457.164C152.154 442.147 165.249 427.924 178.457 413.956C208.184 382.518 240.348 353.718 276.432 329.738Q276.581 328.818 276.752 327.901C278.68 317.485 282.477 311.908 291.153 305.93C287.403 299.263 281.33 292.922 278.506 285.976C275.528 278.651 277.088 270.557 279.891 263.487Q263.777 250.558 249.147 235.97C229.871 216.867 212.706 195.904 200.903 171.316C197.028 163.244 193.209 154.266 193.238 145.148C193.266 136.113 197.409 129.178 203.724 123.05C231.251 96.3383 278.689 80.8623 316.246 76.6613C326.37 75.5288 336.288 75.5279 346.464 75.6754C348.723 71.6215 351.331 68.2088 354.483 64.7991Q355.532 63.6488 356.61 62.5251Q357.688 61.4014 358.793 60.305Q359.898 59.2086 361.031 58.1402Q362.163 57.0717 363.322 56.0319Q364.481 54.9921 365.665 53.9816Q366.85 52.9711 368.059 51.9905Q369.268 51.0099 370.502 50.0598Q371.735 49.1097 372.992 48.1908Q374.249 47.2718 375.528 46.3846Q376.808 45.4973 378.109 44.6423Q379.41 43.7873 380.732 42.9651Q382.054 42.1428 383.397 41.3539Q384.739 40.565 386.1 39.8098Q387.462 39.0547 388.842 38.3338Q390.222 37.613 391.62 36.9268Q393.017 36.2406 394.431 35.5896Q395.846 34.9386 397.276 34.3231Q398.706 33.7077 400.151 33.1281Q401.596 32.5486 403.055 32.0053Q404.514 31.4621 405.986 30.9555Q407.459 30.4489 408.943 29.9792Q410.427 29.5095 411.923 29.0771Q413.419 28.6447 414.925 28.2498Q416.431 27.8549 417.946 27.4978Q419.462 27.1406 420.986 26.8214Q422.51 26.5023 424.041 26.2213Q425.572 25.9403 427.11 25.6977Q428.648 25.4551 430.192 25.251Q431.735 25.0469 433.283 24.8814Q434.831 24.7159 436.383 24.5892Q437.935 24.4625 439.489 24.3745Q441.044 24.2866 442.6 24.2376Z" id="svg_2"/><path fill="white" transform="scale(0.04882809892296791) " d="M640.235 752.631L644.997 755.079C642.855 760.603 641.685 765.704 641.339 771.623C641.297 772.222 641.057 772.711 640.845 773.267C639.536 766.188 639.504 759.779 640.235 752.631Z" id="svg_3"/><path fill="white" transform="scale(0.04882809892296791) " d="M577.463 311.959C577.441 315.506 575.539 320.31 574.844 323.959C573.257 322.612 571.593 321.517 569.843 320.398L565.054 317.913C569.113 315.705 573.237 313.815 577.463 311.959Z" id="svg_4"/><path fill="white" transform="scale(0.04882809892296791) " d="M347.04 321.064C352.4 321.794 357.652 323.048 362.893 324.353L358.177 326.943C355.769 328.486 353.579 330.275 351.354 332.064C350.03 328.357 348.506 324.716 347.04 321.064Z" id="svg_5"/><path fill="white" transform="scale(0.04882809892296791) " d="M518.046 327.178C518.455 328.147 514.632 337.107 514.02 339.125C512.125 337.304 510.244 335.755 508.103 334.231L500.881 330.265Q509.569 329.307 518.046 327.178Z" id="svg_6"/><path fill="white" transform="scale(0.04882809892296791) " d="M602.462 303.307C603.35 303.6 603.214 303.506 603.865 303.848C607.095 305.545 611.497 307.404 612.593 311.197C613.494 314.313 611.516 317.432 610.061 320.063C608.945 321.493 607.739 322.864 606.576 324.256C606.583 316.686 605.712 310.21 602.462 303.307Z" id="svg_7"/><path fill="white" transform="scale(0.04882809892296791) " d="M421.793 332.875Q431.616 333.895 441.468 334.59C439.045 336.339 437 337.997 435.002 340.243C433.659 342.306 432.529 344.551 431.332 346.705C428.565 341.522 425.724 337.244 421.793 332.875Z" id="svg_8"/><path fill="white" transform="scale(0.04882809892296791) " d="M530.633 159.323C535.829 163.669 542.095 163.957 548.544 164.948C546.119 166.35 543.378 167.435 540.829 168.614L528.051 174.485C529.672 169.31 530.646 164.787 530.633 159.323Z" id="svg_9"/><path fill="white" transform="scale(0.04882809892296791) " d="M305.727 304.169C307.716 305.458 309.556 307.057 311.421 308.521C311.125 312.942 311.438 317.45 311.27 321.893C311.141 325.328 310.564 328.744 310.327 332.182C309.027 331.399 307.632 330.507 306.583 329.403C305.859 328.642 305.523 327.716 305.36 326.689C304.923 323.952 305.608 320.374 305.686 317.532C305.807 313.085 305.735 308.619 305.727 304.169Z" id="svg_10"/><path fill="white" transform="scale(0.04882809892296791) " d="M845.09 883.412C849.585 883.801 854.292 885.504 858.751 886.441C866.699 888.111 874.57 889.248 882.658 889.981L878.894 891.518C872.543 893.381 866.213 894.734 859.677 895.733C859.631 895.689 859.583 895.645 859.537 895.6C855.363 891.429 848.241 887.866 845.09 883.412Z" id="svg_11"/><path fill="white" transform="scale(0.04882809892296791) " d="M503.888 139.567C505.926 139.593 508.539 139.656 510.056 141.2C509.315 142.275 497.428 146.129 494.868 147.521C483.479 153.714 473.75 161.124 466.235 171.756C465.509 173.137 464.926 174.209 463.74 175.272L463.027 175.004C462.822 173.1 463.86 170.978 464.827 169.37C471.878 157.647 490.476 143.175 503.888 139.567Z" id="svg_12"/><path fill="white" transform="scale(0.04882809892296791) " d="M832.526 921.495C832.547 921.686 832.595 921.877 832.589 922.069C832.485 925.248 830.241 929.143 828.171 931.458C814.927 946.27 788.581 949.119 769.991 949.811L769.972 949.32C795.144 945.455 814.006 939.881 832.526 921.495Z" id="svg_13"/><path fill="white" transform="scale(0.04882809892296791) " d="M431.702 143.903C432.853 144.418 433.756 145.011 434.751 145.784C449.916 157.563 456.687 174.357 458.989 192.89L453.248 193.432C450.287 170.813 445.031 161.867 431.702 143.903Z" id="svg_14"/><path fill="white" transform="scale(0.04882809892296791) " d="M594.677 308.337C594.827 308.399 594.984 308.447 595.126 308.524C597.975 310.067 599.179 326.291 599.813 329.759C596.655 331.742 593.436 333.576 590.175 335.385C589.312 335.769 588.991 335.831 588.085 335.886C587.722 335.615 587.51 335.495 587.232 335.088C585.602 332.699 586.193 327.278 586.486 324.454C587.186 317.682 589.358 312.621 594.677 308.337Z" id="svg_15"/><path fill="white" transform="scale(0.04882809892296791) " d="M915.104 889.573L915.591 889.599L915.543 890.156C903.013 899.345 880.841 907.195 865.185 908.21L862.472 902.152C880.597 900.371 897.558 894.116 915.104 889.573Z" id="svg_16"/><path fill="white" transform="scale(0.04882809892296791) " d="M633.008 271.596C634.626 271.436 636.304 271.233 637.923 271.476C641.762 272.051 645.426 275.355 647.513 278.475C648.943 280.611 650.053 283.277 649.455 285.891C648.998 287.886 647.88 289.056 646.199 290.1C644.792 290.008 643.365 289.894 641.969 289.693C637.435 289.043 633.182 285.686 630.551 282.045C629.208 280.187 628.366 278.116 628.902 275.803C629.438 273.487 631.108 272.695 633.008 271.596Z" id="svg_17"/><path fill="white" transform="scale(0.04882809892296791) " d="M935.117 813.71C937.95 815.578 939.504 818.885 940.277 822.084C941.69 827.928 940.992 833.603 937.722 838.71C931.08 849.085 917.395 854.179 905.887 856.474L899.107 857.744C916.216 846.352 929.933 834.328 935.117 813.71Z" id="svg_18"/><path fill="white" transform="scale(0.04882809892296791) " d="M323.681 316.904C327.028 316.931 329.395 318.776 331.737 320.994C337.405 326.361 342.948 335.962 342.879 343.974C342.865 345.599 342.451 346.448 341.328 347.579C339.108 347.797 335.594 345.912 333.464 345.114C328.138 342.847 315.013 337.124 311.7 332.816L312.097 332.327C312.316 332.054 312.526 331.773 312.755 331.508C317.677 325.805 316.392 321.583 323.681 316.904Z" id="svg_19"/><path fill="white" transform="scale(0.04882809892296791) " d="M657.254 910.981C659.081 911.684 662.281 918.195 663.86 919.977C667.882 924.518 673.151 927.923 678.045 931.446L679.198 937.068C673.443 937.43 667.772 937.563 662.022 937.055C657.833 936.633 653.323 935.447 649.429 933.832C646.054 932.431 641.85 930.26 640.548 926.591C639.878 924.706 640.184 922.75 641.118 921.016C644.182 915.329 651.506 912.881 657.254 910.981Z" id="svg_20"/><path fill="white" transform="scale(0.04882809892296791) " d="M628.759 732.016C631.65 734.57 633.82 738.484 635.888 741.697C629.787 754.69 629.734 768.653 632.486 782.412L627.559 778.178Q624.283 775.403 621.085 772.539C617.028 768.833 614 764.452 613.882 758.778C613.664 748.237 621.75 739.006 628.759 732.016Z" id="svg_21"/><path fill="white" transform="scale(0.04882809892296791) " d="M472.62 96.7041C481.086 96.3641 489.645 98.6442 496.997 102.805C509.291 109.763 517.54 121.064 521.302 134.605C524.433 145.872 525.062 167.128 518.836 177.423C517.977 178.844 516.984 179.948 515.312 180.347C515.192 179.217 516.738 176.671 517.19 175.479C518.666 171.594 519.677 167.106 520.277 163.003C522.584 147.235 517.34 131.483 507.915 118.823Q505.808 116.319 503.417 114.085C494.244 105.465 482.191 101.524 469.714 101.918Q468.289 101.967 466.868 102.092Q465.447 102.216 464.035 102.416Q462.623 102.616 461.223 102.891Q459.824 103.166 458.441 103.515Q457.058 103.865 455.696 104.287Q454.334 104.709 452.996 105.203Q451.658 105.697 450.348 106.262Q449.039 106.826 447.761 107.46Q446.483 108.094 445.241 108.794Q443.998 109.495 442.795 110.261Q441.592 111.026 440.431 111.855Q439.271 112.684 438.156 113.573Q437.041 114.463 435.975 115.41Q434.909 116.358 433.895 117.36Q432.88 118.363 431.921 119.419Q430.962 120.474 430.06 121.579C426.964 125.429 424.78 130.228 421.399 133.789L420.989 133.256C421.754 128.103 427.247 120.804 430.59 116.901C440.951 104.801 456.963 97.9299 472.62 96.7041Z" id="svg_22"/><path fill="white" transform="scale(0.04882809892296791) " d="M909.417 795.443C909.609 796.181 909.669 796.805 909.654 797.57C909.526 804.565 907.226 810.432 902.053 815.264C886.626 829.676 856.361 834.652 836.051 834.099C836.393 831.866 835.96 829.97 835.54 827.787C858.943 827.572 874.526 823.52 892.799 808.481C898.441 803.839 903.045 799.237 909.417 795.443Z" id="svg_23"/><path fill="white" transform="scale(0.04882809892296791) " d="M657.979 837.042C658.946 838.062 657.584 847.994 657.588 850.384C630.167 861.346 606.809 861.136 579.371 850.246C576.705 849.015 574.211 847.677 571.703 846.151C578.988 847.105 586.208 848.654 593.526 849.365Q595.595 849.582 597.671 849.723Q599.747 849.864 601.826 849.929Q603.906 849.994 605.987 849.982Q608.067 849.971 610.146 849.883Q612.225 849.795 614.299 849.631Q616.373 849.467 618.44 849.228Q620.506 848.988 622.563 848.672Q624.619 848.357 626.663 847.966Q628.707 847.575 630.734 847.11Q632.762 846.644 634.772 846.105Q636.781 845.565 638.77 844.953Q640.758 844.34 642.722 843.655Q644.687 842.969 646.625 842.213Q648.563 841.456 650.472 840.628Q652.381 839.801 654.258 838.904Q656.136 838.007 657.979 837.042Z" id="svg_24"/><path fill="white" transform="scale(0.04882809892296791) " d="M445.222 909.67L454.47 912.787C455.114 914.801 455.765 916.901 457.034 918.617C468.241 933.772 505.889 939.058 523.814 939.285C529.861 939.362 537.609 937.788 543.319 938.757C542.169 939.059 541.004 939.319 539.847 939.594C519.821 944.401 499.529 946.166 479.288 941.362C467.548 938.576 453.817 932.934 447.36 922.027C445.048 918.122 444.038 914.092 445.222 909.67Z" id="svg_25"/><path fill="white" transform="scale(0.04882809892296791) " d="M559.454 911.111L559.849 911.683C556.768 916.132 555.399 920.032 553.907 925.213C528.56 933.941 495.147 927.848 470.868 917.782C467.532 916.284 464.291 914.463 461.041 912.783C485.826 918.778 511.736 921.612 536.995 916.856C544.538 915.435 552.042 913.117 559.454 911.111Z" id="svg_26"/><path fill="white" transform="scale(0.04882809892296791) " d="M658.342 821.018C658.635 821.003 658.912 821.16 659.193 821.247C657.547 824.446 647.515 829.68 644.016 831.396C615.978 845.15 587.293 841.337 558.775 831.75C556.084 830.865 553.509 829.678 550.913 828.55C555.188 827.648 559.756 826.381 564.123 826.219C573.282 825.879 583.769 828.735 593.25 829.24C614.492 830.371 638.039 827.238 658.342 821.018Z" id="svg_27"/><path fill="white" transform="scale(0.04882809892296791) " d="M809.908 870.596L810.201 870.787C810.064 870.941 809.935 871.103 809.79 871.25C799.224 881.947 773.184 891.459 758.377 894.31Q751.908 895.519 745.35 896.055Q738.791 896.592 732.212 896.451C721.102 896.292 710.911 894.051 700.011 892.356C690.804 890.923 668.313 889.437 661.892 882.802C661.352 881.441 661.694 880.382 661.988 879.013C664.212 875.047 666.631 873.704 670.763 872.236C672.613 872.74 674.445 873.329 676.282 873.882C681.677 881.786 687.925 885.813 696.818 889.013C703.205 891.312 715.268 893.737 721.751 891.692C723.986 890.986 725.875 888.632 728.013 888.248C734.812 887.027 742.67 887.955 749.65 887.344C770.913 885.483 790.626 879.579 809.908 870.596Z" id="svg_28"/><path fill="white" transform="scale(0.04882809892296791) " d="M817.303 732.051L817.807 732.004L818.315 732.438C814.775 743.176 810.82 750.09 801.105 756.227C774.882 772.794 732.285 773.487 702.626 766.757L696.107 765.141C710.581 764.566 724.981 765.589 739.613 764.738C765.494 763.233 783.931 755.886 801.197 736.44C806.499 734.782 811.934 733.475 817.303 732.051Z" id="svg_29"/><path fill="white" transform="scale(0.04882809892296791) " d="M891.854 798.725L892.05 798.861L892.051 799.52C889.891 801.459 887.753 803.535 885.373 805.207C867.09 818.057 846.212 817.63 824.973 816.424C815.637 815.895 806.335 815.315 797.107 813.734L796.592 813.483C796.694 812.08 807.949 803.439 809.802 801.682C826.793 804.297 844.679 804.578 861.779 802.769C871.822 801.706 881.799 799.862 891.854 798.725Z" id="svg_30"/><path fill="white" transform="scale(0.04882809892296791) " d="M811.383 883.361L812.012 883.929C813.07 886.834 812.291 890.296 811.18 893.097C807.865 901.454 799.016 905.975 791.143 909.15C762.448 920.721 727.902 917.4 699.961 905.485C697.711 904.391 695.563 903.015 693.403 901.752C698.853 903.252 704.306 904.598 709.882 905.549C746.184 911.737 781.216 904.76 811.383 883.361Z" id="svg_31"/><path fill="white" transform="scale(0.04882809892296791) " d="M540.778 325.613C544.615 325.41 548.398 325.27 552.217 325.805C563.268 327.356 571.445 332.946 578.103 341.72C571.043 344.817 563.452 346.893 556.099 349.172C546.346 351.736 536.511 353.798 526.641 355.844C526.099 348.218 522.005 339.453 526.939 332.453C530.125 327.933 535.642 326.543 540.778 325.613Z" id="svg_32"/><path fill="white" transform="scale(0.04882809892296791) " d="M536.675 815.887C543.977 819.389 538.581 826.021 541.575 831.711C542.632 833.72 546.58 836.161 546.964 838.008C548.157 843.746 544.253 844.323 548.603 853.454C552.633 861.915 558.678 868.212 566.347 873.496C587.42 888.015 611.071 888.036 635.6 886.955C640.269 886.749 650.268 884.946 654.316 886.387L654.757 887.349C654.64 887.545 654.537 887.749 654.406 887.936C652.883 890.11 650.518 890.074 648.118 890.385C643.771 890.924 639.449 891.467 635.076 891.757C603.483 893.851 566.228 884.131 542.109 862.754C534.722 856.207 528.805 847.417 528.383 837.264C528.059 829.46 531.448 821.588 536.675 815.887Z" id="svg_33"/><path fill="white" transform="scale(0.04882809892296791) " d="M510.874 147.524C510.953 147.653 511.052 147.77 511.11 147.909C513.234 152.961 511.546 167.677 510.141 172.892C506.321 173.272 499.352 173.475 496.241 175.955C495.277 176.724 495.341 176.958 495.216 178.112C498.004 180.861 503.551 177.053 506.82 179.256C507.129 180.256 507.418 180.329 506.831 181.327C503.322 187.293 484.167 189.806 477.117 190.887L465.964 192.23Q465.487 188.084 465.154 183.923C473.693 165.402 493.612 156.135 510.874 147.524Z" id="svg_34"/><path transform="scale(0.04882809892296791) " d="M505.453 154.489C505.591 154.479 505.728 154.459 505.866 154.459C507.258 154.463 508.484 154.806 509.453 155.816C509.181 157.579 508.019 158.596 506.605 159.617C502.343 162.697 497.176 164.904 492.577 167.508C484.544 172.056 478.334 178.742 472.368 185.648C471.647 186.247 470.894 186.537 470.045 186.937L469.438 186.513C469.357 185.193 469.207 183.761 469.671 182.496C474.62 169.003 493.001 159.768 505.453 154.489Z" id="svg_35"/><path fill="white" transform="scale(0.04882809892296791) " d="M952.91 875.937C952.438 881.572 948.026 888.789 944.72 893.299C931.905 910.779 907.296 921.874 886.912 927.215C880.233 928.965 873.458 929.983 866.643 931.03C866.518 930.343 866.491 930.598 866.624 929.985C867.537 925.764 867.575 921.826 867.239 917.538C885.467 914.458 906.117 909.219 921.175 898.09C925.827 894.653 929.086 889.219 933.859 886.137C939.508 882.489 946.747 879.688 952.91 875.937Z" id="svg_36"/><path fill="white" transform="scale(0.04882809892296791) " d="M681.458 690.968C684.307 693.233 686.963 699.497 689.673 702.57C702.748 717.39 719.403 725.259 738.098 730.517Q733.443 732.207 728.596 733.226Q723.749 734.244 718.807 734.571C699.134 735.72 674.117 732.487 658.85 718.817Q658.27 718.19 657.74 717.52C656.051 715.352 654.694 712.678 655.135 709.865C655.898 705.006 661.26 701.46 664.924 698.711C665.615 700.922 666.413 703.188 667.489 705.244C673.672 717.055 686.561 726.98 699.276 730.724C701.447 731.364 703.134 731.839 705.195 730.718C704.722 728.698 693.267 721.261 690.788 719.296C682.646 712.841 675.152 705.387 669.297 696.779Q675.335 693.785 681.458 690.968Z" id="svg_37"/><path fill="white" transform="scale(0.04882809892296791) " d="M572.937 961.421C575.539 962.93 578.165 964.496 580.871 965.81C583.35 967.014 586.647 967.846 588.785 969.489C591.672 971.707 593.583 975.158 596.404 977.496C603.125 983.069 624.901 987.516 633.405 986.453C635.01 986.253 635.757 985.876 636.744 984.612C636.083 983.66 635.199 983.359 634.135 982.996C626.412 980.359 618.857 979.378 611.275 975.856C641.144 982.981 673.173 981.81 701.834 970.485Q704.272 969.304 706.685 968.071C711.356 970.112 715.94 972.442 720.579 974.565C711.382 981.868 698.353 985.789 687.089 988.362C657.229 995.181 610.391 993.819 584.163 977.129C578.18 973.322 574.451 968.404 572.937 961.421Z" id="svg_38"/><path fill="white" transform="scale(0.04882809892296791) " d="M552.143 840.619C554.662 841.313 557.164 842.173 559.66 842.952C564.842 850.221 570.463 854.569 578.55 858.267C604.657 870.204 633.766 869.033 660.193 859.131C662.249 862.07 664.654 864.299 667.359 866.605L662.578 868.956C660.06 870.654 657.776 873.243 655.124 874.635C648.446 878.142 637.203 879.916 629.757 880.802C608.997 883.271 582.215 876.516 565.785 863.354C558.4 857.439 553.181 850.216 552.143 840.619Z" id="svg_39"/><path fill="white" transform="scale(0.04882809892296791) " d="M382.792 330.22C391.961 330.164 400.756 331.087 408.688 336.035C415.514 340.293 423.768 348.976 425.311 357.155C425.617 358.776 425.238 359.564 424.288 360.845C420.286 362.522 400.521 359.479 395.4 358.906C384.825 358.519 360.767 353.545 350.586 350.102C351.786 347.316 353.314 344.829 355.281 342.525C362.067 334.577 372.639 330.996 382.792 330.22Z" id="svg_40"/><path fill="white" transform="scale(0.04882809892296791) " d="M937.985 806.907C944.712 809.785 953.483 817.999 957.773 823.887C961.571 829.1 963.501 835.304 962.371 841.748C960.679 851.392 952.848 859.695 945.075 865.098C931.429 874.582 910.659 879.578 894.095 879.357C884.151 879.224 874.375 877.554 864.611 875.836C858.576 874.599 851.639 873.745 845.935 871.47C852.217 871.556 858.443 871.53 864.689 870.749C870.355 870.041 875.952 868.766 881.621 868.114C886.957 867.501 892.382 867.701 897.733 867.207C911.69 865.921 928.633 862.2 939.158 852.256C945.49 846.275 948.765 838.443 948.962 829.753C949.19 819.7 944.515 813.678 937.985 806.907Z" id="svg_41"/><path fill="white" transform="scale(0.04882809892296791) " d="M925.469 782.88C925.617 783.01 925.775 783.129 925.912 783.269C929.912 787.356 931.526 794.706 931.549 800.297C931.592 811.115 924.626 822.338 917.342 829.838C901.553 846.096 876.552 854.724 854.468 857.127C848.8 857.744 843.045 857.689 837.349 857.752L831.486 857.603C833.876 853.103 835.116 848.809 835.66 843.765C842.732 843.691 849.812 843.599 856.837 842.713C875.124 840.407 899.91 833.996 911.726 818.544C918.338 809.896 918.788 800.494 917.367 790.104C920.332 787.849 923.042 785.732 925.469 782.88Z" id="svg_42"/><path fill="white" transform="scale(0.04882809892296791) " d="M686.031 668.443C688.711 673.224 691.601 677.362 695.509 681.228C718.663 704.131 757.073 714.103 788.901 713.848C812.333 713.661 828.016 710.441 844.768 693.411C844.063 697.181 843.058 700.577 841.501 704.073C840.635 705.587 839.75 707.026 838.57 708.321C826.358 721.738 802.133 724.72 784.953 725.242C758.19 726.055 721.748 716.12 702.284 697.452C694.994 690.461 686.306 678.968 686.031 668.443Z" id="svg_43"/><path fill="white" transform="scale(0.04882809892296791) " d="M472.177 335.712C479.487 335.723 486.742 336.316 493.749 338.526C503.864 341.716 512.405 347.953 517.382 357.465C504.388 359.677 491.253 360.775 478.122 361.794C463.227 363.541 447.363 362.559 432.39 361.944C433.693 357.155 435.652 352.858 438.898 349.071C447.248 339.329 459.99 336.623 472.177 335.712Z" id="svg_44"/><path fill="white" transform="scale(0.04882809892296791) " d="M833.945 725.444C858.37 725.291 882.555 729.17 904.742 739.789C910.974 742.771 917.353 746.275 922.365 751.107C925.695 754.316 928.483 758.489 928.393 763.286C928.322 767.001 926.445 770.213 923.834 772.749C913.674 782.616 884.915 790.415 870.764 792.366C860.737 793.749 850.482 793.959 840.375 793.607L839.614 793.586C835.863 793.481 818.388 793.25 816.556 791.311C816.876 790.584 817.27 790.141 817.822 789.586C818.764 788.638 819.368 788.676 820.645 788.623C825.341 788.43 830.114 789.221 834.83 789.204C853.409 789.14 879.349 787.129 894.445 775.787C899.127 772.269 903.027 767.542 903.688 761.533C904.274 756.199 902.181 751.125 898.761 747.107C888.76 735.361 868.199 731.167 853.668 729.783C848.657 729.306 843.554 729.51 838.573 728.978C836.532 728.76 835.622 727.448 834.388 725.981L833.945 725.444Z" id="svg_45"/><path fill="white" transform="scale(0.04882809892296791) " d="M467.134 109.705C473.619 109.509 480.038 110.14 486.202 112.259C496.28 115.724 505.347 123.775 510.009 133.365C505.747 131.77 501.86 125.629 498.223 122.659C488.522 114.737 475.879 112.101 463.579 113.456C457.085 114.171 443.364 118.298 439.389 123.726C438.752 124.596 438.923 124.186 439.106 125.378C441.515 126.422 456.308 120.87 460.148 120.215C465.773 119.256 471.739 119.076 477.366 120.109C485.885 121.673 494.066 126.297 499.063 133.469C492.869 135.947 487.248 138.927 481.744 142.702C475.612 147.234 470.272 152.459 464.842 157.784C459.803 153.611 456.861 148.756 452.963 143.654C450.126 139.941 444.119 133.874 439.018 133.964C437.649 133.988 437.274 134.559 436.32 135.421C436.113 136.132 435.811 136.581 436.077 137.315C437.1 140.136 441.331 140.566 443.576 142.214C445.273 143.459 446.614 145.388 447.921 147.025C452.733 153.055 456.339 156.941 463.313 160.571L459.65 166.394C453.417 157.333 448.593 146.475 437.839 142.041C434.032 140.471 428.94 139.429 425.666 137.013C426.259 133.284 430.657 128.08 433.12 125.274C442.039 115.112 453.907 110.645 467.134 109.705Z" id="svg_46"/><path transform="scale(0.04882809892296791) " d="M466.26 124.653C467.49 124.6 468.793 124.633 470.019 124.767C475.181 125.328 480.495 127.476 483.688 131.742C484.805 133.233 485.349 134.491 485.076 136.348L484.022 137.093C482.078 137.25 480.81 136.251 479.189 135.288C471.608 131.489 461.74 132.805 458.146 130.29C457.461 129.019 457.446 128.982 457.671 127.558C459.977 125.223 463.172 125.135 466.26 124.653Z" id="svg_47"/><path fill="white" transform="scale(0.04882809892296791) " d="M213.963 160.498C224.181 163.631 234.283 165.118 243.618 170.744C248.053 173.417 251.836 177.013 256.28 179.614C256.422 179.697 256.565 179.776 256.708 179.857C260.22 187.08 263.334 194.507 266.975 201.665C276.048 219.503 287.82 238.595 301.523 253.253C308.742 260.975 316.826 267.764 324.965 274.484C303.402 266.156 292.826 252.367 278.35 235.493Q271.085 227.334 265 218.261C257.305 206.725 245.757 185.383 234.695 177.813C240.915 197.62 253.892 215.919 265.877 232.573C247.138 213.921 221.31 186.464 213.963 160.498Z" id="svg_48"/><path fill="white" transform="scale(0.04882809892296791) " d="M586.485 898.405L594.013 900.873C590.067 903.941 586.344 907.389 583.596 911.599C580.133 916.902 578.365 923.13 579.786 929.425C581.69 937.86 588.204 943.794 595.259 948.164C613.738 959.61 636.431 962.869 657.727 959.751C668.296 958.204 678.831 955.344 689.235 952.917L696.165 960.039C693.568 961.518 690.891 962.646 688.134 963.786C668.915 970.31 646.81 969.646 626.888 966.877C607.193 964.139 577.366 956.625 565.213 939.944C562.139 935.725 560.618 930.661 561.615 925.465C564.005 913.016 576.808 904.964 586.485 898.405Z" id="svg_49"/><path fill="white" transform="scale(0.04882809892296791) " d="M637.308 89.1225C637.713 89.2324 638.117 89.3514 638.513 89.4926C658.268 96.5413 672.731 108.22 689.393 120.182C693.964 123.463 701.476 127.113 703.792 132.358C703.671 133.552 703.628 133.986 702.862 134.968C701.32 136.945 698.715 138.26 696.595 139.539C687.242 145.177 678.08 149.255 667.119 150.313C670.226 139.821 674.292 129.851 678.338 119.701C670.584 126.251 665.045 135.206 661.447 144.588L659.528 150.484L652.964 150.511C654.716 141.036 658.092 132.028 661.214 122.944C662.33 119.696 665.499 112.87 665.599 109.731C665.632 108.683 665.563 108.612 664.833 107.825C664.349 107.996 664.163 108.026 663.71 108.389C656.496 114.162 646.602 141.372 645.163 150.654C642.089 150.86 638.977 150.8 635.896 150.827C642.443 143.102 646.694 130.647 648.967 120.817C649.346 119.177 650.124 116.419 649.173 114.913L648.234 115.136C646.23 116.973 645.076 119.324 643.754 121.665C643.203 110.319 641.531 99.716 637.308 89.1225Z" id="svg_50"/><path fill="white" transform="scale(0.04882809892296791) " d="M605.766 748.681C606.615 748.532 606.882 748.589 607.691 748.79C608.031 750.05 607.98 750.252 607.615 751.515C604.67 754.452 596.062 754.199 591.921 755.147C579.327 758.031 564.02 763.195 556.954 774.981C554.339 779.343 553.282 784.618 554.722 789.565C556.826 796.788 563.25 802.217 569.744 805.522C592.165 816.936 619.654 813.464 642.678 806.052L649.587 809.784C652.151 809.387 654.683 808.698 657.207 808.101L661.903 810.213C657.06 811.978 652.204 813.425 647.241 814.798Q641.72 815.995 636.145 816.904Q620.553 819.484 604.75 819.662C587.273 819.696 554.65 816.002 540.621 805.78C537.203 803.289 533.734 799.724 533.187 795.345C532.479 789.669 535.72 782.999 539.076 778.554C552.806 760.372 583.892 751.709 605.766 748.681Z" id="svg_51"/><path fill="white" transform="scale(0.04882809892296791) " d="M604.321 760.192L605.81 760.242C607.45 762.901 606.932 773 608.424 777.278C612.295 788.383 626.117 795.716 635.957 800.457C622.277 804.279 609.505 805.433 595.38 804.354C587.321 803.267 579.21 801.584 572.03 797.595C566.422 794.48 563.429 790.794 561.709 784.694C562.428 782.044 563.303 779.765 564.974 777.551C573.921 765.694 590.499 762.143 604.321 760.192Z" id="svg_52"/><path fill="white" transform="scale(0.04882809892296791) " d="M831.598 736.298C831.794 736.409 832.003 736.501 832.186 736.633C835.208 738.82 836.292 745.916 836.421 749.315C836.704 756.774 834.125 762.816 829.045 768.189C813.031 785.127 767.1 794.627 743.701 795.435C723.453 796.135 697.432 793.615 681.924 778.946C677.975 775.21 674.168 769.222 674.264 763.58C674.286 762.297 674.3 761.626 675.257 760.698L676.605 760.977C680.163 761.933 683.735 762.519 687.369 763.098C688.23 768.352 689.536 772.764 693.466 776.585C702.022 784.904 718.427 788.239 729.964 787.954C725.28 785.076 720.007 783.121 715.022 780.812C736.454 783.873 761.797 784.617 782.494 777.904C789.009 775.792 794.674 771.17 801.146 769.43C805.599 768.232 810.423 768.588 814.906 767.365C821.057 765.687 826.486 762.265 829.665 756.598C833.252 750.202 833.423 743.209 831.598 736.298Z" id="svg_53"/><path fill="white" transform="scale(0.04882809892296791) " d="M840.652 735.237C854.049 735.366 868.939 737.397 881.112 743.269C886.373 745.806 893.436 749.978 895.294 755.851C896.201 758.716 895.757 761.924 894.332 764.548C889.983 772.556 877.951 776.363 869.767 778.553C856.44 781.825 840.758 782.721 827.049 781.802C825.452 781.695 823.88 781.644 822.782 780.397C824.202 777.863 836.817 772.871 840.824 768.051C846.59 761.116 845.757 751.869 843.176 743.849C842.286 741.085 840.864 738.139 840.652 735.237Z" id="svg_54"/><path fill="white" transform="scale(0.04882809892296791) " d="M516.961 839.71C517.811 839.555 518.268 839.573 519.096 839.817C519.847 841.021 519.907 841.02 519.735 842.416C519.398 842.656 519.115 843.004 518.723 843.137C516.09 844.032 511.845 843.817 508.978 844.229C504.607 844.857 500.187 845.908 495.904 846.975C490.391 848.35 484.875 850.202 479.922 853.023C472.898 857.022 465.814 863.479 463.786 871.598C462.694 875.97 463.43 880.145 465.921 883.895C472.132 893.246 484.1 897.873 494.609 900.097C517.302 904.899 539.772 899.253 558.934 886.716C563.157 888.917 567.55 890.799 571.892 892.753C566.87 895.942 561.522 898.575 556.171 901.155C550.794 903.282 545.423 904.798 539.715 905.76C511.643 910.489 466.048 908.05 442.248 890.755C440.182 889.254 437.258 887.035 436.941 884.342C436.315 879.035 439.64 872.287 442.868 868.243C457.55 849.851 494.475 842.189 516.961 839.71Z" id="svg_55"/><path fill="white" transform="scale(0.04882809892296791) " d="M437.29 902.371C438.556 903.423 439.641 904.885 440.733 906.122Q439.631 907.686 438.697 909.356C436.014 914.105 435.459 919.479 437.088 924.692C439.916 933.737 447.587 940.347 455.843 944.406C476.745 954.681 505.8 955.823 528.385 951.439C537.649 949.641 546.559 946.591 555.469 943.547C557.665 946.342 559.676 949.193 561.628 952.162C558.458 954.038 555.17 955.523 551.808 957.021C530.422 965.559 506.922 969.354 484.032 965.932C465.417 963.149 437.149 954.237 425.894 938.248C422.537 933.479 422.027 928.432 422.991 922.809C424.639 913.201 429.638 907.75 437.29 902.371Z" id="svg_56"/><path fill="white" transform="scale(0.04882809892296791) " d="M654.86 757.109C659.399 758.064 663.92 758.121 668.498 758.732L668.808 759.484Q668.526 760.004 668.262 760.533C665.864 765.383 665.669 770.657 667.47 775.741C670.844 785.263 679.816 791.925 688.705 795.925C722.67 811.209 768.542 807.51 802.723 794.672C799.608 797.382 796.384 799.868 793.067 802.326Q787.665 805.68 781.919 808.405Q776.173 811.13 770.157 813.19C743.102 822.596 706.732 820.916 680.888 808.328C670.208 803.126 654.348 788.859 650.685 777.27C648.412 770.08 651.544 763.348 654.86 757.109Z" id="svg_57"/><path fill="white" transform="scale(0.04882809892296791) " d="M518.603 850.194C519.487 850.08 520.416 850.102 521.308 850.07C522.104 850.519 529.73 864.491 531.469 866.858C527.065 870.916 522.925 874.833 519.506 879.783C526.713 879.091 532.977 876.432 539.552 873.616C542.941 876.703 546.737 879.366 550.404 882.112C541.372 889.191 530.857 892.426 519.617 893.915C505.765 895.208 489.584 893.752 478 885.261C474.954 883.028 472.075 879.879 471.678 875.962C471.324 872.483 472.898 869.197 475.095 866.589C484.573 855.345 504.851 851.626 518.603 850.194Z" id="svg_58"/><path fill="white" transform="scale(0.04882809892296791) " d="M846.603 895.877C851.505 900.62 855.764 906.509 857.103 913.315C858.664 921.251 856.323 929.103 851.995 935.737C840.462 953.415 819.691 963.669 799.557 967.795C769.015 974.055 736.675 970.819 710.283 953.44C705.618 950.138 701.379 946.485 697.337 942.448C706.524 945.333 715.709 947.601 725 950.065C749.539 956.571 770.543 960.689 796.003 955.85C811.719 952.864 828.547 946.808 837.863 932.922C842.372 926.199 843.527 918.049 841.996 910.188C844.09 905.499 845.479 900.889 846.603 895.877Z" id="svg_59"/><path fill="white" transform="scale(0.04882809892296791) " d="M622.658 313.726C624.297 314.495 625.28 314.724 626.263 316.277C626.486 318.648 625.214 321.624 624.352 323.823C618.149 339.657 600.34 349.178 585.604 355.49C572.823 360.964 559.646 364.543 546.153 367.8Q541.039 369.007 535.896 370.085Q530.753 371.162 525.585 372.111Q520.417 373.06 515.226 373.878Q510.036 374.697 504.827 375.385Q499.617 376.073 494.392 376.63Q489.167 377.187 483.93 377.613Q478.693 378.038 473.446 378.333Q468.2 378.627 462.948 378.789Q457.696 378.952 452.441 378.982Q447.187 379.013 441.933 378.912Q436.68 378.81 431.43 378.577Q426.181 378.344 420.939 377.98Q415.697 377.615 410.466 377.119Q405.235 376.623 400.018 375.995Q394.801 375.368 389.602 374.61Q384.402 373.852 379.223 372.964C362.46 370.223 345.416 366.847 329.604 360.472C316.703 355.27 295.607 343.42 289.899 329.986C289.822 329.45 289.734 328.915 289.696 328.375C289.441 324.733 292.027 322.275 294.278 319.789C294.663 324.17 295.559 328.505 298.03 332.223C310.311 350.7 350.078 360.531 371.269 365.031C430.328 377.571 514.757 374.126 571.944 354.426C581.811 351.027 591.632 347.476 600.412 341.726C611.309 334.589 619.914 326.878 622.658 313.726Z" id="svg_60"/><path fill="white" transform="scale(0.04882809892296791) " d="M653.343 900.132C654.526 899.972 653.996 899.852 654.95 900.409C655.103 900.867 655.421 901.728 655.442 902.194C655.447 902.322 655.249 903.51 655.099 903.695C654.063 904.967 641.481 907.759 636.643 913.007C633.757 916.137 631.568 920.598 631.794 924.934C632.009 929.049 634.442 932.62 637.41 935.311C645.626 942.761 658.973 945.434 669.753 944.582C673.094 944.317 678.054 943.034 681.245 943.482C682.65 943.679 683.513 945.721 684.259 946.804C671.286 950.1 658.883 952.465 645.415 952.609C636.01 952.567 626.698 951.594 617.661 948.878C607.922 945.951 596.085 940.29 591.198 930.8C589.078 926.682 588.494 921.725 590.095 917.322C592.437 910.882 598.661 905.623 604.76 902.849C621.085 904.638 637.264 903.177 653.343 900.132Z" id="svg_61"/><path fill="white" transform="scale(0.04882809892296791) " d="M397.604 206.456C417.054 209.531 427.16 208.721 446.1 206.234C444.591 213.414 442.758 220.518 441.521 227.755C438.117 247.677 436.77 270.498 439.635 290.528L440.954 298.386C438.247 298.422 435.537 298.275 432.832 298.176C418.789 283.715 404.121 227.446 397.604 206.456Z" id="svg_62"/><path fill="white" transform="scale(0.04882809892296791) " d="M675.713 677.472C676.685 677.342 676.699 677.377 677.683 677.806C679.052 679.982 679.461 682.597 680.058 685.071Q677.862 685.843 675.708 686.726C666.194 690.677 653.228 697.206 649.212 707.483C647.643 711.499 647.766 715.79 649.6 719.694C653.723 728.468 664.388 733.304 673.013 736.406C696.508 744.856 734.412 744.553 757.079 733.781Q771.089 735.989 785.221 737.185C781.773 739.682 778.088 741.578 774.287 743.475Q773.813 743.691 773.336 743.901C740.917 758.237 698.566 759.194 665.584 746.241C654.694 741.964 641.461 734.996 636.709 723.579Q636.477 723.029 636.274 722.468Q636.07 721.907 635.896 721.337Q635.721 720.766 635.576 720.187Q635.431 719.609 635.316 719.023Q635.201 718.438 635.116 717.847Q635.031 717.257 634.976 716.662Q634.921 716.068 634.897 715.472Q634.873 714.876 634.879 714.279Q634.885 713.683 634.922 713.087Q634.959 712.492 635.026 711.899Q635.094 711.306 635.191 710.717Q635.289 710.128 635.416 709.545Q635.544 708.963 635.701 708.387Q635.858 707.811 636.045 707.245Q636.231 706.678 636.446 706.121Q636.662 705.565 636.905 705.02C643.409 690.381 661.671 682.619 675.713 677.472Z" id="svg_63"/><path fill="white" transform="scale(0.04882809892296791) " d="M781.077 822.441C784.079 822.695 787.329 823.818 790.304 824.441C794.701 825.361 798.941 825.777 803.414 826.035C803.264 827.897 803.151 829.805 802.813 831.643C801.564 838.426 795.97 843.996 790.451 847.729C772.853 859.631 744.564 861.051 724.307 857.116C712.544 854.831 700.847 850.699 693.914 840.386C692.767 838.016 692.082 835.678 691.403 833.151L693.443 827.301C715.822 832.102 732.912 834.754 755.822 829.896C757.476 831.834 775.131 846.946 776.176 847.383C777.431 847.908 779.464 847.573 780.557 846.808C781.471 846.168 781.779 845.244 781.611 844.165C780.83 839.123 769.178 830.761 765.14 828.065C770.698 826.664 775.846 824.788 781.077 822.441Z" id="svg_64"/><path fill="white" transform="scale(0.04882809892296791) " d="M676.435 820.306C679.861 821.299 683.136 823.388 686.682 824.476C684.303 828.529 682.981 833.058 683.398 837.781C683.967 844.237 687.801 849.66 692.759 853.604C708.961 866.495 737.741 868.956 757.549 866.674C774.04 864.773 794.73 859.902 805.532 846.106C810.378 839.916 811.787 833.981 810.796 826.324Q818.585 826.562 826.374 826.334C827.231 832.563 827.092 837.194 825.145 843.22Q823.839 845.81 822.133 848.155Q820.427 850.501 818.365 852.541C801.567 869.41 760.676 876.782 737.497 876.882C716.814 876.971 683.733 871.356 668.614 855.885C665.234 852.425 663.297 848.198 663.426 843.319C663.675 833.88 670.065 826.539 676.435 820.306Z" id="svg_65"/><path fill="white" transform="scale(0.04882809892296791) " d="M825.298 871.385C825.688 871.61 825.852 871.69 826.242 872.005C831.653 876.383 836.185 882.789 836.648 889.9C837.219 898.654 832.708 906.471 827.041 912.766C809.687 932.045 781.879 938.151 756.967 939.39C722.226 941.118 697.29 934.629 671.23 910.886C666.985 906.508 663.891 902.13 661.595 896.479L681.194 899.626C685.694 906.218 691.104 911.075 698.224 914.74C722.455 927.21 761.463 928.528 787.327 920.251C798.58 916.649 812.397 910.432 817.889 899.196C821.549 891.708 820.146 885.545 817.658 878.079C820.012 875.635 822.682 873.538 825.298 871.385Z" id="svg_66"/><path fill="white" transform="scale(0.04882809892296791) " d="M614.421 262.413C614.922 267.338 613.803 273.02 613.39 277.986C612.677 278.884 611.902 279.725 611.108 280.552C590.709 301.786 533.809 316.012 505.359 320.126C490.194 322.318 474.549 323.165 459.239 323.485C413.194 324.446 366.751 317.715 323.804 300.822C312.828 296.505 301.194 291.814 292.584 283.531C292.483 282.758 292.394 282.019 292.365 281.238C292.271 278.766 291.771 272.293 293.491 270.394C297.102 271.157 304.708 276.971 308.459 278.946Q316.968 283.346 325.83 286.984C365.628 303.198 410.249 310.383 453.107 310.585C500.719 310.809 579.654 296.834 614.421 262.413Z" id="svg_67"/><path fill="white" transform="scale(0.04882809892296791) " d="M340.462 85.753L340.767 86.2061C335.546 96.336 333.06 109.026 333.201 120.378C326.525 122.196 320.01 124.577 313.515 126.947C313.475 121.933 314.305 112.495 310.937 108.634L310.089 108.76C307.476 112.841 306.577 125.567 306.368 130.712C301.782 133.197 297.353 136.17 293.164 139.27C292.526 131.61 292.751 121.176 289.582 114.251C289.004 112.989 288.612 112.555 287.35 112.026L286.718 112.648C284.602 123.578 285.012 134.953 285.026 146.042C281.96 149.478 279.188 153.118 276.391 156.772Q276.04 154.055 275.56 151.357C274.517 145.149 272.206 124.648 267.756 121.479C262.031 124.517 271.657 165.309 268.773 169.902C268.628 169.848 268.474 169.815 268.338 169.742C265.218 168.05 257.557 148.618 255.631 144.322C253.902 140.594 252.25 136.692 249.846 133.341C248.929 132.064 248.122 131.007 246.535 130.757C246.383 131.016 246.186 131.253 246.079 131.533C243.931 137.155 255.451 161.315 257.837 166.867C251.577 162.606 245.652 158.523 238.678 155.481C236.447 151.458 231.533 142.164 227.48 140.242C226.797 139.919 226.94 140.067 226.143 140.387C226.053 140.6 225.947 140.807 225.874 141.026C224.503 145.125 227.614 150.279 229.226 153.914C223.518 153.01 215.778 152.611 211.159 148.879C209.411 147.467 208.072 145.611 207.976 143.297C207.816 139.476 210.982 135.743 213.426 133.08C230.857 114.084 282.095 94.4333 307.25 89.1652C318.151 86.882 329.365 86.3022 340.462 85.753Z" id="svg_68"/><path fill="white" transform="scale(0.04882809892296791) " d="M506.806 69.7Q508.61 69.711 510.411 69.7915Q512.213 69.8719 514.01 70.0217Q515.808 70.1715 517.598 70.3904Q519.388 70.6094 521.169 70.8971Q522.949 71.1848 524.718 71.5409Q526.486 71.897 528.239 72.3209Q529.992 72.7448 531.727 73.236Q533.463 73.7271 535.178 74.2847Q536.893 74.8423 538.586 75.4656Q540.278 76.0889 541.945 76.7769Q543.613 77.4649 545.252 78.2166Q546.892 78.9683 548.501 79.7826Q550.11 80.5969 551.687 81.4726Q553.264 82.3483 554.806 83.2841Q556.347 84.2199 557.852 85.2143Q559.357 86.2088 560.822 87.2605C583.238 103.156 594.168 124.77 598.676 151.301L590.204 151.645C579.857 123.978 560.616 102.417 533.563 90.0689C530.687 88.7561 526.128 86.4471 523.019 87.6206C522.297 88.5921 522.264 89.0946 522.251 90.2917C525.53 93.455 531.458 95.6839 535.427 98.0816C540.636 101.228 545.558 104.832 550.479 108.405C564.786 118.991 578.716 134.747 583.991 151.981C578.425 152.645 573.242 153.967 567.879 155.593C563.524 151.729 553.603 141.957 547.4 142.607C546.338 142.719 546.478 142.9 545.862 143.673C546.708 150.231 558.859 152.978 560.128 158.089L559.507 158.937C555.506 160.525 536.145 155.767 531.582 154C531.522 146.921 531.197 140.032 529.491 133.122C524.39 112.467 510.542 97.194 490.007 91.1441C486.642 90.1526 479.348 89.9432 476.809 88.41C477.254 85.1088 478.376 81.9255 479.343 78.7478C487.294 72.638 497.022 70.6176 506.806 69.7Z" id="svg_69"/><path transform="scale(0.04882809892296791) " d="M506.369 73.2131C519.733 72.1215 534.643 77.4167 546.292 83.5319Q547.781 84.3026 549.241 85.1263Q550.701 85.95 552.131 86.8257Q553.56 87.7013 554.957 88.6278Q556.355 89.5543 557.718 90.5304Q559.08 91.5065 560.407 92.531Q561.734 93.5555 563.024 94.627Q564.313 95.6985 565.563 96.8157Q566.813 97.9328 568.022 99.0942Q569.231 100.256 570.397 101.46Q571.564 102.664 572.686 103.909Q573.809 105.154 574.886 106.439Q575.963 107.724 576.993 109.047Q578.023 110.369 579.004 111.728Q579.986 113.087 580.919 114.48Q581.851 115.874 582.733 117.299Q583.614 118.725 584.444 120.182C586.033 122.972 587.965 126.105 588.828 129.225C589.078 130.129 589.258 130.423 588.768 131.258C585.184 129.307 576.385 116.797 572.847 112.769C563.627 102.845 552.596 94.0316 540.522 87.8503C526.51 80.6764 506.689 75.4143 491.478 81.8594C487.93 83.3629 482.634 88.0525 480.719 88.6711C479.669 88.0615 479.805 88.0869 479.282 87.1133C479.401 85.9357 479.685 85.2135 480.46 84.299C486.634 77.0204 497.256 73.9699 506.369 73.2131Z" id="svg_70"/><path fill="white" transform="scale(0.04882809892296791) " d="M549.299 40.1967C555.866 39.3103 563.231 39.9422 569.731 41.1443C590.859 45.0511 608.565 57.783 620.49 75.4602C632.176 92.7827 637.737 112.76 633.599 133.518C632.575 138.654 629.174 147.353 624.713 150.351C623.536 150.487 623.513 150.576 622.547 149.919C622.05 145.564 626.836 139.985 626.804 134.671C626.786 131.668 626.506 127.165 624.318 124.952C621.384 125.322 619.308 145.184 613.138 150.326C611.571 150.444 610.231 150.512 608.683 150.214C608.705 149.16 608.976 148.366 609.26 147.373C610.521 142.98 613.636 131.442 611.275 127.155C610.247 126.613 609.773 126.321 608.591 126.885C607.181 127.558 607.074 128.784 606.641 130.116C605.96 132.306 605.206 134.479 604.484 136.656C600.792 123.906 595.697 112.055 587.778 101.315C570.969 78.5184 546.279 66.4396 518.745 62.2616C523.334 58.451 528.798 55.8238 534.437 53.9008C537.308 52.9219 540.366 52.621 542.783 50.6538C543.243 49.4066 543.249 49.43 542.798 48.1808C541.762 47.1484 541.092 46.5387 539.551 46.3473C534.419 45.7098 522.432 52.7173 518.179 55.6127C515.689 57.3084 515.47 60.1408 513.456 61.6657C511.958 62.7991 507.575 62.0016 505.724 61.885C506.536 60.5049 507.468 59.2157 508.482 57.9766C517.44 47.036 535.79 41.5293 549.299 40.1967Z" id="svg_71"/><path transform="scale(0.04882809892296791) " d="M555.336 44.5499C570.83 43.7778 586.994 50.2891 599.332 59.2957C612.819 69.1414 622.01 80.1793 627.829 95.835C628.916 98.7597 630.429 102.1 630.789 105.218C630.981 106.891 630.858 107.368 629.855 108.705C626.444 105.803 622.863 92.7958 620.374 88.035C615.722 79.1377 609.053 71.7585 601.162 65.6108C591.198 57.8481 577.956 51.6657 565.423 49.7269C562.082 49.2101 556.505 49.9802 554.043 47.4517C554.109 46.0575 554.554 45.6773 555.336 44.5499Z" id="svg_72"/><path transform="scale(0.04882809892296791) " d="M569.355 55.0462C583.305 56.2761 596.632 63.3112 606.417 73.1891C614.5 81.3496 619.231 90.3006 622.782 101.123C623.567 103.516 624.748 106.344 624.65 108.882C624.597 110.272 623.924 110.548 622.979 111.435C620.783 110.756 620.355 108.719 619.535 106.803C611.445 87.9103 602.951 72.7548 583.059 64.3309C578.799 62.527 572.952 62.5863 569.175 60.2223C567.93 59.4427 567.931 59.1571 567.609 57.8199C568.009 56.5248 568.376 55.9808 569.355 55.0462Z" id="svg_73"/><path fill="white" transform="scale(0.04882809892296791) " d="M595.13 377.403C599.401 378.554 604.855 383.388 608.492 386.05Q617.786 392.788 626.734 399.978Q635.684 407.167 644.266 414.791Q652.849 422.414 661.044 430.452Q669.239 438.49 677.027 446.924C718.783 491.525 752.807 550.8 772.589 608.476C774.668 614.537 779.97 627.003 779.78 632.857C762.929 630.264 747.032 628.488 729.936 630.396C730.035 625.695 729.762 620.944 729.485 616.251C728.826 605.058 727.005 593.85 724.883 582.85C710.91 510.424 669.299 447.591 617.098 396.658C610.114 389.844 602.42 383.873 595.13 377.403Z" id="svg_74"/><path fill="white" transform="scale(0.04882809892296791) " d="M737.828 639.716C763.011 638.261 793.088 644.614 815.292 656.915C826.425 663.083 838.197 672.344 841.866 685.032C840.829 687.635 839.466 689.92 837.558 691.989C827.354 703.051 808.137 705.122 793.998 705.717C772.489 706.897 750.046 701.651 730.46 692.868C714.46 685.692 696.89 675.659 690.33 658.399Q691.844 656.198 693.634 654.215C703.811 642.817 723.525 640.48 737.828 639.716Z" id="svg_75"/><path transform="scale(0.04882809892296791) " d="M755.342 643.706C771.089 643.192 787.685 648.473 800.392 657.742C806.605 662.274 812 668.638 813.067 676.514C813.655 680.854 812.565 684.954 809.843 688.386C802.999 697.015 791.078 699.207 780.83 700.481C764.357 700.834 746.947 696.968 733.767 686.553C728.054 682.039 722.569 675.533 721.837 668.03C721.392 663.466 722.93 659.127 725.847 655.635C732.924 647.161 744.871 644.51 755.342 643.706Z" id="svg_76"/><path fill="white" transform="scale(0.04882809892296791) " d="M757.145 651.216C769.267 651.469 780.595 654.251 791.103 660.425C797.971 664.46 803.652 669.055 805.701 677.077C805 680.19 804.107 682.725 801.853 685.088C796.078 691.144 786.399 692.186 778.484 692.487C764.913 692.348 750.629 688.643 739.596 680.465C735.083 677.12 730.248 672.292 729.525 666.479C729.191 663.792 729.967 661.291 731.748 659.254C737.399 652.787 749.15 651.621 757.145 651.216Z" id="svg_77"/><path fill="white" transform="scale(0.04882809892296791) " d="M553.529 173.93L554.152 174L554.405 174.679C541.498 203.69 528.389 232.975 513.347 260.94C509.088 268.857 504.773 276.805 500.12 284.496C497.685 288.52 494.949 292.347 492.564 296.402C485.693 297.73 459.925 300.95 454.354 298.099C453.529 297.676 453.43 296.698 453.109 295.882C445.099 278.005 446.758 224.935 450.615 205.575C466.216 203.881 482.048 202.329 497.246 198.232C516.856 192.944 535.514 183.142 553.529 173.93Z" id="svg_78"/><path fill="white" transform="scale(0.04882809892296791) " d="M360.178 125.711C378.019 124.462 398.723 129.376 413.397 139.781C433.227 153.843 441.655 171.05 445.558 194.311C443.264 194.892 440.936 195.371 438.627 195.893C438.103 187.716 435.876 175.205 430.361 168.856C428.965 168.376 428.6 168.511 427.129 168.802C426.843 169.049 426.389 169.185 426.272 169.545C425.454 172.052 433.39 190.904 432.402 196.076C432.276 196.741 432.194 196.546 431.466 196.948L430.651 196.158C430.258 193.495 429.702 190.925 428.933 188.347C427.056 182.055 424.546 172.294 418.357 168.947C416.88 168.894 416.837 168.939 415.618 169.785C415.163 170.722 414.931 171.005 415.17 172.07C415.905 175.348 418.079 178.923 419.364 182.087C421.43 187.177 422.74 192.275 423.898 197.636C414.63 197.631 405.835 195.554 396.658 194.845C385.946 194.018 375.153 193.912 364.425 193.224Q339.253 191.573 314.23 188.382C303.791 187.098 292.127 186.597 282.605 181.851C285.736 172.264 292.149 165.603 299.196 158.663Q300.673 157.414 302.187 156.209C326.368 137.033 369.447 129.095 397.75 142.999C402.515 145.34 413.019 154.398 415.427 154.685C416.73 153.986 416.71 153.846 417.335 152.485C417.298 151.534 417.22 150.926 416.769 150.063C413.085 143 393.594 135.053 386.177 132.886C362.164 125.873 331.187 132.445 309.689 144.397C295.194 152.456 282.87 163.592 278.166 179.87C276.214 178.703 274.397 177.265 272.56 175.924C275.925 169.294 280.066 162.793 284.988 157.206C303.889 135.753 332.605 127.496 360.178 125.711Z" id="svg_79"/><path transform="scale(0.04882809892296791) " d="M360.519 138.704C367.95 137.974 376.812 138.988 383.834 141.592C386.305 142.508 388.909 143.961 389.721 146.703C390.1 147.985 390.034 148.28 389.436 149.363C386.262 150.984 376.617 146.617 372.626 145.998C351.061 142.653 326.455 152.758 309.435 165.355Q304.532 169.081 300.043 173.295Q295.553 177.51 291.525 182.167C292.136 176.454 293.426 172.341 297.153 167.778C311.25 150.524 339.025 140.851 360.519 138.704Z" id="svg_80"/><path fill="white" transform="scale(0.04882809892296791) " d="M263.399 183.863C269.07 186.829 273.94 190.546 280.082 192.836C297.928 199.491 318.458 200.916 337.297 202.591Q365.531 205.103 393.845 206.44C394.716 236.818 404.908 271.506 421.19 297.127C405.879 295.039 390.741 292.606 375.706 288.966C365.945 286.603 341.182 280.779 333.223 275.611C317.306 265.276 274.374 201.877 263.399 183.863Z" id="svg_81"/><path fill="white" transform="scale(0.04882809892296791) " d="M434.241 33.6897C436.73 33.3061 439.432 33.3621 441.96 33.3117C459.613 32.9597 478.594 38.6987 491.425 51.215C493.852 53.5818 496.969 57.2907 496.803 60.8892C496.768 61.6554 496.447 62.1102 495.739 62.4707C494.345 63.1805 492.275 63.4758 490.754 63.9415C485.203 65.6407 478.798 67.8419 474.494 71.8987C469.332 76.7644 469.678 82.8668 469.53 89.3572C462.274 89.9772 454.909 92.1158 448.269 95.0642C431.587 102.472 422.007 113.506 415.469 130.226C403.732 124.499 393.081 120.404 380.127 118.168C372.3 116.807 363.971 117.018 356.04 117.013C357.769 107.483 360.994 104.782 364.118 96.7162C365.005 94.4277 365.568 92.6672 364.575 90.3828C364.384 90.3523 364.196 90.3002 364.003 90.2913C362.248 90.2105 360.595 91.5054 359.375 92.6377C352.328 99.1748 349.748 108.602 349.503 117.846L342.477 118.643C342.319 101.947 349.234 84.947 359.541 72.043C377.324 49.7784 406.405 36.7653 434.241 33.6897Z" id="svg_82"/><path transform="scale(0.04882809892296791) " d="M431.792 48.6987C437.709 47.8695 446.219 47.7059 451.972 49.2637C453.77 49.7505 454.467 49.9174 455.42 51.4917C455.478 52.278 455.556 52.9705 455.279 53.7291C455.194 53.9589 454.774 54.9098 454.708 54.9952C453.167 56.9987 441.824 55.515 438.924 55.6983C423.723 56.6592 409.39 60.3015 395.501 66.5247C390.816 68.9707 386.811 73.4592 381.694 74.8322C380.266 74.5062 380.215 74.3522 379.233 73.2394C379.006 71.6066 379.115 70.714 380.171 69.3909C386.136 61.9163 405.953 54.2381 415.063 51.7035C420.579 50.1689 426.104 49.2821 431.792 48.6987Z" id="svg_83"/><path transform="scale(0.04882809892296791) " d="M437.306 37.7159C446.256 37.4158 456.092 38.8313 464.578 41.6833C469.29 43.2669 477.561 46.7242 479.838 51.2583C479.794 52.6707 479.689 52.6552 478.743 53.73C471.584 51.8413 465.377 47.1987 458.029 45.5601C431.716 39.6921 405.052 48.2201 382.786 62.2078C376.182 66.8685 369.668 71.5946 364.261 77.6621C361.672 80.5674 359.43 84.4352 356.626 87.0373C355.909 87.702 355.489 87.5663 354.623 87.4564L354.447 86.4957C356.316 81.6925 361.233 76.1618 364.637 72.3209C383.71 50.7931 408.823 39.3874 437.306 37.7159Z" id="svg_84"/><path fill="white" transform="scale(0.04882809892296791) " d="M700.895 150.991L701.225 151.284C701.185 151.621 701.191 151.966 701.104 152.294C699.707 157.535 694.641 163.696 691.582 168.113C672.419 195.786 646.998 225.997 619.566 245.731C630.685 228.517 640.477 210.835 649.469 192.409C652.365 186.475 655.923 180.153 657.513 173.725C658.06 171.516 658.642 168.604 657.422 166.588C657.142 166.657 656.834 166.654 656.581 166.794C655.953 167.144 645.449 186.865 643.915 189.452C631.421 210.53 617.936 236.627 600.711 254.119C594.447 260.48 586.668 266.305 579.24 271.264C602.03 245.854 620.891 214.278 633.339 182.549C623.872 192.06 617.204 204.878 609.581 215.891C597.573 233.238 584.758 250.436 570.75 266.21C566.706 270.817 562.096 276.214 557 279.643C548.981 285.039 533.649 287.913 524.107 290.466C529.958 282.449 536.248 274.486 541.111 265.816C555.018 241.021 564.867 200.517 570.121 172.687C563.662 183.744 559.852 197.018 555.241 208.926C549.326 224.2 543.902 240.386 536.4 254.937C529.433 268.449 520.457 280.553 511.437 292.732C509.43 293.163 507.39 293.457 505.364 293.792C515.861 274.885 526.788 256.374 536.152 236.842C546.474 215.314 554.522 193.1 561.838 170.409C583.112 157.658 625.181 161.285 649.758 161.427C658.389 161.477 666.992 161.801 675.531 160.271C684.598 158.647 692.719 155.079 700.895 150.991Z" id="svg_85"/><path fill="white" transform="scale(0.04882809892296791) " d="M632.134 329.689C643.995 336.609 656.418 342.345 667.993 349.795C708.905 376.126 746.999 411.641 777.247 449.666C789.059 464.515 799.89 480.325 810.416 496.104C853.337 560.447 881.281 642.048 865.739 719.636C861.603 719.423 857.435 718.807 853.325 718.309C855.594 712.362 859.359 701.679 857.812 695.259C857.583 694.308 857.786 694.636 856.935 694.143C853.393 696.638 848.937 713.084 847.783 717.846L842.41 717.428C851.151 702.716 852.252 695.281 850.17 678.678C855.202 669.752 858.237 655.063 856.158 644.847C855.93 643.726 855.996 643.177 855.023 642.549C853.725 644.179 853.676 647.796 853.091 649.897C851.04 657.269 848.781 664.516 846.077 671.675C843.738 668.083 841.011 664.997 838.083 661.879C843.141 655.841 846.357 648.605 848.567 641.086C851.46 631.237 853.395 618.399 848.278 609.003C845.509 618.562 843.714 628.681 841.342 638.38C839.614 645.427 837.252 652.04 834.435 658.708C818.72 647.025 807.487 642.349 789.219 635.855C782.122 597.791 770.151 568.497 751.862 534.529Q749.37 529.799 746.766 525.13Q744.162 520.46 741.448 515.854Q738.734 511.248 735.911 506.708Q733.087 502.168 730.157 497.696Q727.227 493.224 724.191 488.824Q721.155 484.423 718.015 480.096Q714.875 475.768 711.633 471.517Q708.391 467.266 705.049 463.093Q701.707 458.92 698.266 454.828Q694.826 450.736 691.289 446.726Q687.752 442.717 684.121 438.793Q680.489 434.869 676.766 431.033Q673.042 427.197 669.228 423.45Q665.414 419.704 661.512 416.049Q657.61 412.394 653.622 408.833Q649.635 405.272 645.563 401.807Q629.962 388.218 613.077 376.262C607.061 372.042 600.338 368.457 594.691 363.782C594.53 363.65 594.373 363.513 594.214 363.378C604.864 357.041 614.495 351.504 623.696 343.017C663.667 360.438 695.449 386.595 725.117 418.024C714.721 389.414 677.8 361.365 652.696 345.133C650.455 343.684 630.843 332.863 630.671 332.372L632.134 329.689Z" id="svg_86"/><path transform="scale(0.04882809892296791) " d="M834.521 559.306C836.553 560.931 837.968 565.007 838.807 567.487C847.743 593.907 842.567 620.09 830.435 644.473C829.66 645.893 828.978 647.069 827.837 648.224L826.973 648.185C826.689 647.631 826.609 647.552 826.475 646.845C825.643 642.441 832.441 613.436 833.494 605.317C835.507 589.793 834.687 574.883 834.521 559.306Z" id="svg_87"/><path transform="scale(0.04882809892296791) " d="M776.81 476.36C777.026 476.429 777.244 476.492 777.458 476.565C780.354 477.555 783.601 480.313 785.969 482.245Q788.35 484.202 790.615 486.292Q792.881 488.382 795.023 490.597Q797.165 492.813 799.177 495.148Q801.189 497.483 803.064 499.929Q804.939 502.375 806.671 504.924Q808.403 507.473 809.987 510.118Q811.57 512.762 813 515.492Q814.43 518.222 815.701 521.03C827.636 546.748 835.297 580.472 825.323 607.791C824.343 609.868 823.199 611.883 822.12 613.912C824.696 576.729 818.263 538.901 798.858 506.725C792.388 495.997 784.604 486.145 776.81 476.36Z" id="svg_88"/><path fill="white" transform="scale(0.04882809892296791) " d="M283.937 341.445C286.627 343.523 289.094 346.343 291.547 348.723C284.235 352.103 277.223 357.305 270.52 361.758C208.216 403.144 141.718 488.056 109.6 555.828C91.975 593.019 78.2591 634.607 77.1115 676.045C76.8763 684.536 76.7848 694.195 79.664 702.278Q80.3709 698.585 81.5274 695.008C83.8767 687.965 87.7762 681.592 91.9365 675.49C105.513 655.576 120.185 644.814 141.535 634.311C138.31 634.553 135.158 634.973 132 635.682C108.946 640.858 95.4921 655.261 83.2975 674.392C84.5463 668.302 85.4469 662.147 86.693 656.059C89.6882 641.427 111.21 621.785 123.076 613.908C128.524 610.293 134.666 607.901 140.079 604.278C140.24 604.171 140.398 604.06 140.557 603.951C139.208 603.951 137.847 603.958 136.502 604.077C118.6 605.66 102.524 618.556 91.2798 631.666C93.0704 625.93 94.6378 619.897 97.2606 614.479C103.705 601.167 117.043 590.862 129.662 583.837C133.388 581.762 139.635 579.976 142.484 576.904L142.426 576.055C141.823 575.841 141.777 575.791 141.035 575.725C139.05 575.547 136.454 576.274 134.51 576.695C122.877 579.214 114.764 584.363 105.362 591.557L105.755 590.783C108.556 585.368 110.007 579.376 112.853 574.048C118.962 562.609 140.566 557.313 151.972 553.699C140.759 553.062 131.771 553.115 120.947 556.545C124.101 551.65 126.817 546.333 129.683 541.253C139.621 536.993 148.321 533.822 158.565 530.364L158.702 529.535C154.4 527.161 140.764 529.259 135.846 530.239Q140.588 521.347 146.084 512.9C155.087 509.567 164.034 506.84 173.249 504.169C166.067 502.669 159.621 502.178 152.318 502.997C157.944 494.7 163.424 486.258 169.36 478.179C206.102 428.173 247.07 388.877 299.565 355.596C311.969 363.663 324.104 369.228 337.896 374.425C328.956 383.222 319.754 391.614 311.187 400.8C268.469 446.606 234.486 500.444 215.367 560.286C192.931 630.509 190.16 711.224 224.728 778.099Q226.295 781.196 227.991 784.224Q229.687 787.253 231.509 790.207Q233.332 793.161 235.277 796.036Q237.222 798.91 239.287 801.7Q241.351 804.49 243.531 807.191Q245.712 809.892 248.004 812.498Q250.296 815.104 252.696 817.612Q255.096 820.119 257.6 822.523C259.501 824.318 262.455 827.622 265.074 828.092C266.479 828.345 266.784 828.132 267.937 827.447C268.434 825.74 268.164 824.565 267.294 823.015C264.141 817.399 258.913 812.06 255.075 806.8C247.708 796.705 240.899 785.83 235.252 774.675C201.038 707.098 204.347 627.772 227.498 557.253C242.533 511.454 265.933 470.927 295.93 433.326C304.704 422.327 313.761 411.452 323.7 401.478C329.683 395.475 343.387 382.414 350.611 379.072C352.14 378.365 352.995 378.391 354.565 378.919C354.768 380.018 351.881 382.643 351.061 383.512C339.933 395.314 328.654 406.678 318.432 419.327C288.16 456.787 259.804 507.889 243.375 553.057C231.637 585.326 226.012 613.56 225.709 647.878C225.673 651.956 224.663 660.167 226.595 663.679C227.024 664.459 227.198 664.331 227.983 664.593L228.85 664.078C229.998 661.537 229.556 658.02 229.78 655.247C234.486 597.022 255.671 542.814 283.309 491.933C297.344 466.094 312.631 441.65 331.696 419.164Q340.461 408.998 350.026 399.58Q359.59 390.162 369.889 381.554C389.887 385.211 409.928 388.111 430.301 388.561C393.918 444.002 375.142 516.444 368.895 581.835Q368.06 589.859 367.614 597.913C365.571 639.085 367.795 682.712 382.695 721.56C385.172 728.019 388.736 737.119 393.659 742.106C394.466 742.924 394.667 742.791 395.753 742.758L396.41 741.932C396.89 736.045 390.881 723.558 389.095 717.227C365.685 634.271 380.673 523.931 412.45 445.159C420.338 425.604 430.569 407.491 440.825 389.121C458.306 388.924 475.944 388.606 493.291 386.315C499.57 396.343 504.623 407.318 509.525 418.067Q515.475 431.125 520.743 444.472Q526.011 457.82 530.583 471.421Q535.155 485.023 539.019 498.842Q542.882 512.662 546.028 526.662C547.792 534.173 557.407 589.7 558.37 591.216C559.517 591.815 559.47 591.862 560.716 591.548C561.14 591.062 561.431 590.618 561.607 589.988C563.155 584.428 560.942 569.509 560.368 563.097C555.73 511.298 540.434 456.802 517.673 410.022C513.762 401.985 509.142 394.471 504.894 386.634C515.664 398.289 526.432 409.415 535.342 422.623C576.053 482.969 592.16 571.201 591.052 642.824Q590.717 662.434 588.588 681.931C588.052 686.815 584.545 707.689 584.981 711.024C585.163 712.411 585.531 712.625 586.514 713.492L587.689 713.415C593.287 708.493 597.437 672.827 598.249 663.274C605.267 580.687 588.589 486.514 543.123 416.124C535.693 404.622 526.949 394.227 518.136 383.782C535.424 381.578 552.821 376.711 569.389 371.405C582.489 381.053 595.035 390.665 606.996 401.734Q609.451 403.968 611.866 406.245Q614.28 408.523 616.653 410.844Q619.026 413.165 621.356 415.529Q623.686 417.893 625.973 420.299Q628.26 422.705 630.503 425.151Q632.746 427.598 634.944 430.085Q637.142 432.573 639.295 435.099Q641.447 437.626 643.554 440.191Q645.66 442.756 647.719 445.359Q649.779 447.962 651.791 450.603Q653.803 453.243 655.767 455.919Q657.73 458.595 659.645 461.306Q661.56 464.017 663.425 466.763Q665.291 469.509 667.106 472.288Q668.921 475.067 670.685 477.878Q672.45 480.69 674.163 483.533Q675.876 486.376 677.537 489.249Q679.198 492.123 680.807 495.026Q682.416 497.93 683.972 500.862Q685.528 503.794 687.03 506.753Q688.533 509.713 689.981 512.7Q691.43 515.686 692.824 518.699Q694.218 521.711 695.557 524.748Q696.896 527.785 698.18 530.846Q699.464 533.907 700.692 536.991Q701.92 540.075 703.091 543.18Q704.263 546.286 705.379 549.412Q706.494 552.538 707.552 555.685Q708.611 558.831 709.612 561.995Q710.613 565.16 711.557 568.342Q712.5 571.525 713.386 574.724Q714.272 577.923 715.099 581.137C719.239 597.834 722.433 614.509 723.089 631.733C710.958 633.7 698.138 636.557 688.663 644.906C681.183 651.497 678.59 659.046 677.951 668.849C661.947 672.613 643.539 679.416 633.405 693.185C627.155 701.678 623.809 713.721 625.327 724.193C619.822 729.476 614.54 734.543 610.903 741.338C603.902 742.736 596.741 743.521 589.707 744.793C575.427 747.377 560.804 751.898 548.039 758.913C538.142 764.351 529.028 772.373 525.83 783.576C522.978 793.569 525.166 802.074 530.157 810.888C523.678 817.576 520.923 824.199 519.168 833.231C498.331 834.569 477.907 838.617 458.599 846.759C447.052 851.628 434.162 858.99 429.404 871.325C425.878 880.467 428.14 889.202 432.034 897.713C426.799 901.364 422.265 905.176 418.112 910.034Q394.439 909.097 370.94 906.08C335.664 901.321 301.334 889.422 268.102 877.051C208.396 854.826 132.714 823.457 93.2531 771.308C67.9618 737.884 60.5147 697.379 66.0893 656.502C68.9933 635.209 75.3455 614.203 82.2256 593.906C107.178 520.29 152.609 456.742 209.098 403.873C218.818 394.776 229.311 386.337 239.458 377.714C254.079 365.287 268.641 353.042 283.937 341.445Z" id="svg_89"/><path transform="scale(0.04882809892296791) " d="M212.661 814.373C215.207 818.093 214.919 824.98 216.381 829.429C218.025 834.433 223.328 842.218 223.842 846.842C223.862 847.025 223.874 847.21 223.872 847.394C223.868 847.645 223.839 847.894 223.823 848.144C219.692 846.985 216.859 844.33 214.773 840.586C210.678 833.234 210.404 822.358 212.661 814.373Z" id="svg_90"/><path transform="scale(0.04882809892296791) " d="M201.151 800.752C201.388 801.018 201.707 801.229 201.861 801.55C202.531 802.95 203.167 818.312 203.773 821.465C204.838 827.008 208.561 831.967 210.358 837.249C209.118 837.687 208.417 837.441 207.164 837.218C202.494 833.02 198.448 827.398 197.204 821.167C195.873 814.497 197.282 806.361 201.151 800.752Z" id="svg_91"/><path transform="scale(0.04882809892296791) " d="M189.896 780.402C190.258 780.754 190.387 780.803 190.453 781.488C190.541 782.415 188.041 786.998 187.586 788.273C186.628 790.956 186.076 793.811 185.69 796.627C184.692 803.906 185.036 810.972 187.382 817.972C188.385 820.965 189.796 823.953 190.5 827.018L189.942 827.718C188.445 827.852 187.297 826.91 186.065 826.171C184.934 825.18 183.903 824.142 182.952 822.973C178.394 817.363 176.938 809.843 177.802 802.781C178.818 794.479 183.22 785.545 189.896 780.402Z" id="svg_92"/><path transform="scale(0.04882809892296791) " d="M224.014 819.164C226.099 820.774 227.767 831.257 229.397 834.789Q230.183 836.461 231.12 838.052Q232.057 839.644 233.138 841.142Q234.218 842.64 235.433 844.031Q236.647 845.423 237.985 846.696C242.413 850.941 249.102 854.505 254.602 857.175C257.181 858.428 259.97 859.323 262.359 860.919L262.374 862.077Q260.414 861.983 258.468 861.723C247.902 860.325 234.874 854.953 228.389 846.127C222.628 838.288 222.591 828.359 224.014 819.164Z" id="svg_93"/><path transform="scale(0.04882809892296791) " d="M160.818 755.871L161.355 756.562C161.218 758.659 154.195 768.355 153.068 772.572C149.835 784.663 154.072 795.997 159.986 806.424C158.207 805.8 156.575 805.001 154.892 804.156C152.421 802.325 150.268 800.207 148.508 797.68Q148.141 797.147 147.801 796.597Q147.461 796.046 147.148 795.479Q146.836 794.912 146.553 794.331Q146.27 793.749 146.016 793.154Q145.762 792.558 145.539 791.951Q145.315 791.344 145.122 790.726Q144.929 790.108 144.768 789.482Q144.606 788.855 144.476 788.221Q144.346 787.587 144.248 786.948Q144.15 786.308 144.084 785.664Q144.018 785.021 143.984 784.374Q143.951 783.728 143.95 783.081Q143.949 782.434 143.98 781.788Q144.011 781.141 144.075 780.497Q144.138 779.853 144.234 779.213Q144.33 778.573 144.458 777.939C146.342 768.943 153.4 760.921 160.818 755.871Z" id="svg_94"/><path transform="scale(0.04882809892296791) " d="M173.351 766.411C173.819 766.891 173.941 767.301 173.876 768.012C173.754 769.323 172.769 771.272 172.359 772.573C170.678 777.911 169.17 782.884 168.848 788.515C168.49 794.764 169.193 802.26 171.837 808.002C173.12 810.789 176.838 815.313 177.037 818.159L176.278 818.703C174.734 818.641 173.818 818.089 172.519 817.35C171.02 816.223 169.522 814.87 168.24 813.494C163.303 808.194 160.892 800.881 161.154 793.697C161.506 784.034 166.26 773.017 173.351 766.411Z" id="svg_95"/><path transform="scale(0.04882809892296791) " d="M159.239 736.939L159.93 737.236C159.484 739.467 149.84 747.055 147.646 749.522C144.159 753.442 141.048 757.825 138.769 762.559C136.465 767.344 135.039 772.369 134.943 777.698C134.877 781.344 137.312 787.501 135.826 790.564C134.405 790.492 134.035 789.817 132.994 788.922C131.784 787.088 130.566 785.104 129.69 783.085C126.807 776.439 127.372 769.702 129.99 763.124C135.424 749.471 146.342 742.56 159.239 736.939Z" id="svg_96"/><path transform="scale(0.04882809892296791) " d="M152.951 713.617L153.066 713.753C153.273 714.878 153.134 714.781 152.338 715.54C150.569 717.228 148.252 718.513 146.319 720.031Q142.676 722.936 139.337 726.186Q135.999 729.437 132.999 733.002C124.632 743.077 120.249 753.386 118.208 766.266C117.693 769.523 117.967 772.973 117.097 776.137L116.375 776.351L115.547 775.415C114.775 773.407 114.09 771.326 113.578 769.234C111.035 758.855 113.395 747.862 118.89 738.829C126.258 726.719 139.184 717.015 152.951 713.617Z" id="svg_97"/><path transform="scale(0.04882809892296791) " d="M144.299 688.083L144.465 688.205C144.774 689.084 144.871 688.716 144.169 689.361C141.651 691.674 138.256 693.457 135.474 695.491C131.729 698.229 128.241 701.58 124.967 704.855Q123.045 706.76 121.23 708.768Q119.416 710.776 117.713 712.88Q116.011 714.984 114.427 717.177Q112.842 719.371 111.38 721.649Q109.918 723.926 108.582 726.28Q107.247 728.634 106.042 731.057Q104.838 733.481 103.768 735.967Q102.698 738.452 101.765 740.993C100.46 744.553 100.095 748.734 98.6075 752.084L97.6464 752.264Q97.2673 751.281 96.9592 750.274C94.1327 741.267 96.9197 731.725 101.136 723.616C110.504 705.597 125.171 694.15 144.299 688.083Z" id="svg_98"/><path transform="scale(0.04882809892296791) " d="M140.331 661.222L140.702 661.565C138.071 664.185 134.234 666.076 131.132 668.145Q126.352 671.383 121.856 675.006C109.387 685.001 97.6586 697.254 91.0753 712.009C89.0401 716.57 88.201 721.671 85.9354 726.102C85.8667 726.236 85.7937 726.368 85.7229 726.502C85.1674 724.917 84.8355 723.369 84.6031 721.709C82.9534 709.929 88.1537 699.355 95.1644 690.223C105.886 676.258 122.451 663.536 140.331 661.222Z" id="svg_99"/></g></svg>