<svg width="1024" height="1024" viewBox="0 0 1024 1024" fill="none" xmlns="http://www.w3.org/2000/svg">
<path d="M89 827C123.8 584.2 162.5 445.5 236 325C266.333 286.333 335.4 207.3 369 200.5C411 192 529.5 198.5 551 347C572.5 495.5 453 500.5 401 600.5C349 700.5 374 758.5 387.5 780.5C401 802.5 544 892.5 632.5 807.5C721 722.5 804.5 630 774.5 527C744.5 424 730.5 354 802.5 225.5C874.5 97 921.5 167.5 933 225.5C944.5 283.5 987.282 398.452 944.5 480.5C908 550.5 884.5 670 919.5 780.5" stroke="#727272" stroke-width="90" stroke-linecap="square"/>
<path d="M89 827C123.8 584.2 162.5 445.5 236 325C266.333 286.333 335.4 207.3 369 200.5C411 192 529.5 198.5 551 347C572.5 495.5 453 500.5 401 600.5C349 700.5 374 758.5 387.5 780.5C401 802.5 544 892.5 632.5 807.5C721 722.5 804.5 630 774.5 527C744.5 424 730.5 354 802.5 225.5C874.5 97 921.5 167.5 933 225.5C944.5 283.5 987.282 398.452 944.5 480.5C908 550.5 884.5 670 919.5 780.5" stroke="white" stroke-width="2" stroke-dasharray="50 50"/>
<ellipse cx="95.4054" cy="810.946" rx="33.7297" ry="22.0541" fill="#D9D9D9"/>
<ellipse cx="95.4054" cy="810.622" rx="29.1892" ry="19.1351" fill="#ADADAD"/>
<circle cx="95.4054" cy="710.405" r="45.4054" fill="#FF0000"/>
<path fill-rule="evenodd" clip-rule="evenodd" d="M135.691 729.874L135.696 729.865L136.27 730.013L95.9977 810.946H95.4054L54.5405 730.305L55.1135 730.153L55.1902 730.304L135.691 729.865L135.691 729.874ZM135.476 730.306L55.413 730.743L95.7449 810.151L135.476 730.306Z" fill="#FF0000"/>
<path d="M55.413 730.743L135.476 730.306L95.7449 810.151L55.413 730.743Z" fill="#FF0000"/>
<circle cx="95.4054" cy="710.405" r="29.8378" fill="#5C5C5C"/>
<ellipse cx="380.027" cy="197.015" rx="27.5058" ry="17.9846" fill="#D9D9D9"/>
<ellipse cx="380.027" cy="196.751" rx="23.8031" ry="15.6042" fill="#ADADAD"/>
<circle cx="380.027" cy="115.027" r="37.027" fill="#FF0000"/>
<path fill-rule="evenodd" clip-rule="evenodd" d="M412.879 130.903L412.883 130.896L413.351 131.017L380.51 197.015H380.027L346.703 131.254L347.17 131.131L347.233 131.254L412.879 130.896L412.879 130.903ZM412.704 131.255L347.414 131.612L380.304 196.367L412.704 131.255Z" fill="#FF0000"/>
<path d="M347.414 131.612L412.704 131.255L380.304 196.367L347.414 131.612Z" fill="#FF0000"/>
<circle cx="380.027" cy="115.027" r="24.332" fill="#5C5C5C"/>
<ellipse cx="523.405" cy="839.946" rx="33.7297" ry="22.0541" fill="#D9D9D9"/>
<ellipse cx="523.405" cy="839.622" rx="29.1892" ry="19.1351" fill="#ADADAD"/>
<circle cx="523.405" cy="739.405" r="45.4054" fill="#FF0000"/>
<path fill-rule="evenodd" clip-rule="evenodd" d="M563.691 758.874L563.696 758.865L564.27 759.013L523.998 839.946H523.405L482.541 759.305L483.114 759.153L483.19 759.304L563.691 758.865L563.691 758.874ZM563.476 759.306L483.413 759.743L523.745 839.151L563.476 759.306Z" fill="#FF0000"/>
<path d="M483.413 759.743L563.476 759.306L523.745 839.151L483.413 759.743Z" fill="#FF0000"/>
<circle cx="523.405" cy="739.405" r="29.8378" fill="#5C5C5C"/>
<ellipse cx="877.162" cy="155.378" rx="23.8919" ry="15.6216" fill="#D9D9D9"/>
<ellipse cx="877.162" cy="155.149" rx="20.6757" ry="13.5541" fill="#ADADAD"/>
<circle cx="877.162" cy="84.1622" r="32.1622" fill="#FF0000"/>
<path fill-rule="evenodd" clip-rule="evenodd" d="M905.698 97.9524L905.701 97.946L906.108 98.0511L877.582 155.378H877.162L848.216 98.2575L848.622 98.1504L848.676 98.2574L905.698 97.946L905.698 97.9524ZM905.546 98.2584L848.834 98.5681L877.403 154.815L905.546 98.2584Z" fill="#FF0000"/>
<path d="M848.834 98.5681L905.546 98.2584L877.403 154.815L848.834 98.5681Z" fill="#FF0000"/>
<circle cx="877.162" cy="84.1622" r="21.1351" fill="#5C5C5C"/>
<ellipse cx="920.405" cy="781.946" rx="33.7297" ry="22.0541" fill="#D9D9D9"/>
<ellipse cx="920.405" cy="781.622" rx="29.1892" ry="19.1351" fill="#ADADAD"/>
<circle cx="920.405" cy="681.405" r="45.4054" fill="#FF0000"/>
<path fill-rule="evenodd" clip-rule="evenodd" d="M960.691 700.874L960.696 700.865L961.27 701.013L920.998 781.946H920.405L879.541 701.305L880.114 701.153L880.19 701.304L960.691 700.865L960.691 700.874ZM960.476 701.306L880.413 701.743L920.745 781.151L960.476 701.306Z" fill="#FF0000"/>
<path d="M880.413 701.743L960.476 701.306L920.745 781.151L880.413 701.743Z" fill="#FF0000"/>
<circle cx="920.405" cy="681.405" r="29.8378" fill="#5C5C5C"/>
</svg>
